<svg width="278" height="308" viewBox="0 0 278 308" fill="none" xmlns="http://www.w3.org/2000/svg">
<path d="M205.031 88.4623L203.422 123.112L203.07 142.222L181.27 151.986L151.999 142.464C150.5 136.447 156.694 133.405 156.915 125.316C156.959 123.663 159.053 123.178 159.185 121.635C165.07 119.739 165.136 111.386 164.254 104.839" fill="white"/>
<path d="M205.031 88.4623L203.422 123.112L203.07 142.222L181.27 151.986L151.999 142.464C150.5 136.447 156.694 133.405 156.915 125.316C156.959 123.663 159.053 123.178 159.185 121.635C165.07 119.739 165.136 111.386 164.254 104.839" stroke="black" stroke-width="0.46" stroke-miterlimit="10"/>
<path d="M235.802 234.62L226.038 295.499L80.1445 288.357C81.0262 271.473 83.8695 249.211 91.7384 224.216C100.202 197.304 111.686 176.232 121.274 161.398" fill="#EFBF60"/>
<path d="M235.802 234.62L226.038 295.499L80.1445 288.357C81.0262 271.473 83.8695 249.211 91.7384 224.216C100.202 197.304 111.686 176.232 121.274 161.398" stroke="#040505" stroke-width="0.46" stroke-miterlimit="10" stroke-linecap="round"/>
<path d="M230.402 244.296C247.573 237.375 258.682 232.901 275.852 225.98C276.712 220.381 281.539 184.872 256.522 154.874C236.905 131.355 211.116 125.845 203.666 124.522C201.462 128.534 197.186 135.08 189.692 140.921C187.465 142.663 185.239 144.095 183.101 145.285C175.122 149.782 164.74 146.101 161.677 137.483C161.655 137.417 161.633 137.328 161.589 137.262C158.348 127.851 161.919 119.827 162.713 118.152C154.271 118.13 135.646 119.232 115.896 130.584C96.9406 141.472 86.7133 156.174 82.3711 163.382L110.143 180.354" fill="#EFBF60"/>
<path d="M230.402 244.296C247.573 237.375 258.682 232.901 275.852 225.98C276.712 220.381 281.539 184.872 256.522 154.874C236.905 131.355 211.116 125.845 203.666 124.522C201.462 128.534 197.186 135.08 189.692 140.921C187.465 142.663 185.239 144.095 183.101 145.285C175.122 149.782 164.74 146.101 161.677 137.483C161.655 137.417 161.633 137.328 161.589 137.262C158.348 127.851 161.919 119.827 162.713 118.152C154.271 118.13 135.646 119.232 115.896 130.584C96.9406 141.472 86.7133 156.174 82.3711 163.382L110.143 180.354" stroke="#040505" stroke-width="0.46" stroke-miterlimit="10" stroke-linecap="round"/>
<path d="M156.232 133.185C156.497 135.653 157.687 144.228 164.41 149.033C173.204 155.314 188.435 152.956 198.971 141.098" stroke="#FCFCFC" stroke-width="0.46" stroke-miterlimit="10" stroke-linecap="round"/>
<path d="M88.1895 160.274C95.6175 165.343 103.023 170.391 110.451 175.461" stroke="#FCFCFC" stroke-width="0.46" stroke-miterlimit="10" stroke-linecap="round"/>
<path d="M230.402 208.082V238.852C244.024 233.606 257.646 228.382 271.245 223.136" stroke="#FCFCFC" stroke-width="0.46" stroke-miterlimit="10" stroke-linecap="round"/>
<path d="M96.9387 65.8475H56.4043V139.048H96.9387V65.8475Z" fill="#504CFC"/>
<path d="M100.487 71.4462C100.002 71.0714 99.914 70.3882 100.289 69.9253L111.772 54.915C112.147 54.4301 112.83 54.3419 113.293 54.7166C113.778 55.0913 113.866 55.7746 113.492 56.2374L102.008 71.2478C101.633 71.7327 100.95 71.8209 100.487 71.4462Z" fill="#504CFC"/>
<path d="M141.462 78.0145C140.977 77.6398 140.889 76.9565 141.263 76.4936L152.747 61.4833C153.122 60.9984 153.805 60.9102 154.268 61.2849C154.753 61.6597 154.841 62.3429 154.466 62.8058L142.983 77.8161C142.63 78.301 141.947 78.3892 141.462 78.0145Z" fill="#504CFC"/>
<path d="M102.162 77.0447C101.92 76.4936 102.14 75.8544 102.691 75.5899L119.84 67.6329C120.391 67.3905 121.03 67.6109 121.294 68.1619C121.537 68.713 121.316 69.3522 120.765 69.6167L103.617 77.5737C103.066 77.8161 102.405 77.5737 102.162 77.0447Z" fill="#504CFC"/>
<path d="M103.067 81.1225C103.199 80.5494 103.794 80.1746 104.389 80.3289L122.75 84.8254C123.323 84.9577 123.698 85.5528 123.543 86.1479C123.411 86.721 122.816 87.0957 122.221 86.9414L103.86 82.445C103.287 82.3127 102.935 81.7176 103.067 81.1225Z" fill="#504CFC"/>
<path d="M69.5629 133.185L84.3307 160.296L86.1161 166.181L109.37 180.53L101.126 197.811L99.4072 201.822L97.754 206.098L92.6404 230.013L90.8771 233.231L88.8493 234.752L84.1103 237.067L79.9224 238.676H74.3018L67.8436 237.309L64.3611 235.964C64.3611 235.964 60.1952 233.275 60.1511 233.231C60.107 233.187 53.5166 226.398 53.5166 226.398C53.5166 226.398 51.2904 221.792 51.2463 221.682C51.2023 221.571 49.7696 217.295 49.7696 217.295L49.9679 201.712L50.034 169.465L50.0781 146.454V141.803L47.8079 138.188L43.7743 127.895L43.0469 121.767V116.323L47.4772 105.015L53.0096 97.6095H58.5641V103.891L88.2982 103.193V106.845V123.09L67.3587 129.636L69.5629 133.185Z" fill="white"/>
<path d="M98.1503 224.503C97.5552 225.605 90.8766 237.463 78.0263 238.742C66.1018 239.932 53.9569 231.512 49.8572 218.089L49.9894 141.605C48.6669 139.863 40.8422 129.283 43.5092 115.287C45.3387 105.699 51.0695 99.7475 53.3398 97.6095H58.255" stroke="#040505" stroke-width="0.46" stroke-miterlimit="10" stroke-linecap="round"/>
<path d="M96.9375 206.407C95.7473 198.824 93.9839 190.581 91.4271 181.852C85.0351 160.031 75.7335 142.552 67.2695 129.614" stroke="#040505" stroke-width="0.46" stroke-miterlimit="10" stroke-linecap="round"/>
<path d="M163.329 283.266L156.209 277.821L145.541 268.123L135.534 256.595L128.657 254.656L120.414 251.283L112.809 247.625L102.714 241.563L94.1621 235.171L87.8362 229.528L86.5577 227.456L86.7782 224.327L88.4533 222.563L90.5252 221.615L90.7457 221.197L88.4313 219.632L86.6239 217.317L86.3594 214.518L87.3512 213.504L89.4893 211.873L91.9139 211.719L90.7457 210.264L89.2689 206.914L89.8199 204.952L91.1424 203.96L93.3906 202.924L95.5066 203.519L99.2757 205.679L100.488 206.319L98.6145 203.674L99.4962 200.544L101.965 198.979L104.544 199.001L108.136 200.632L112.28 205.172L121.56 213.46L120.832 210.947L118.099 204.313L117.107 200.72L118.099 198.516L120.678 197.061L123.521 197.127L126.497 199.309L129.583 206.032L143.712 232.416L179.176 240.792L228.66 253.443" fill="white"/>
<path d="M135.293 256.529C142.875 266.183 166.416 293.515 207.259 303.588C220.682 306.894 233.047 307.622 243.517 307.181C257.822 306.564 269.769 296.116 272.48 282.053C273.229 278.152 273.912 274.118 274.508 269.908C276.778 253.906 275.786 238.587 275.389 226.442L231.042 244.362L228.749 252.496" fill="white"/>
<path d="M135.293 256.529C142.875 266.183 166.416 293.515 207.259 303.588C220.682 306.894 233.047 307.622 243.517 307.181C257.822 306.564 269.769 296.116 272.48 282.053C273.229 278.152 273.912 274.118 274.508 269.908C276.778 253.906 275.786 238.587 275.389 226.442L231.042 244.362L228.749 252.496" stroke="#010202" stroke-width="0.46" stroke-miterlimit="10"/>
<path d="M238.49 265.566C238.116 263.186 237.212 259.924 234.699 257.235C233.663 256.132 231.834 254.545 228.66 253.443C222.554 251.283 189.25 242.996 143.557 232.394L126.784 199.794C126.409 199.067 125.858 198.45 125.153 198.031L124.425 197.568C121.604 195.805 117.879 197.568 117.482 200.874C117.394 201.624 117.482 202.373 117.747 203.056L121.78 213.482" stroke="#040505" stroke-width="0.46" stroke-miterlimit="10" stroke-linecap="round"/>
<path d="M121.494 213.747L108.137 200.61C107.674 200.147 107.101 199.794 106.461 199.596L104.544 198.979C101.767 198.075 98.9232 200.191 98.9673 203.101C98.9893 203.938 99.2318 204.754 99.6947 205.415C99.9151 205.723 100.18 206.032 100.466 206.275L117.482 220.58" stroke="#040505" stroke-width="0.46" stroke-miterlimit="10" stroke-linecap="round"/>
<path d="M99.4522 205.79L94.9557 202.99C92.2005 202.395 89.5996 204.467 89.5996 207.288C89.5996 208.633 90.2168 209.933 91.2748 210.771L112.721 227.875" stroke="#040505" stroke-width="0.46" stroke-miterlimit="10" stroke-linecap="round"/>
<path d="M91.9147 211.719C89.1595 211.124 86.5586 213.196 86.5586 216.017C86.5586 217.361 87.1758 218.662 88.2338 219.499L109.746 233.981" stroke="#040505" stroke-width="0.46" stroke-miterlimit="10" stroke-linecap="round"/>
<path d="M91.7604 221.968C89.0052 221.373 86.4043 223.445 86.4043 226.266C86.4043 227.611 87.0214 228.911 88.0794 229.749C94.1409 235.546 102.958 242.687 114.86 248.683C122.332 252.452 129.341 254.898 135.292 256.529" stroke="#040505" stroke-width="0.46" stroke-miterlimit="10" stroke-linecap="round"/>
<path d="M205.802 18.2599C203.753 14.5128 199.366 7.81219 191.453 3.64634C174.393 -5.2805 151.823 3.35981 139.854 16.8492C131.148 26.6798 129.208 37.7887 128.415 42.7481C125.747 59.3895 131.324 72.5483 133.815 77.6399C134.476 79.5355 145.827 90.7105 139.7 101.357C136.812 106.36 154.141 113.694 150.236 110.967C152.141 111.694 138.62 114.273 145.188 114.493C155.46 114.846 173.491 113.827 187.641 105.694C201.638 97.6484 189.337 89.1236 203.973 83.9879C206.464 83.1062 189.756 101.445 191.079 101.048C191.211 104.861 206.354 89.0811 205.141 95.6935C204.017 101.843 203.224 104.209 203.973 104.694C206.111 106.082 225.221 94.5017 232.517 74.3998C234.39 69.22 239.724 53.9011 234.523 35.5405C232.605 28.7737 229.762 23.3515 227.139 19.34C224.692 15.5708 220.725 12.8818 216.25 12.5511C213.605 12.3528 211.114 12.9258 209.109 14.2924C208.249 14.9537 206.883 16.1219 205.802 18.2599Z" fill="black"/>
<path d="M180.079 28.4431C180.74 32.8955 182.79 42.682 190.439 52.1599C197.249 60.5798 205.14 64.6574 209.24 66.4208C209.086 63.0264 211.202 59.9405 214.354 58.8825C217.351 57.8686 220.724 58.8825 222.707 61.3953C223.104 61.8581 227.358 67.082 225.573 73.5402C224.074 78.9183 219.026 82.8638 213.009 83.1944C203.906 104.707 184.311 117.205 168.551 114.582C148.163 111.209 129.339 81.7176 140.713 49.2945C144.79 49.4047 153.783 49.0961 163.46 43.8943C172.761 38.8468 177.897 31.8596 180.079 28.4431Z" fill="white" stroke="black" stroke-width="0.46" stroke-miterlimit="10"/>
<path d="M164.649 73.7606L163.547 82.0924" stroke="black" stroke-width="0.46" stroke-miterlimit="10" stroke-linecap="round"/>
<path d="M189.976 63.6215C187.992 57.5821 183.738 54.342 180.675 55.0473C180.168 55.1575 178.669 55.6204 177.324 57.9568" stroke="black" stroke-width="0.46" stroke-miterlimit="10" stroke-linecap="round"/>
<path d="M156.893 56.9869C154.931 55.5762 152.33 55.4219 150.259 56.5681C148.297 57.6481 147.085 59.7421 147.062 62.0124" stroke="black" stroke-width="0.46" stroke-miterlimit="10" stroke-linecap="round"/>
<path d="M176.025 67.801C176.293 65.7858 175.551 64.0248 174.369 63.8676C173.186 63.7105 172.01 65.2168 171.743 67.2321C171.475 69.2473 172.217 71.0084 173.399 71.1655C174.582 71.3226 175.757 69.8163 176.025 67.801Z" fill="black"/>
<path d="M158.375 68.0095C158.642 65.9943 157.901 64.2332 156.718 64.0761C155.536 63.919 154.36 65.4253 154.092 67.4406C153.824 69.4558 154.566 71.2168 155.749 71.374C156.931 71.5311 158.107 70.0248 158.375 68.0095Z" fill="black"/>
<path opacity="0.34" d="M186.381 84.2804C192.782 83.5701 197.571 79.3948 197.078 74.9544C196.585 70.5141 190.997 67.4903 184.597 68.2006C178.196 68.9109 173.407 73.0863 173.9 77.5266C174.393 81.967 179.981 84.9907 186.381 84.2804Z" fill="#F4DE82"/>
<path opacity="0.34" d="M151.183 87.7729C156.337 87.2009 160.194 83.8438 159.798 80.2746C159.402 76.7054 154.903 74.2756 149.748 74.8476C144.594 75.4196 140.737 78.7767 141.133 82.3459C141.529 85.9151 146.029 88.3449 151.183 87.7729Z" fill="#F4DE82"/>
<path d="M162.312 96.9043C163.437 97.6537 167.889 100.387 173.84 99.5272C181.158 98.4692 184.927 92.8045 185.5 91.9229" stroke="black" stroke-width="0.46" stroke-miterlimit="10" stroke-linecap="round"/>
<path d="M74.7467 47.1432H59.6042L66.8999 57.4146L43.0509 47.1432H3.64062V11.1935H74.7467V47.1432Z" fill="#FCFCFC" stroke="black" stroke-width="0.46" stroke-miterlimit="10"/>
<path d="M26.2079 78.7419L25.6348 77.9264" stroke="#504CFC" stroke-width="1.10208" stroke-miterlimit="10"/>
<path d="M30.663 26.6225C30.4647 26.7327 21.3395 37.1363 21.3395 37.1363L11.4208 25.4543C10.1203 22.3905 11.4648 18.9079 14.2641 17.6074C16.7768 16.4392 19.9067 17.2768 21.626 19.6793C24.1828 16.7037 28.547 16.7478 30.663 19.0842C32.3602 20.9357 32.4925 24.1758 30.663 26.6225Z" fill="#EFBF60" stroke="#040505" stroke-width="0.46" stroke-miterlimit="10" stroke-linecap="round"/>
<path d="M248.275 119.21C251.477 119.21 254.072 116.615 254.072 113.413C254.072 110.212 251.477 107.616 248.275 107.616C245.074 107.616 242.479 110.212 242.479 113.413C242.479 116.615 245.074 119.21 248.275 119.21Z" stroke="#5785EA" stroke-width="1.10208" stroke-miterlimit="10"/>
<path d="M34.7582 152.405C37.4119 152.405 39.5633 150.254 39.5633 147.6C39.5633 144.946 37.4119 142.795 34.7582 142.795C32.1044 142.795 29.9531 144.946 29.9531 147.6C29.9531 150.254 32.1044 152.405 34.7582 152.405Z" stroke="#5454EA" stroke-width="1.10208" stroke-miterlimit="10"/>
</svg>
