<svg width="387" height="435" viewBox="0 0 387 435" fill="none" xmlns="http://www.w3.org/2000/svg">
<g opacity="0.9">
<path d="M243.449 233.756C377.902 243.464 490.523 201.131 494.995 139.202C499.467 77.2725 394.096 19.1987 259.643 9.49018C125.189 -0.218319 12.5683 42.1149 8.09656 104.044C3.62482 165.973 108.996 224.047 243.449 233.756Z" stroke="url(#paint0_linear_5662_114833)" stroke-width="0.8" stroke-miterlimit="10"/>
<path d="M251.9 233.435C383.378 237.245 491.385 191.25 493.139 130.703C494.894 70.1552 389.732 17.9827 258.254 14.1724C126.776 10.3621 18.7689 56.3568 17.0142 116.904C15.2595 177.452 120.421 229.624 251.9 233.435Z" stroke="url(#paint1_linear_5662_114833)" stroke-width="0.8" stroke-miterlimit="10"/>
<path d="M25.9543 130.045C26.9149 189.22 131.849 235.499 260.33 233.413C388.812 231.328 492.188 181.667 491.228 122.493C490.267 63.3186 385.333 17.0391 256.852 19.1248C128.37 21.2104 24.9937 70.8713 25.9543 130.045Z" stroke="url(#paint2_linear_5662_114833)" stroke-width="0.8" stroke-miterlimit="10"/>
<path d="M34.8811 142.95C38.5581 200.75 143.276 241.135 268.775 233.151C394.274 225.167 493.03 171.839 489.353 114.038C485.676 56.2377 380.958 15.8532 255.459 23.8368C129.96 31.8205 31.2041 85.1492 34.8811 142.95Z" stroke="url(#paint3_linear_5662_114833)" stroke-width="0.8" stroke-miterlimit="10"/>
<path d="M43.6442 155.744C50.0324 212.163 154.542 246.653 277.073 232.779C399.603 218.905 493.756 161.921 487.368 105.502C480.979 49.0836 376.47 14.5943 253.939 28.4682C131.408 42.3422 37.256 99.3257 43.6442 155.744Z" stroke="url(#paint4_linear_5662_114833)" stroke-width="0.8" stroke-miterlimit="10"/>
<path d="M52.5477 168.601C61.6523 223.657 165.94 252.263 285.48 232.495C405.021 212.727 494.547 152.069 485.442 97.0135C476.338 41.9575 372.05 13.3511 252.51 33.1195C132.969 52.8879 43.4431 113.545 52.5477 168.601Z" stroke="url(#paint5_linear_5662_114833)" stroke-width="0.8" stroke-miterlimit="10"/>
<path d="M61.5092 181.558C73.3286 235.226 177.404 257.923 293.968 232.252C410.533 206.581 495.445 142.263 483.626 88.5948C471.806 34.9262 367.731 12.2296 251.166 37.9006C134.602 63.5715 49.6897 127.889 61.5092 181.558Z" stroke="url(#paint6_linear_5662_114833)" stroke-width="0.8" stroke-miterlimit="10"/>
<path d="M70.3436 194.353C84.8783 246.657 188.73 263.473 302.302 231.913C415.875 200.352 496.161 132.366 481.626 80.062C467.091 27.7577 363.24 10.9415 249.667 42.502C136.095 74.0625 55.8088 142.048 70.3436 194.353Z" stroke="url(#paint7_linear_5662_114833)" stroke-width="0.8" stroke-miterlimit="10"/>
<path d="M79.609 207.443C96.8637 258.362 200.494 269.262 311.073 231.79C421.653 194.318 497.308 122.663 480.053 71.7447C462.798 20.8264 359.168 9.92624 248.589 47.3984C138.009 84.8705 62.3543 156.525 79.609 207.443Z" stroke="url(#paint8_linear_5662_114833)" stroke-width="0.8" stroke-miterlimit="10"/>
<path d="M88.403 220.29C108.371 269.837 211.79 274.847 319.395 231.481C427.001 188.114 498.045 112.793 478.077 63.2466C458.109 13.6998 354.69 8.68948 247.085 52.0557C139.479 95.422 68.4351 170.743 88.403 220.29Z" stroke="url(#paint9_linear_5662_114833)" stroke-width="0.8" stroke-miterlimit="10"/>
<path d="M97.1542 233.102C119.838 281.286 223.04 280.419 327.662 231.165C432.284 181.911 498.708 102.923 476.024 54.7385C453.34 6.55454 350.138 7.42164 245.516 56.6753C140.894 105.929 74.4702 184.918 97.1542 233.102Z" stroke="url(#paint10_linear_5662_114833)" stroke-width="0.8" stroke-miterlimit="10"/>
<path d="M106.33 246.101C131.734 292.908 234.717 286.137 336.35 230.978C437.982 175.819 499.778 93.1592 474.374 46.352C448.971 -0.455229 345.987 6.31534 244.355 61.4744C142.722 116.633 80.9264 199.293 106.33 246.101Z" stroke="url(#paint11_linear_5662_114833)" stroke-width="0.8" stroke-miterlimit="10"/>
<path d="M115.095 258.964C143.205 304.389 245.967 291.723 344.621 230.674C443.275 169.625 500.462 83.311 472.353 37.8859C444.243 -7.53921 341.48 5.12642 242.826 66.1754C144.172 127.224 86.985 213.539 115.095 258.964Z" stroke="url(#paint12_linear_5662_114833)" stroke-width="0.8" stroke-miterlimit="10"/>
<path d="M124.32 271.953C155.149 315.998 257.695 297.42 353.362 230.457C449.03 163.495 501.592 73.506 470.762 29.4611C439.933 -14.5839 337.388 3.99426 241.72 70.9565C146.053 137.919 93.4907 227.908 124.32 271.953Z" stroke="url(#paint13_linear_5662_114833)" stroke-width="0.8" stroke-miterlimit="10"/>
<path d="M133.22 284.841C166.769 327.52 269.102 303.055 361.789 230.197C454.475 157.338 502.415 63.677 468.866 20.9982C435.318 -21.6806 332.984 2.7848 240.298 75.6431C147.612 148.501 99.6715 242.162 133.22 284.841Z" stroke="url(#paint14_linear_5662_114833)" stroke-width="0.8" stroke-miterlimit="10"/>
<path d="M142.063 297.751C178.319 339.049 280.434 308.683 370.144 229.926C459.855 151.169 503.188 53.8453 466.932 12.5471C430.676 -28.751 328.561 1.61527 238.851 80.372C149.141 159.129 105.807 256.453 142.063 297.751Z" stroke="url(#paint15_linear_5662_114833)" stroke-width="0.8" stroke-miterlimit="10"/>
<path d="M151.128 310.623C190.097 350.542 291.983 314.279 378.697 229.629C465.411 144.978 504.117 43.9949 465.149 4.07624C426.18 -35.8424 324.294 0.419938 237.58 85.0705C150.865 169.721 112.16 270.704 151.128 310.623Z" stroke="url(#paint16_linear_5662_114833)" stroke-width="0.8" stroke-miterlimit="10"/>
<path d="M160.066 323.53C201.754 362.079 303.428 319.923 387.162 229.372C470.895 138.822 504.98 34.1656 463.293 -4.38349C421.605 -42.9326 319.931 -0.77697 236.197 89.7738C152.464 180.325 118.379 284.981 160.066 323.53Z" stroke="url(#paint17_linear_5662_114833)" stroke-width="0.8" stroke-miterlimit="10"/>
<path d="M168.875 336.445C213.268 373.615 314.719 325.564 395.474 229.12C476.228 132.675 505.706 24.359 461.313 -12.8115C416.921 -49.9821 315.469 -1.93108 234.715 94.5133C153.96 190.958 124.483 299.274 168.875 336.445Z" stroke="url(#paint18_linear_5662_114833)" stroke-width="0.8" stroke-miterlimit="10"/>
<path d="M177.905 349.321C225.012 385.117 326.242 331.17 404.007 228.829C481.773 126.488 506.627 14.5068 459.52 -21.2883C412.412 -57.0834 311.183 -3.13728 233.418 99.2038C155.652 201.545 130.798 313.526 177.905 349.321Z" stroke="url(#paint19_linear_5662_114833)" stroke-width="0.8" stroke-miterlimit="10"/>
<path d="M186.865 362.211C236.686 396.631 337.692 336.795 412.468 228.562C487.245 120.329 507.475 4.68605 457.654 -29.7345C407.833 -64.155 306.827 -4.31844 232.051 103.914C157.274 212.147 137.044 327.79 186.865 362.211Z" stroke="url(#paint20_linear_5662_114833)" stroke-width="0.8" stroke-miterlimit="10"/>
<path d="M195.467 375.142C248.004 408.201 348.809 342.483 420.622 228.358C492.435 114.233 508.061 -5.08357 455.525 -38.1422C402.988 -71.2007 302.183 -5.48317 230.37 108.642C158.557 222.768 142.93 342.084 195.467 375.142Z" stroke="url(#paint21_linear_5662_114833)" stroke-width="0.8" stroke-miterlimit="10"/>
</g>
<defs>
<linearGradient id="paint0_linear_5662_114833" x1="259.643" y1="9.49018" x2="243.449" y2="233.756" gradientUnits="userSpaceOnUse">
<stop offset="0.729167" stop-color="#0047BB" stop-opacity="0.13"/>
<stop offset="1" stop-color="white" stop-opacity="0"/>
</linearGradient>
<linearGradient id="paint1_linear_5662_114833" x1="258.254" y1="14.1724" x2="251.9" y2="233.435" gradientUnits="userSpaceOnUse">
<stop offset="0.729167" stop-color="#0047BB" stop-opacity="0.13"/>
<stop offset="1" stop-color="white" stop-opacity="0"/>
</linearGradient>
<linearGradient id="paint2_linear_5662_114833" x1="491.228" y1="122.493" x2="25.9543" y2="130.045" gradientUnits="userSpaceOnUse">
<stop offset="0.729167" stop-color="#0047BB" stop-opacity="0.13"/>
<stop offset="1" stop-color="white" stop-opacity="0"/>
</linearGradient>
<linearGradient id="paint3_linear_5662_114833" x1="489.353" y1="114.038" x2="34.8811" y2="142.95" gradientUnits="userSpaceOnUse">
<stop offset="0.729167" stop-color="#0047BB" stop-opacity="0.13"/>
<stop offset="1" stop-color="white" stop-opacity="0"/>
</linearGradient>
<linearGradient id="paint4_linear_5662_114833" x1="487.368" y1="105.502" x2="43.6442" y2="155.744" gradientUnits="userSpaceOnUse">
<stop offset="0.729167" stop-color="#0047BB" stop-opacity="0.13"/>
<stop offset="1" stop-color="white" stop-opacity="0"/>
</linearGradient>
<linearGradient id="paint5_linear_5662_114833" x1="485.442" y1="97.0134" x2="52.5477" y2="168.601" gradientUnits="userSpaceOnUse">
<stop offset="0.729167" stop-color="#0047BB" stop-opacity="0.13"/>
<stop offset="1" stop-color="white" stop-opacity="0"/>
</linearGradient>
<linearGradient id="paint6_linear_5662_114833" x1="483.626" y1="88.5948" x2="61.5092" y2="181.558" gradientUnits="userSpaceOnUse">
<stop offset="0.729167" stop-color="#0047BB" stop-opacity="0.13"/>
<stop offset="1" stop-color="white" stop-opacity="0"/>
</linearGradient>
<linearGradient id="paint7_linear_5662_114833" x1="481.626" y1="80.062" x2="70.3436" y2="194.353" gradientUnits="userSpaceOnUse">
<stop offset="0.729167" stop-color="#0047BB" stop-opacity="0.13"/>
<stop offset="1" stop-color="white" stop-opacity="0"/>
</linearGradient>
<linearGradient id="paint8_linear_5662_114833" x1="480.053" y1="71.7448" x2="79.609" y2="207.443" gradientUnits="userSpaceOnUse">
<stop offset="0.729167" stop-color="#0047BB" stop-opacity="0.13"/>
<stop offset="1" stop-color="white" stop-opacity="0"/>
</linearGradient>
<linearGradient id="paint9_linear_5662_114833" x1="478.077" y1="63.2466" x2="88.403" y2="220.29" gradientUnits="userSpaceOnUse">
<stop offset="0.729167" stop-color="#0047BB" stop-opacity="0.13"/>
<stop offset="1" stop-color="white" stop-opacity="0"/>
</linearGradient>
<linearGradient id="paint10_linear_5662_114833" x1="476.024" y1="54.7385" x2="97.1542" y2="233.102" gradientUnits="userSpaceOnUse">
<stop offset="0.729167" stop-color="#0047BB" stop-opacity="0.13"/>
<stop offset="1" stop-color="white" stop-opacity="0"/>
</linearGradient>
<linearGradient id="paint11_linear_5662_114833" x1="474.374" y1="46.352" x2="106.33" y2="246.101" gradientUnits="userSpaceOnUse">
<stop offset="0.729167" stop-color="#0047BB" stop-opacity="0.13"/>
<stop offset="1" stop-color="white" stop-opacity="0"/>
</linearGradient>
<linearGradient id="paint12_linear_5662_114833" x1="472.353" y1="37.8859" x2="115.095" y2="258.964" gradientUnits="userSpaceOnUse">
<stop offset="0.729167" stop-color="#0047BB" stop-opacity="0.13"/>
<stop offset="1" stop-color="white" stop-opacity="0"/>
</linearGradient>
<linearGradient id="paint13_linear_5662_114833" x1="470.762" y1="29.4611" x2="124.32" y2="271.953" gradientUnits="userSpaceOnUse">
<stop offset="0.729167" stop-color="#0047BB" stop-opacity="0.13"/>
<stop offset="1" stop-color="white" stop-opacity="0"/>
</linearGradient>
<linearGradient id="paint14_linear_5662_114833" x1="468.866" y1="20.9982" x2="133.22" y2="284.841" gradientUnits="userSpaceOnUse">
<stop offset="0.729167" stop-color="#0047BB" stop-opacity="0.13"/>
<stop offset="1" stop-color="white" stop-opacity="0"/>
</linearGradient>
<linearGradient id="paint15_linear_5662_114833" x1="466.932" y1="12.5472" x2="142.063" y2="297.751" gradientUnits="userSpaceOnUse">
<stop offset="0.729167" stop-color="#0047BB" stop-opacity="0.13"/>
<stop offset="1" stop-color="white" stop-opacity="0"/>
</linearGradient>
<linearGradient id="paint16_linear_5662_114833" x1="465.149" y1="4.07614" x2="151.128" y2="310.623" gradientUnits="userSpaceOnUse">
<stop offset="0.729167" stop-color="#0047BB" stop-opacity="0.13"/>
<stop offset="1" stop-color="white" stop-opacity="0"/>
</linearGradient>
<linearGradient id="paint17_linear_5662_114833" x1="463.293" y1="-4.38352" x2="160.066" y2="323.53" gradientUnits="userSpaceOnUse">
<stop offset="0.729167" stop-color="#0047BB" stop-opacity="0.13"/>
<stop offset="1" stop-color="white" stop-opacity="0"/>
</linearGradient>
<linearGradient id="paint18_linear_5662_114833" x1="461.313" y1="-12.8116" x2="168.875" y2="336.445" gradientUnits="userSpaceOnUse">
<stop offset="0.729167" stop-color="#0047BB" stop-opacity="0.13"/>
<stop offset="1" stop-color="white" stop-opacity="0"/>
</linearGradient>
<linearGradient id="paint19_linear_5662_114833" x1="459.52" y1="-21.2883" x2="177.905" y2="349.321" gradientUnits="userSpaceOnUse">
<stop offset="0.729167" stop-color="#0047BB" stop-opacity="0.13"/>
<stop offset="1" stop-color="white" stop-opacity="0"/>
</linearGradient>
<linearGradient id="paint20_linear_5662_114833" x1="457.654" y1="-29.7345" x2="186.865" y2="362.211" gradientUnits="userSpaceOnUse">
<stop offset="0.729167" stop-color="#0047BB" stop-opacity="0.13"/>
<stop offset="1" stop-color="white" stop-opacity="0"/>
</linearGradient>
<linearGradient id="paint21_linear_5662_114833" x1="455.525" y1="-38.1422" x2="195.467" y2="375.142" gradientUnits="userSpaceOnUse">
<stop offset="0.729167" stop-color="#0047BB" stop-opacity="0.13"/>
<stop offset="1" stop-color="white" stop-opacity="0"/>
</linearGradient>
</defs>
</svg>
