<svg width="32" height="32" viewBox="0 0 32 32" fill="none" xmlns="http://www.w3.org/2000/svg">
<path d="M16.0001 29.3333C23.3639 29.3333 29.3334 23.3638 29.3334 16C29.3334 8.63619 23.3639 2.66666 16.0001 2.66666C8.63628 2.66666 2.66675 8.63619 2.66675 16C2.66675 23.3638 8.63628 29.3333 16.0001 29.3333Z" fill="black" stroke="#0026E6" stroke-width="1.8" stroke-linecap="round" stroke-linejoin="round"/>
<path d="M10.6662 4H11.9996C9.39956 11.7867 9.39956 20.2133 11.9996 28H10.6662" fill="black"/>
<path d="M10.6662 4H11.9996C9.39956 11.7867 9.39956 20.2133 11.9996 28H10.6662" stroke="#0026E6" stroke-width="1.8" stroke-linecap="round" stroke-linejoin="round"/>
<path d="M20 4C22.6 11.7867 22.6 20.2133 20 28V4Z" fill="black"/>
<path d="M20 4C22.6 11.7867 22.6 20.2133 20 28" stroke="#0026E6" stroke-width="1.8" stroke-linecap="round" stroke-linejoin="round"/>
<path d="M4 21.3333V20C11.7867 22.6 20.2133 22.6 28 20V21.3333" fill="black"/>
<path d="M4 21.3333V20C11.7867 22.6 20.2133 22.6 28 20V21.3333" stroke="#0026E6" stroke-width="1.8" stroke-linecap="round" stroke-linejoin="round"/>
<path d="M4 12C11.7867 9.39999 20.2133 9.39999 28 12" stroke="#0026E6" stroke-width="1.8" stroke-linecap="round" stroke-linejoin="round"/>
</svg>
