<svg width="242" height="181" viewBox="0 0 242 181" fill="none" xmlns="http://www.w3.org/2000/svg">
<path d="M65.8929 126.651L57.4922 132.576L91.5399 179.998L99.9406 174.073L65.8929 126.651Z" fill="white" stroke="black" stroke-width="0.313302" stroke-miterlimit="10"/>
<path d="M152.432 46.2949L41.3738 124.221C41.0183 124.472 37.5683 126.993 37.5393 131.426C37.5175 134.651 39.3133 137.661 42.2082 139.279C88.0092 146.747 133.81 154.215 179.607 161.682" fill="#00CFB4"/>
<path d="M152.432 46.2949L41.3738 124.221C41.0183 124.472 37.5683 126.993 37.5393 131.426C37.5175 134.651 39.3133 137.661 42.2082 139.279C88.0092 146.747 133.81 154.215 179.607 161.682" stroke="black" stroke-width="0.313302" stroke-miterlimit="10"/>
<path d="M182.562 161.407C193.764 158.771 196.624 130.667 188.951 98.6336C181.278 66.6007 165.976 42.7696 154.775 45.4053C143.573 48.041 140.713 76.1455 148.386 108.178C156.059 140.211 171.36 164.042 182.562 161.407Z" fill="#E3EBF8" stroke="black" stroke-width="0.626604" stroke-miterlimit="10"/>
<path d="M177.601 116.446C180.156 115.89 180.797 108.978 179.031 101.009C177.265 93.0397 173.761 87.0302 171.206 87.5865C168.65 88.1428 168.01 95.0542 169.776 103.024C171.542 110.993 175.045 117.002 177.601 116.446Z" fill="black"/>
<path d="M148.828 88.5001L171.212 87.5977L177.604 116.455L157.909 124.977" stroke="black" stroke-width="0.626604" stroke-miterlimit="10" stroke-linecap="round"/>
<path d="M198.227 131.341C200.207 130.967 206.179 130.101 212.306 133.362C215.694 135.163 217.842 137.543 219.036 139.115" stroke="#F09A99" stroke-width="0.313302" stroke-miterlimit="10" stroke-linecap="round"/>
<path d="M189.774 132.137C188.787 132.223 187.582 132.41 186.255 132.809C184.575 133.312 183.229 133.988 182.242 134.585" stroke="#F09A99" stroke-width="0.313302" stroke-miterlimit="10" stroke-linecap="round"/>
<path d="M194.891 112.675C199.603 112.682 203.256 111.891 205.698 111.176C207.149 110.748 208.266 110.417 209.547 109.712C213.625 107.472 215.5 103.618 216.32 101.479" stroke="#F09A99" stroke-width="0.313302" stroke-miterlimit="10" stroke-linecap="round"/>
<path d="M214.518 95.4191C213.901 94.9481 212.845 94.3189 211.811 94.5814C209.856 95.0775 209.134 98.4537 209.395 100.5C209.841 104.038 213.662 107.051 218.904 108.334" stroke="#F09A99" stroke-width="0.313302" stroke-miterlimit="10" stroke-linecap="round"/>
<path d="M167.602 58.8379V66.4532C168.4 74.2123 175.078 80.1701 182.925 80.1486C190.74 80.127 197.368 74.18 198.162 66.4532C198.18 64.1305 198.202 61.8042 198.22 59.4815" fill="#3D7FEC"/>
<path d="M167.602 58.8379V66.4532C168.4 74.2123 175.078 80.1701 182.925 80.1486C190.74 80.127 197.368 74.18 198.162 66.4532C198.18 64.1305 198.202 61.8042 198.22 59.4815" stroke="black" stroke-width="0.313302" stroke-miterlimit="10"/>
<path d="M197.264 64.7896C200.078 56.9428 195.912 48.3103 187.959 45.5086C180.006 42.7068 171.277 46.7967 168.463 54.6435C165.649 62.4904 169.815 71.1228 177.768 73.9246C185.721 76.7264 194.45 72.6365 197.264 64.7896Z" fill="#ADCCFF" stroke="black" stroke-width="0.313302" stroke-miterlimit="10"/>
<path d="M192.098 62.9709C193.903 57.938 191.23 52.4008 186.127 50.6032C181.024 48.8056 175.425 51.4284 173.62 56.4613C171.815 61.4942 174.488 67.0314 179.591 68.829C184.693 70.6266 190.293 68.0038 192.098 62.9709Z" stroke="#E7EAFF" stroke-width="0.939907" stroke-miterlimit="10"/>
<path d="M183.064 63.5075L182.244 45.7268L183.383 45.6788L184.204 63.4595L183.064 63.5075ZM186.324 50.8995C186.209 50.1992 185.845 49.6671 185.235 49.3031C184.624 48.9391 183.888 48.7752 183.026 48.8115C182.396 48.838 181.85 48.9631 181.387 49.1867C180.929 49.4101 180.576 49.7057 180.328 50.0733C180.085 50.4408 179.974 50.8514 179.995 51.3052C180.013 51.6849 180.118 52.0075 180.311 52.2731C180.509 52.5339 180.756 52.7485 181.051 52.917C181.346 53.0809 181.654 53.214 181.974 53.3165C182.294 53.4144 182.588 53.4925 182.855 53.5509L184.318 53.879C184.693 53.9606 185.112 54.0776 185.573 54.2298C186.04 54.3818 186.488 54.5972 186.919 54.876C187.354 55.15 187.718 55.5104 188.013 55.9573C188.307 56.4042 188.47 56.9611 188.5 57.6279C188.536 58.3965 188.366 59.0995 187.992 59.737C187.622 60.3742 187.062 60.8919 186.31 61.2901C185.563 61.6881 184.642 61.9101 183.549 61.9561C182.531 61.999 181.641 61.8717 180.88 61.5744C180.124 61.2768 179.519 60.843 179.066 60.2728C178.617 59.7025 178.347 59.0296 178.256 58.254L180.034 58.1791C180.105 58.7143 180.306 59.1512 180.638 59.4899C180.973 59.8237 181.388 60.066 181.882 60.2169C182.381 60.3629 182.913 60.424 183.478 60.4003C184.135 60.3726 184.721 60.2412 185.234 60.0062C185.748 59.7665 186.148 59.4481 186.436 59.0509C186.724 58.6491 186.856 58.1889 186.832 57.6703C186.81 57.198 186.66 56.8192 186.383 56.534C186.105 56.2487 185.747 56.0226 185.307 55.8555C184.868 55.6884 184.395 55.5459 183.888 55.4281L182.115 55.0017C180.989 54.729 180.088 54.3099 179.412 53.7445C178.736 53.1792 178.376 52.4172 178.332 51.4587C178.295 50.6623 178.478 49.9587 178.882 49.3478C179.29 48.7322 179.852 48.2446 180.568 47.885C181.289 47.5206 182.104 47.3193 183.011 47.2811C183.928 47.2425 184.751 47.3726 185.479 47.6713C186.208 47.9654 186.793 48.3861 187.236 48.9335C187.683 49.4807 187.935 50.1126 187.992 50.8294L186.324 50.8995Z" fill="#E7EAFF"/>
<path d="M192.672 160.09V167.108C193.408 174.256 199.561 179.747 206.795 179.729C213.996 179.707 220.102 174.227 220.838 167.108C220.856 164.965 220.874 162.826 220.893 160.683" fill="#3D7FEC"/>
<path d="M192.672 160.09V167.108C193.408 174.256 199.561 179.747 206.795 179.729C213.996 179.707 220.102 174.227 220.838 167.108C220.856 164.965 220.874 162.826 220.893 160.683" stroke="black" stroke-width="0.313302" stroke-miterlimit="10"/>
<path d="M220.014 165.582C222.608 158.351 218.768 150.395 211.438 147.813C204.107 145.231 196.063 148.999 193.469 156.231C190.876 163.462 194.716 171.418 202.046 174C209.376 176.582 217.421 172.813 220.014 165.582Z" fill="#ADCCFF" stroke="black" stroke-width="0.313302" stroke-miterlimit="10"/>
<path d="M215.244 163.898C216.907 159.26 214.444 154.157 209.741 152.5C205.039 150.844 199.878 153.261 198.215 157.899C196.552 162.537 199.015 167.64 203.718 169.296C208.42 170.953 213.581 168.536 215.244 163.898Z" stroke="#E7EAFF" stroke-width="0.939907" stroke-miterlimit="10"/>
<path d="M206.973 164.89L206.217 148.504L207.267 148.46L208.023 164.846L206.973 164.89ZM209.978 153.271C209.871 152.625 209.536 152.135 208.973 151.8C208.41 151.464 207.732 151.313 206.938 151.347C206.358 151.371 205.854 151.486 205.428 151.692C205.005 151.898 204.68 152.171 204.452 152.509C204.228 152.848 204.126 153.226 204.145 153.645C204.161 153.995 204.258 154.292 204.436 154.537C204.619 154.777 204.846 154.975 205.118 155.13C205.39 155.281 205.674 155.404 205.969 155.498C206.264 155.588 206.534 155.66 206.781 155.714L208.129 156.017C208.474 156.092 208.86 156.2 209.285 156.34C209.715 156.48 210.129 156.678 210.525 156.935C210.926 157.188 211.262 157.52 211.533 157.932C211.805 158.344 211.955 158.857 211.983 159.471C212.016 160.18 211.859 160.828 211.515 161.415C211.174 162.002 210.657 162.479 209.964 162.846C209.276 163.213 208.428 163.418 207.42 163.46C206.481 163.5 205.661 163.382 204.96 163.108C204.263 162.834 203.706 162.434 203.289 161.909C202.875 161.383 202.626 160.763 202.542 160.048L204.181 159.979C204.246 160.473 204.432 160.875 204.737 161.187C205.046 161.495 205.429 161.718 205.884 161.857C206.343 161.992 206.834 162.048 207.354 162.026C207.96 162.001 208.5 161.88 208.973 161.663C209.446 161.442 209.815 161.149 210.081 160.783C210.346 160.412 210.467 159.988 210.445 159.51C210.425 159.075 210.287 158.726 210.031 158.463C209.775 158.2 209.445 157.992 209.04 157.838C208.636 157.684 208.2 157.553 207.733 157.444L206.098 157.051C205.06 156.8 204.23 156.414 203.607 155.893C202.985 155.372 202.653 154.669 202.612 153.786C202.578 153.052 202.747 152.404 203.119 151.841C203.495 151.274 204.013 150.824 204.673 150.493C205.338 150.157 206.088 149.971 206.924 149.936C207.77 149.901 208.528 150.021 209.199 150.296C209.87 150.567 210.41 150.955 210.818 151.459C211.23 151.963 211.462 152.546 211.514 153.206L209.978 153.271Z" fill="#E7EAFF"/>
<path d="M51.5 73.3398V80.3583C52.2364 87.5062 58.3892 92.9966 65.623 92.9786C72.8242 92.957 78.9298 87.4774 79.6662 80.3583C79.6844 78.2154 79.7025 76.076 79.7206 73.9331" fill="#3D7FEC"/>
<path d="M51.5 73.3398V80.3583C52.2364 87.5062 58.3892 92.9966 65.623 92.9786C72.8242 92.957 78.9298 87.4774 79.6662 80.3583C79.6844 78.2154 79.7025 76.076 79.7206 73.9331" stroke="black" stroke-width="0.313302" stroke-miterlimit="10"/>
<path d="M78.858 78.8145C81.4514 71.5832 77.6115 63.6277 70.2813 61.0454C62.9511 58.4631 54.9064 62.2318 52.313 69.4632C49.7196 76.6945 53.5595 84.65 60.8897 87.2323C68.2199 89.8146 76.2646 86.0459 78.858 78.8145Z" fill="#ADCCFF" stroke="black" stroke-width="0.313302" stroke-miterlimit="10"/>
<path d="M74.1034 77.1322C75.7668 72.494 73.3032 67.3911 68.6007 65.7345C63.8983 64.078 58.7378 66.495 57.0744 71.1331C55.411 75.7713 57.8746 80.8742 62.577 82.5308C67.2795 84.1874 72.44 81.7703 74.1034 77.1322Z" stroke="#E7EAFF" stroke-width="0.939907" stroke-miterlimit="10"/>
<path d="M65.8014 78.128L65.0451 61.7421L66.095 61.6979L66.8513 78.0838L65.8014 78.128ZM68.8058 66.5091C68.699 65.8638 68.3642 65.3733 67.8014 65.0379C67.2386 64.7025 66.5602 64.5514 65.7664 64.5849C65.186 64.6093 64.6824 64.7246 64.2557 64.9306C63.8334 65.1365 63.5081 65.4089 63.28 65.7477C63.0562 66.0863 62.9539 66.4648 62.9732 66.8829C62.9893 67.2328 63.0864 67.5302 63.2645 67.7749C63.4467 68.0152 63.6739 68.213 63.9462 68.3683C64.2183 68.5193 64.5019 68.6421 64.797 68.7365C65.092 68.8267 65.3626 68.8987 65.6088 68.9525L66.9569 69.2548C67.3025 69.3301 67.6881 69.4378 68.1136 69.5781C68.5434 69.7182 68.9567 69.9167 69.3534 70.1737C69.7542 70.4261 70.0902 70.7583 70.3615 71.1701C70.6328 71.582 70.7827 72.0952 70.811 72.7096C70.8437 73.418 70.6876 74.0659 70.3427 74.6533C70.0021 75.2406 69.4853 75.7176 68.7924 76.0846C68.1037 76.4513 67.2558 76.6559 66.2485 76.6983C65.3096 76.7378 64.4896 76.6206 63.7884 76.3465C63.0916 76.0723 62.5343 75.6725 62.1167 75.1471C61.7033 74.6215 61.4544 74.0014 61.3701 73.2867L63.009 73.2177C63.0745 73.7109 63.2599 74.1135 63.5651 74.4256C63.8743 74.7332 64.2567 74.9565 64.7121 75.0956C65.1716 75.2301 65.6617 75.2865 66.1824 75.2645C66.7884 75.239 67.328 75.118 67.8013 74.9014C68.2743 74.6805 68.6434 74.3871 68.9088 74.021C69.1739 73.6507 69.2955 73.2266 69.2734 72.7487C69.2533 72.3135 69.1153 71.9644 68.8595 71.7015C68.6036 71.4387 68.2732 71.2303 67.8684 71.0763C67.4636 70.9223 67.0278 70.791 66.561 70.6824L64.9264 70.2895C63.8885 70.0382 63.0582 69.652 62.4355 69.131C61.8128 68.6099 61.4811 67.9077 61.4403 67.0244C61.4064 66.2905 61.5753 65.6421 61.947 65.0791C62.3228 64.5118 62.8409 64.0624 63.5012 63.7311C64.1656 63.3953 64.9161 63.2098 65.7526 63.1745C66.5977 63.139 67.3558 63.2588 68.0271 63.5341C68.6981 63.8052 69.2377 64.1929 69.6458 64.6973C70.0583 65.2016 70.2904 65.7839 70.3423 66.4444L68.8058 66.5091Z" fill="#E7EAFF"/>
<path d="M58.9766 61.9551V68.9735C59.713 76.1214 65.8658 81.6118 73.0996 81.5938C80.3008 81.5723 86.4063 76.0927 87.1428 68.9735C87.1609 66.8306 87.1791 64.6913 87.1972 62.5483" fill="#3D7FEC"/>
<path d="M58.9766 61.9551V68.9735C59.713 76.1214 65.8658 81.6118 73.0996 81.5938C80.3008 81.5723 86.4063 76.0927 87.1428 68.9735C87.1609 66.8306 87.1791 64.6913 87.1972 62.5483" stroke="black" stroke-width="0.313302" stroke-miterlimit="10"/>
<path d="M86.3424 67.4278C88.9358 60.1965 85.0959 52.241 77.7657 49.6587C70.4354 47.0764 62.3907 50.8451 59.7973 58.0765C57.2039 65.3078 61.0439 73.2633 68.3741 75.8456C75.7043 78.4279 83.749 74.6591 86.3424 67.4278Z" fill="#ADCCFF" stroke="black" stroke-width="0.313302" stroke-miterlimit="10"/>
<path d="M81.5878 65.7454C83.2512 61.1073 80.7875 56.0044 76.0851 54.3478C71.3827 52.6912 66.2221 55.1083 64.5587 59.7464C62.8953 64.3846 65.359 69.4875 70.0614 71.144C74.7638 72.8006 79.9244 70.3836 81.5878 65.7454Z" stroke="#E7EAFF" stroke-width="0.939907" stroke-miterlimit="10"/>
<path d="M73.2858 66.7374L72.5294 50.3515L73.5794 50.3073L74.3357 66.6932L73.2858 66.7374ZM76.2902 55.1185C76.1834 54.4731 75.8486 53.9827 75.2858 53.6473C74.7229 53.3118 74.0446 53.1608 73.2508 53.1942C72.6703 53.2187 72.1668 53.3339 71.7401 53.54C71.3177 53.7459 70.9925 54.0183 70.7644 54.3571C70.5405 54.6957 70.4383 55.0741 70.4576 55.4923C70.4737 55.8422 70.5708 56.1396 70.7489 56.3843C70.931 56.6246 71.1583 56.8224 71.4305 56.9777C71.7026 57.1287 71.9863 57.2514 72.2814 57.3459C72.5763 57.4361 72.8469 57.5081 73.0932 57.5618L74.4413 57.8642C74.7869 57.9395 75.1724 58.0472 75.598 58.1875C76.0278 58.3276 76.441 58.5261 76.8378 58.783C77.2386 59.0355 77.5746 59.3677 77.8459 59.7795C78.1172 60.1914 78.2671 60.7045 78.2954 61.319C78.3281 62.0274 78.172 62.6752 77.8271 63.2627C77.4864 63.8499 76.9696 64.327 76.2767 64.694C75.5881 65.0607 74.7401 65.2653 73.7329 65.3077C72.794 65.3472 71.9739 65.23 71.2728 64.9559C70.576 64.6817 70.0187 64.2819 69.601 63.7565C69.1876 63.2309 68.9388 62.6108 68.8545 61.896L70.4934 61.827C70.5589 62.3202 70.7443 62.7229 71.0494 63.035C71.3587 63.3426 71.741 63.5659 72.1965 63.7049C72.656 63.8395 73.146 63.8958 73.6667 63.8739C74.2728 63.8484 74.8124 63.7274 75.2856 63.5108C75.7586 63.2899 76.1278 62.9965 76.3932 62.6304C76.6583 62.2601 76.7798 61.836 76.7578 61.3581C76.7377 60.9228 76.5997 60.5738 76.3438 60.3109C76.088 60.0481 75.7576 59.8396 75.3528 59.6857C74.948 59.5317 74.5122 59.4004 74.0454 59.2918L72.4108 58.8989C71.3729 58.6475 70.5426 58.2614 69.9199 57.7403C69.2972 57.2193 68.9654 56.5171 68.9247 55.6338C68.8908 54.8999 69.0597 54.2514 69.4314 53.6885C69.8072 53.1212 70.3252 52.6718 70.9856 52.3405C71.65 52.0046 72.4005 51.8191 73.237 51.7839C74.082 51.7483 74.8402 51.8682 75.5114 52.1435C76.1825 52.4145 76.7221 52.8023 77.1302 53.3067C77.5426 53.8109 77.7748 54.3933 77.8266 55.0538L76.2902 55.1185Z" fill="#E7EAFF"/>
<path d="M156.779 169.298L140.875 162.855L151.867 150.264" stroke="black" stroke-width="0.313302" stroke-miterlimit="10"/>
<path d="M140.866 166.651C142.98 166.651 144.694 164.953 144.694 162.858C144.694 160.763 142.98 159.064 140.866 159.064C138.753 159.064 137.039 160.763 137.039 162.858C137.039 164.953 138.753 166.651 140.866 166.651Z" fill="#ED6625" stroke="black" stroke-width="0.313302" stroke-miterlimit="10"/>
<path d="M156.773 172.674C158.886 172.674 160.6 170.976 160.6 168.881C160.6 166.786 158.886 165.088 156.773 165.088C154.659 165.088 152.945 166.786 152.945 168.881C152.945 170.976 154.659 172.674 156.773 172.674Z" fill="#ED6625" stroke="black" stroke-width="0.313302" stroke-miterlimit="10"/>
<path d="M151.859 154.059C153.972 154.059 155.686 152.361 155.686 150.266C155.686 148.171 153.972 146.473 151.859 146.473C149.745 146.473 148.031 148.171 148.031 150.266C148.031 152.361 149.745 154.059 151.859 154.059Z" fill="#ED6625" stroke="black" stroke-width="0.313302" stroke-miterlimit="10"/>
<path d="M118.128 39.1455C124.542 39.1455 129.741 33.9926 129.741 27.6362C129.741 21.2798 124.542 16.127 118.128 16.127C111.715 16.127 106.516 21.2798 106.516 27.6362C106.516 33.9926 111.715 39.1455 118.128 39.1455Z" fill="#81AAED"/>
<path d="M115.352 22.9929L115.522 32.2909C115.526 32.575 115.838 32.7476 116.084 32.6037L123.935 28.0158C124.178 27.872 124.178 27.5233 123.935 27.3794L115.91 22.6693C115.664 22.5219 115.348 22.7053 115.352 22.9929Z" fill="white" stroke="black" stroke-width="0.313302" stroke-miterlimit="10"/>
</svg>
