<svg width="44" height="44" viewBox="0 0 44 44" fill="none" xmlns="http://www.w3.org/2000/svg">
<rect width="44" height="44" rx="8" fill="white"/>
<path d="M18.7276 22C19.3063 22 19.8612 21.7701 20.2704 21.361C20.6796 20.9518 20.9094 20.3968 20.9094 19.8182C20.9094 19.2395 20.6796 18.6846 20.2704 18.2754C19.8612 17.8662 19.3063 17.6364 18.7276 17.6364C18.149 17.6364 17.594 17.8662 17.1848 18.2754C16.7757 18.6846 16.5458 19.2395 16.5458 19.8182C16.5458 20.3968 16.7757 20.9518 17.1848 21.361C17.594 21.7701 18.149 22 18.7276 22ZM32.364 16L22.0004 10L11.6367 16V28L22.0004 34L32.364 28V16ZM22.0004 12.5211L30.1822 17.2578V24.7633L25.2054 21.7785L16.5098 28.3L13.8185 26.7422V17.2578L22.0004 12.5211ZM22.0004 31.4789L18.5618 29.488L25.3407 24.4044L29.7022 27.0204L22.0004 31.4789Z" fill="#0047BB"/>
</svg>
