<svg width="40" height="42" viewBox="0 0 40 42" fill="none" xmlns="http://www.w3.org/2000/svg">
<rect width="40" height="42" rx="8" fill="#0047BB"/>
<path d="M17 21C17.5304 21 18.0391 20.7893 18.4142 20.4142C18.7893 20.0391 19 19.5304 19 19C19 18.4696 18.7893 17.9609 18.4142 17.5858C18.0391 17.2107 17.5304 17 17 17C16.4696 17 15.9609 17.2107 15.5858 17.5858C15.2107 17.9609 15 18.4696 15 19C15 19.5304 15.2107 20.0391 15.5858 20.4142C15.9609 20.7893 16.4696 21 17 21ZM29.5 15.5L20 10L10.5 15.5V26.5L20 32L29.5 26.5V15.5ZM20 12.311L27.5 16.653V23.533L22.938 20.797L14.967 26.775L12.5 25.347V16.653L20 12.311ZM20 29.689L16.848 27.864L23.062 23.204L27.06 25.602L20 29.689Z" fill="white"/>
</svg>
