<svg width="44" height="44" viewBox="0 0 44 44" fill="none" xmlns="http://www.w3.org/2000/svg">
<rect width="44" height="44" rx="8" fill="white"/>
<path fill-rule="evenodd" clip-rule="evenodd" d="M15.6842 31.6H26.224C26.6526 32.4542 27.1819 33.2593 27.8017 34H15.6842C12.5503 34 10 31.5772 10 28.6C10 25.6228 12.5503 23.2 15.6842 23.2H24.5263C25.5709 23.2 26.4211 22.3924 26.4211 21.4C26.4211 20.4076 25.5709 19.6 24.5263 19.6H16.6758C17.3478 18.87 17.9222 18.0639 18.3861 17.2H24.5263C26.9642 17.2 28.9474 19.084 28.9474 21.4C28.9474 23.716 26.9642 25.6 24.5263 25.6H15.6842C13.9423 25.6 12.5263 26.9452 12.5263 28.6C12.5263 30.2548 13.9423 31.6 15.6842 31.6ZM10 13.6C10 11.6152 11.7002 10 13.7895 10C15.8787 10 17.5789 11.6152 17.5789 13.6C17.5789 17.4244 13.7895 19.6 13.7895 19.6C13.7895 19.6 10 17.4256 10 13.6ZM13.0642 15.2627C13.2941 15.3533 13.5406 15.3999 13.7895 15.4C14.2922 15.4002 14.7743 15.2106 15.1299 14.873C15.4855 14.5355 15.6853 14.0775 15.6855 13.6C15.6856 13.1225 15.4861 12.6644 15.1308 12.3266C14.7754 11.9888 14.2934 11.799 13.7907 11.7988C13.5418 11.7987 13.2954 11.8452 13.0654 11.9356C12.8354 12.026 12.6264 12.1586 12.4503 12.3258C12.2743 12.4929 12.1346 12.6914 12.0393 12.9098C11.9439 13.1282 11.8948 13.3623 11.8947 13.5988C11.8947 13.8353 11.9436 14.0694 12.0388 14.2879C12.1339 14.5064 12.2735 14.7049 12.4494 14.8722C12.6254 15.0394 12.8343 15.1721 13.0642 15.2627ZM26.4211 28C26.4211 26.0152 28.1213 24.4 30.2105 24.4C32.2998 24.4 34 26.0152 34 28C34 31.8244 30.2105 34 30.2105 34C30.2105 34 26.4211 31.8256 26.4211 28ZM29.4852 29.6627C29.7152 29.7533 29.9616 29.7999 30.2105 29.8C30.7132 29.8002 31.1954 29.6106 31.5509 29.273C31.9065 28.9355 32.1064 28.4775 32.1065 28C32.1067 27.5225 31.9072 27.0644 31.5518 26.7266C31.1965 26.3888 30.7145 26.199 30.2118 26.1988C29.9629 26.1987 29.7164 26.2452 29.4864 26.3356C29.2564 26.4261 29.0474 26.5586 28.8714 26.7258C28.6953 26.8929 28.5556 27.0914 28.4603 27.3098C28.365 27.5282 28.3159 27.7623 28.3158 27.9988C28.3157 28.2353 28.3646 28.4694 28.4598 28.6879C28.555 28.9064 28.6945 29.1049 28.8705 29.2722C29.0464 29.4394 29.2553 29.5721 29.4852 29.6627Z" fill="#0047BB"/>
</svg>
