<svg width="40" height="40" viewBox="0 0 40 40" fill="none" xmlns="http://www.w3.org/2000/svg">
<rect width="40" height="40" rx="8" fill="#0047BB"/>
<path fill-rule="evenodd" clip-rule="evenodd" d="M15 28H23.344C23.6833 28.7118 24.1023 29.3828 24.593 30H15C12.519 30 10.5 27.981 10.5 25.5C10.5 23.019 12.519 21 15 21H22C22.827 21 23.5 20.327 23.5 19.5C23.5 18.673 22.827 18 22 18H15.785C16.317 17.3916 16.7718 16.7199 17.139 16H22C23.93 16 25.5 17.57 25.5 19.5C25.5 21.43 23.93 23 22 23H15C13.621 23 12.5 24.121 12.5 25.5C12.5 26.879 13.621 28 15 28ZM10.5 13C10.5 11.346 11.846 10 13.5 10C15.154 10 16.5 11.346 16.5 13C16.5 16.187 13.5 18 13.5 18C13.5 18 10.5 16.188 10.5 13ZM12.9258 14.3856C13.1078 14.4611 13.303 14.4999 13.5 14.5C13.898 14.5001 14.2797 14.3422 14.5612 14.0609C14.8427 13.7796 15.0009 13.398 15.001 13C15.0011 12.602 14.8432 12.2203 14.5619 11.9388C14.2806 11.6573 13.899 11.4991 13.501 11.499C13.304 11.4989 13.1088 11.5377 12.9267 11.613C12.7447 11.6884 12.5792 11.7988 12.4398 11.9381C12.3005 12.0774 12.1899 12.2428 12.1144 12.4248C12.0389 12.6068 12.0001 12.802 12 12.999C11.9999 13.196 12.0387 13.3912 12.114 13.5733C12.1894 13.7553 12.2998 13.9208 12.4391 14.0602C12.5784 14.1995 12.7438 14.3101 12.9258 14.3856ZM23.5 25C23.5 23.346 24.846 22 26.5 22C28.154 22 29.5 23.346 29.5 25C29.5 28.187 26.5 30 26.5 30C26.5 30 23.5 28.188 23.5 25ZM25.9258 26.3856C26.1078 26.4611 26.303 26.4999 26.5 26.5C26.898 26.5001 27.2797 26.3422 27.5612 26.0609C27.8427 25.7796 28.0009 25.398 28.001 25C28.0011 24.602 27.8432 24.2203 27.5619 23.9388C27.2806 23.6573 26.899 23.4991 26.501 23.499C26.304 23.4989 26.1088 23.5377 25.9267 23.613C25.7447 23.6884 25.5792 23.7988 25.4398 23.9381C25.3005 24.0774 25.1899 24.2428 25.1144 24.4248C25.0389 24.6068 25.0001 24.802 25 24.999C24.9999 25.196 25.0387 25.3912 25.114 25.5733C25.1894 25.7553 25.2998 25.9208 25.4391 26.0602C25.5784 26.1995 25.7438 26.3101 25.9258 26.3856Z" fill="white"/>
</svg>
