<svg xmlns="http://www.w3.org/2000/svg" width="20" height="24" viewBox="0 0 20 24" fill="none">
  <path d="M16.0004 2.568V0H12.4004V2.4H7.60039V0H4.00039V2.568C1.93639 3.108 0.400391 4.968 0.400391 7.2V21.6C0.400391 22.92 1.48039 24 2.80039 24H17.2004C18.5204 24 19.6004 22.92 19.6004 21.6V7.2C19.6004 4.968 18.0644 3.108 16.0004 2.568ZM17.2004 21.6H2.80039V7.2C2.80039 5.88 3.88039 4.8 5.20039 4.8H14.8004C16.1204 4.8 17.2004 5.88 17.2004 7.2V21.6ZM15.4004 12V16.8H13.0004V14.4H4.60039V12H15.4004Z" fill="#0047BB"/>
</svg>