<svg width="80" height="80" viewBox="0 0 80 80" fill="none" xmlns="http://www.w3.org/2000/svg">
<path d="M23.3333 40C10 40 10 45.9667 10 53.3333V56.6667C10 65.8667 10 73.3333 26.6667 73.3333H53.3333C66.6667 73.3333 70 65.8667 70 56.6667V53.3333C70 45.9667 70 40 56.6667 40C53.3333 40 52.4 40.7 50.6667 42L47.2667 45.6C43.3333 49.8 36.6667 49.8 32.7 45.6L29.3333 42C27.6 40.7 26.6667 40 23.3333 40Z" stroke="#626B93" stroke-width="4" stroke-miterlimit="10" stroke-linecap="round" stroke-linejoin="round"/>
<path d="M63.3337 39.9998V19.9998C63.3337 12.6332 63.3337 6.6665 50.0003 6.6665H30.0003C16.667 6.6665 16.667 12.6332 16.667 19.9998V39.9998" stroke="#626B93" stroke-width="4" stroke-miterlimit="10" stroke-linecap="round" stroke-linejoin="round"/>
</svg>
