<svg width="136" height="24" viewBox="0 0 136 24" fill="none" xmlns="http://www.w3.org/2000/svg">
<path d="M68.135 9.29855V7.41406L61.6227 7.41406V9.29855L68.135 9.29855Z" fill="black"/>
<path d="M81.0649 9.28341V7.39893L73.0735 7.39893V9.28341L81.0649 9.28341Z" fill="black"/>
<path d="M76.1198 16.9102H78.0183V7.42199H76.1198V16.9102Z" fill="black"/>
<path d="M45.3237 16.9102H47.2222V7.42199H45.3237V16.9102Z" fill="black"/>
<path d="M45.3186 7.39893H47.2171L51.4115 13.9727H49.4688L45.5173 8.71368L45.3186 7.39893Z" fill="black"/>
<path d="M101.782 9.29513V7.41064L84.8276 7.41064V9.29513L101.782 9.29513Z" fill="black"/>
<path d="M68.135 13.0861V11.2017L61.7551 11.2017V13.0861L68.135 13.0861Z" fill="#D6D6E0"/>
<path d="M55.6943 7.39893H53.7958L51.4116 11.2117L52.4271 12.7456L55.4956 8.71368L55.6943 7.39893Z" fill="#D6D6E0"/>
<path d="M118.398 16.9111H120.296V7.42297H118.398V16.9111Z" fill="#D6D6E0"/>
<path d="M97.061 13.1008V11.2163L85.1402 11.2163V13.1008L97.061 13.1008Z" fill="#D6D6E0"/>
<path d="M101.778 16.8947V15.0103L84.8237 15.0103V16.8947L101.778 16.8947Z" fill="black"/>
<path d="M110 7.33301C107.241 7.33301 105.011 9.45853 105.011 12.0661C105.011 14.6737 107.241 16.7993 110 16.7993C112.76 16.7993 114.989 14.6737 114.989 12.0661C114.989 9.43661 112.76 7.33301 110 7.33301ZM110 15.0682C108.301 15.0682 106.932 13.7534 106.932 12.1538C106.932 10.5323 108.301 9.2394 110 9.2394C111.7 9.2394 113.069 10.5542 113.069 12.1538C113.069 13.7753 111.7 15.0682 110 15.0682Z" fill="black"/>
<path d="M53.8 16.9102H55.6985V7.42199H53.8V16.9102Z" fill="black"/>
<path d="M122.098 13.9509H118.411V12.0664H122.098C122.871 12.0664 123.489 11.4528 123.489 10.6859C123.489 9.91894 122.871 9.30539 122.098 9.30539H120.31V7.4209H122.098C123.908 7.4209 125.387 8.88905 125.387 10.6859C125.387 12.4827 123.908 13.9509 122.098 13.9509Z" fill="black"/>
<path d="M61.4494 16.8975H63.3479V11.2002H61.4494V16.8975Z" fill="black"/>
<path d="M124.857 14.1045C124.438 14.6085 123.82 14.9372 123.135 14.9591L124.195 16.9093H126.359L124.857 14.1045Z" fill="black"/>
<path d="M68.1309 16.8982V15.0137L61.6185 15.0137V16.8982H68.1309Z" fill="black"/>
<g clip-path="url(#clip0_1431_187623)">
<path d="M18.5492 21.7695H15.2812L25.7896 3.57903H29.0576L18.5492 21.7695Z" fill="url(#paint0_linear_1431_187623)"/>
<path d="M10.264 24H6.99609L18.8495 3.48118H22.1175L10.264 24Z" fill="url(#paint1_linear_1431_187623)"/>
<path d="M7.69763 16.332H4.42969L13.8592 0.00911676H17.1271L7.69763 16.332Z" fill="url(#paint2_linear_1431_187623)"/>
<path d="M27.7573 16.332H25.4277L26.7728 14.0037H29.1023L27.7573 16.332Z" fill="#0026E6"/>
</g>
<defs>
<linearGradient id="paint0_linear_1431_187623" x1="26.6304" y1="4.95641" x2="26.6304" y2="20.622" gradientUnits="userSpaceOnUse">
<stop offset="0.2681" stop-color="#0026E6" stop-opacity="0"/>
<stop offset="0.2742" stop-color="#0026E6" stop-opacity="0.01"/>
<stop offset="1" stop-color="#0026E6"/>
</linearGradient>
<linearGradient id="paint1_linear_1431_187623" x1="9.01115" y1="23.3389" x2="9.01115" y2="4.93014" gradientUnits="userSpaceOnUse">
<stop offset="0.1998" stop-color="#0026E6" stop-opacity="0"/>
<stop offset="1" stop-color="#0026E6"/>
</linearGradient>
<linearGradient id="paint2_linear_1431_187623" x1="15.4915" y1="0.00510245" x2="15.4915" y2="15.1193" gradientUnits="userSpaceOnUse">
<stop offset="0.3416" stop-color="#0026E6" stop-opacity="0"/>
<stop offset="1" stop-color="#0026E6"/>
</linearGradient>
<clipPath id="clip0_1431_187623">
<rect width="23.3365" height="27.7156" fill="white" transform="matrix(1 0 0.500218 -0.8659 0 24)"/>
</clipPath>
</defs>
</svg>
