<svg width="157" height="36" viewBox="0 0 157 36" fill="none" xmlns="http://www.w3.org/2000/svg">
<path d="M79.1875 15.2986V13.4141L71.8169 13.4141V15.2986L79.1875 15.2986Z" fill="white"/>
<path d="M93.8281 15.283V13.3984L84.7835 13.3984V15.283L93.8281 15.283Z" fill="white"/>
<path d="M88.2263 22.9102H90.375V13.4216H88.2263V22.9102Z" fill="white"/>
<path d="M53.3747 22.9102H55.5234V13.4216H53.3747V22.9102Z" fill="white"/>
<path d="M53.3672 13.3984H55.5159L60.2631 19.9725H58.0644L53.5921 14.7133L53.3672 13.3984Z" fill="white"/>
<path d="M117.273 15.2947V13.4102L98.0849 13.4102V15.2947L117.273 15.2947Z" fill="white"/>
<path d="M79.1953 19.0838V17.1992H71.9746V19.0838H79.1953Z" fill="#D6D6E0"/>
<path d="M65.1127 13.3984H62.964L60.2656 17.2114L61.4149 18.7453L64.8879 14.7133L65.1127 13.3984Z" fill="#D6D6E0"/>
<path d="M136.078 22.9102H138.227V13.4216H136.078V22.9102Z" fill="#D6D6E0"/>
<path d="M111.93 19.0994V17.2148L98.4377 17.2148V19.0994L111.93 19.0994Z" fill="#D6D6E0"/>
<path d="M117.266 22.8963V21.0117L98.0771 21.0117V22.8963L117.266 22.8963Z" fill="white"/>
<path d="M126.576 13.332C123.453 13.332 120.93 15.4576 120.93 18.0654C120.93 20.6731 123.453 22.7987 126.576 22.7987C129.699 22.7987 132.223 20.6731 132.223 18.0654C132.223 15.4357 129.699 13.332 126.576 13.332ZM126.576 21.0675C124.652 21.0675 123.103 19.7527 123.103 18.153C123.103 16.5314 124.652 15.2385 126.576 15.2385C128.5 15.2385 130.049 16.5533 130.049 18.153C130.049 19.7746 128.5 21.0675 126.576 21.0675Z" fill="white"/>
<path d="M62.9685 22.9102H65.1172V13.4216H62.9685V22.9102Z" fill="white"/>
<path d="M140.266 19.9482H136.094V18.0637H140.266C141.141 18.0637 141.84 17.4501 141.84 16.6831C141.84 15.9161 141.141 15.3025 140.266 15.3025H138.242V13.418H140.266C142.315 13.418 143.989 14.8862 143.989 16.6831C143.989 18.48 142.315 19.9482 140.266 19.9482Z" fill="white"/>
<path d="M71.6247 22.8984H73.7734V17.2009H71.6247V22.8984Z" fill="white"/>
<path d="M143.386 20.1016C142.912 20.6056 142.212 20.9343 141.438 20.9562L142.637 22.9065H145.085L143.386 20.1016Z" fill="white"/>
<path d="M79.1875 22.8963V21.0117H71.8169V22.8963H79.1875Z" fill="white"/>
<g clip-path="url(#clip0_5899_216504)">
<path d="M31.4933 32.6562H25.9453L43.7853 5.36931H49.3332L31.4933 32.6562Z" fill="url(#paint0_linear_5899_216504)"/>
<path d="M17.4308 36H11.8828L32.0063 5.22043H37.5542L17.4308 36Z" fill="url(#paint1_linear_5899_216504)"/>
<path d="M13.0636 24.5H7.51562L23.524 0.0145678H29.0719L13.0636 24.5Z" fill="url(#paint2_linear_5899_216504)" fill-opacity="0.6"/>
<path d="M47.1267 24.5H43.1719L45.4553 21.0074H49.4102L47.1267 24.5Z" fill="white"/>
</g>
<defs>
<linearGradient id="paint0_linear_5899_216504" x1="45.2126" y1="7.43548" x2="45.2126" y2="30.9348" gradientUnits="userSpaceOnUse">
<stop offset="0.2681" stop-color="white" stop-opacity="0"/>
<stop offset="0.2742" stop-color="white" stop-opacity="0.01"/>
<stop offset="1" stop-color="white"/>
</linearGradient>
<linearGradient id="paint1_linear_5899_216504" x1="15.3038" y1="35.0084" x2="15.3038" y2="7.39396" gradientUnits="userSpaceOnUse">
<stop offset="0.1998" stop-color="white" stop-opacity="0"/>
<stop offset="1" stop-color="white"/>
</linearGradient>
<linearGradient id="paint2_linear_5899_216504" x1="26.2951" y1="0.0085461" x2="26.2951" y2="22.6808" gradientUnits="userSpaceOnUse">
<stop offset="0.3416" stop-color="white" stop-opacity="0"/>
<stop offset="1" stop-color="white"/>
</linearGradient>
<clipPath id="clip0_5899_216504">
<rect width="39.6182" height="43.0112" fill="white" transform="matrix(1 0 0.547218 -0.83699 0 36)"/>
</clipPath>
</defs>
</svg>
