<svg width="143" height="32" viewBox="0 0 143 32" fill="none" xmlns="http://www.w3.org/2000/svg">
<g id="Group">
<path id="Vector" fill-rule="evenodd" clip-rule="evenodd" d="M5.65047 21.2837L18.4595 0H12.8091L0 21.2837H5.65047Z" fill="white"/>
<path id="Vector_2" fill-rule="evenodd" clip-rule="evenodd" d="M24.1218 0L4.86328 31.9998H10.5139L29.7722 0H24.1218Z" fill="white"/>
<path id="Vector_3" fill-rule="evenodd" clip-rule="evenodd" d="M35.3599 0L16.1016 31.9998H21.752L41.0105 0H35.3599Z" fill="white"/>
<path id="Vector_4" fill-rule="evenodd" clip-rule="evenodd" d="M37.0505 16L33.8594 21.3026H39.5098L42.7011 16H37.0505Z" fill="white"/>
<path id="Vector_5" d="M83.2891 21.3235H85.5341V10.6758H83.2891V21.3235Z" fill="white"/>
<path id="Vector_6" d="M89.2094 12.7499V10.6758H79.582V12.7499H89.2094Z" fill="white"/>
<path id="Vector_7" d="M113.731 12.7499V10.6758H93.3984V12.7499H113.731Z" fill="white"/>
<path id="Vector_8" d="M113.731 19.25H93.3984V21.3241H113.731V19.25Z" fill="white"/>
<path id="Vector_9" d="M108.112 17.0506V14.9766H93.3984V17.0506H108.112Z" fill="#00FFAA"/>
<path id="Vector_10" d="M67.3359 21.3235H69.5808V10.6758H67.3359V21.3235Z" fill="white"/>
<path id="Vector_11" d="M75.3525 10.6758H67.3359V12.7499H75.3525V10.6758Z" fill="white"/>
<path id="Vector_12" d="M75.3525 17.0506V14.9766H67.3359V17.0506H75.3525Z" fill="#00FFAA"/>
<path id="Vector_13" d="M75.3525 19.25H67.3359V21.3241H75.3525V19.25Z" fill="white"/>
<path id="Vector_14" d="M123.631 19.202C121.713 19.202 120.157 17.7651 120.157 15.9928C120.157 14.2206 121.713 12.7838 123.631 12.7838C125.549 12.7838 127.105 14.2206 127.105 15.9928C127.105 17.7651 125.549 19.202 123.631 19.202ZM123.631 10.7363C120.489 10.7363 117.941 13.0898 117.941 15.9928C117.941 18.8959 120.489 21.2494 123.631 21.2494C126.773 21.2494 129.321 18.8959 129.321 15.9928C129.321 13.0898 126.773 10.7363 123.631 10.7363Z" fill="white"/>
<path id="Vector_15" d="M133.531 21.3235H135.776V10.6758H133.531V21.3235Z" fill="#00FFAA"/>
<path id="Vector_16" d="M137.916 10.6758H135.778V12.8759H137.916C138.839 12.8759 139.587 13.5669 139.587 14.4195C139.587 15.272 138.839 15.9631 137.916 15.9631H133.531V18.1631H137.916C140.154 18.1631 141.969 16.487 141.969 14.4195C141.969 12.352 140.154 10.6758 137.916 10.6758Z" fill="white"/>
<path id="Vector_17" d="M143.001 21.2483L141.093 18.4395C140.599 18.8098 140.009 19.0753 139.363 19.1985L140.756 21.2483H143.001Z" fill="white"/>
<path id="Vector_18" d="M53.0965 21.3235H50.8516V10.6758H53.0965V21.3235Z" fill="white"/>
<path id="Vector_19" d="M58.1014 18.0487H58.0978L58.0997 18.046L58.1014 18.0487ZM54.4283 15.9464L50.8477 10.6758H53.0929L55.5436 14.2834L54.4283 15.9464Z" fill="white"/>
<path id="Vector_20" d="M60.8633 21.3235H63.1083V10.6758H60.8633V21.3235Z" fill="white"/>
<path id="Vector_21" d="M55.8516 18.0487H58.0965L63.1053 10.6758H60.8601L55.8516 18.0487Z" fill="#00FFAA"/>
</g>
</svg>
