<svg width="24" height="25" viewBox="0 0 24 25" fill="none" xmlns="http://www.w3.org/2000/svg">
<path d="M15.5799 12.5019C15.5799 14.4819 13.9799 16.0819 11.9999 16.0819C10.0199 16.0819 8.41992 14.4819 8.41992 12.5019C8.41992 10.5219 10.0199 8.92188 11.9999 8.92188C13.9799 8.92188 15.5799 10.5219 15.5799 12.5019Z" stroke="#0026E6" stroke-width="2" stroke-linecap="round" stroke-linejoin="round"/>
<path d="M11.9998 20.7688C15.5298 20.7688 18.8198 18.6888 21.1098 15.0888C22.0098 13.6788 22.0098 11.3088 21.1098 9.89875C18.8198 6.29875 15.5298 4.21875 11.9998 4.21875C8.46984 4.21875 5.17984 6.29875 2.88984 9.89875C1.98984 11.3088 1.98984 13.6788 2.88984 15.0888C5.17984 18.6888 8.46984 20.7688 11.9998 20.7688Z" stroke="#0026E6" stroke-width="2" stroke-linecap="round" stroke-linejoin="round"/>
</svg>
