<svg width="24" height="24" viewBox="0 0 32 32" fill="none" xmlns="http://www.w3.org/2000/svg">
<path d="M19.3732 12.6267L12.6266 19.3733C11.7599 18.5067 11.2266 17.32 11.2266 16C11.2266 13.36 13.3599 11.2267 15.9999 11.2267C17.3199 11.2267 18.5066 11.76 19.3732 12.6267Z" stroke="#292D32" stroke-width="1.5" stroke-linecap="round" stroke-linejoin="round"/>
<path d="M23.76 7.69334C21.4267 5.93334 18.76 4.97334 16 4.97334C11.2934 4.97334 6.9067 7.74667 3.85337 12.5467C2.65337 14.4267 2.65337 17.5867 3.85337 19.4667C4.9067 21.12 6.13337 22.5467 7.4667 23.6933" stroke="#292D32" stroke-width="1.5" stroke-linecap="round" stroke-linejoin="round"/>
<path d="M11.2266 26.04C12.7466 26.68 14.3599 27.0267 15.9999 27.0267C20.7066 27.0267 25.0932 24.2533 28.1466 19.4533C29.3466 17.5733 29.3466 14.4133 28.1466 12.5333C27.7066 11.84 27.2266 11.1867 26.7332 10.5733" stroke="#292D32" stroke-width="1.5" stroke-linecap="round" stroke-linejoin="round"/>
<path d="M20.6799 16.9333C20.3333 18.8133 18.7999 20.3467 16.9199 20.6933" stroke="#292D32" stroke-width="1.5" stroke-linecap="round" stroke-linejoin="round"/>
<path d="M12.6267 19.3733L2.66675 29.3333" stroke="#292D32" stroke-width="1.5" stroke-linecap="round" stroke-linejoin="round"/>
<path d="M29.3333 2.66666L19.3733 12.6267" stroke="#292D32" stroke-width="1.5" stroke-linecap="round" stroke-linejoin="round"/>
</svg>
