<svg width="24" height="24" viewBox="0 0 32 32" fill="none" xmlns="http://www.w3.org/2000/svg">
<path d="M20.7732 16C20.7732 18.64 18.6399 20.7733 15.9999 20.7733C13.3599 20.7733 11.2266 18.64 11.2266 16C11.2266 13.36 13.3599 11.2267 15.9999 11.2267C18.6399 11.2267 20.7732 13.36 20.7732 16Z" stroke="#292D32" stroke-width="1.5" stroke-linecap="round" stroke-linejoin="round"/>
<path d="M16 27.0267C20.7067 27.0267 25.0934 24.2533 28.1467 19.4533C29.3467 17.5733 29.3467 14.4133 28.1467 12.5333C25.0934 7.73333 20.7067 4.96 16 4.96C11.2934 4.96 6.9067 7.73333 3.85337 12.5333C2.65337 14.4133 2.65337 17.5733 3.85337 19.4533C6.9067 24.2533 11.2934 27.0267 16 27.0267Z" stroke="#292D32" stroke-width="1.5" stroke-linecap="round" stroke-linejoin="round"/>
</svg>
