<svg width="24" height="24" viewBox="0 0 24 24" fill="none" xmlns="http://www.w3.org/2000/svg">
<path d="M13.25 6.91875V10.3625H16.5C16.75 10.3625 16.875 10.6 16.875 10.8375L16.375 13.0938C16.375 13.2125 16.125 13.3313 16 13.3313H13.25V22H9.5V13.45H7.375C7.125 13.45 7 13.3313 7 13.0938V10.8375C7 10.6 7.125 10.4813 7.375 10.4813H9.5V6.5625C9.5 4.54375 11.125 3 13.25 3H16.625C16.875 3 17 3.11875 17 3.35625V6.20625C17 6.44375 16.875 6.5625 16.625 6.5625H13.625C13.375 6.5625 13.25 6.68125 13.25 6.91875Z" fill="#626B93"/>
</svg>
