<svg xmlns="http://www.w3.org/2000/svg" width="20" height="20" viewBox="0 0 20 20" fill="none">
  <path d="M7.08366 15.8332H6.66699C3.33366 15.8332 1.66699 14.9998 1.66699 10.8332V6.6665C1.66699 3.33317 3.33366 1.6665 6.66699 1.6665H13.3337C16.667 1.6665 18.3337 3.33317 18.3337 6.6665V10.8332C18.3337 14.1665 16.667 15.8332 13.3337 15.8332H12.917C12.6587 15.8332 12.4087 15.9582 12.2503 16.1665L11.0003 17.8332C10.4503 18.5665 9.55033 18.5665 9.00033 17.8332L7.75033 16.1665C7.61699 15.9832 7.30866 15.8332 7.08366 15.8332Z" stroke="#221C35" stroke-width="1.5" stroke-miterlimit="10" stroke-linecap="round" stroke-linejoin="round"/>
  <path d="M13.3301 9.16667H13.3375" stroke="#221C35" stroke-width="2" stroke-linecap="round" stroke-linejoin="round"/>
  <path d="M9.99607 9.16667H10.0036" stroke="#221C35" stroke-width="2" stroke-linecap="round" stroke-linejoin="round"/>
  <path d="M6.66209 9.16667H6.66957" stroke="#221C35" stroke-width="2" stroke-linecap="round" stroke-linejoin="round"/>
</svg>