<svg width="25" height="25" viewBox="0 0 25 25" fill="none" xmlns="http://www.w3.org/2000/svg">
<path d="M19 13.1484V16.8484C19 19.9684 16.09 22.4984 12.5 22.4984C8.91 22.4984 6 19.9684 6 16.8484V13.1484C6 16.2684 8.91 18.4984 12.5 18.4984C16.09 18.4984 19 16.2684 19 13.1484Z" stroke="white" stroke-width="1.5" stroke-linecap="round" stroke-linejoin="round"/>
<path d="M19 8.15C19 9.06 18.75 9.9 18.31 10.62C17.24 12.38 15.04 13.5 12.5 13.5C9.96 13.5 7.76 12.38 6.69 10.62C6.25 9.9 6 9.06 6 8.15C6 6.59 6.72999 5.18 7.89999 4.16C9.07999 3.13 10.7 2.5 12.5 2.5C14.3 2.5 15.92 3.13 17.1 4.15C18.27 5.18 19 6.59 19 8.15Z" stroke="white" stroke-width="1.5" stroke-linecap="round" stroke-linejoin="round"/>
<path d="M19 8.15V13.15C19 16.27 16.09 18.5 12.5 18.5C8.91 18.5 6 16.27 6 13.15V8.15C6 5.03 8.91 2.5 12.5 2.5C14.3 2.5 15.92 3.13 17.1 4.15C18.27 5.18 19 6.59 19 8.15Z" stroke="white" stroke-width="1.5" stroke-linecap="round" stroke-linejoin="round"/>
</svg>
