<svg xmlns="http://www.w3.org/2000/svg" width="20" height="20" viewBox="0 0 20 20" fill="none">
  <path d="M12.964 12.4218L12.5849 12.7993C12.5849 12.7993 11.6824 13.696 9.21988 11.2476C6.75738 8.79931 7.65988 7.90265 7.65988 7.90265L7.89821 7.66431C8.48738 7.07931 8.54321 6.13931 8.02905 5.45265L6.97905 4.05015C6.34238 3.20015 5.11321 3.08765 4.38405 3.81265L3.07571 5.11265C2.71488 5.47265 2.47321 5.93765 2.50238 6.45431C2.57738 7.77681 3.17571 10.621 6.51238 13.9393C10.0515 17.4576 13.3724 17.5976 14.7299 17.471C15.1599 17.431 15.5332 17.2126 15.834 16.9126L17.0174 15.736C17.8174 14.9418 17.5924 13.5793 16.569 13.0235L14.9774 12.1576C14.3057 11.7935 13.489 11.9001 12.964 12.4218Z" fill="#999999"/>
</svg>