<svg xmlns="http://www.w3.org/2000/svg" width="24" height="24" viewBox="0 0 24 24" fill="none">
  <g clip-path="url(#clip0_11531_27319)">
    <path d="M18 16.081C17.24 16.081 16.56 16.381 16.04 16.851L8.91 12.701C8.96 12.471 9 12.241 9 12.001C9 11.761 8.96 11.531 8.91 11.301L15.96 7.19098C16.5 7.69098 17.21 8.00098 18 8.00098C19.66 8.00098 21 6.66098 21 5.00098C21 3.34098 19.66 2.00098 18 2.00098C16.34 2.00098 15 3.34098 15 5.00098C15 5.24098 15.04 5.47098 15.09 5.70098L8.04 9.81098C7.5 9.31098 6.79 9.00098 6 9.00098C4.34 9.00098 3 10.341 3 12.001C3 13.661 4.34 15.001 6 15.001C6.79 15.001 7.5 14.691 8.04 14.191L15.16 18.351C15.11 18.561 15.08 18.781 15.08 19.001C15.08 20.611 16.39 21.921 18 21.921C19.61 21.921 20.92 20.611 20.92 19.001C20.92 17.391 19.61 16.081 18 16.081ZM18 4.00098C18.55 4.00098 19 4.45098 19 5.00098C19 5.55098 18.55 6.00098 18 6.00098C17.45 6.00098 17 5.55098 17 5.00098C17 4.45098 17.45 4.00098 18 4.00098ZM6 13.001C5.45 13.001 5 12.551 5 12.001C5 11.451 5.45 11.001 6 11.001C6.55 11.001 7 11.451 7 12.001C7 12.551 6.55 13.001 6 13.001ZM18 20.021C17.45 20.021 17 19.571 17 19.021C17 18.471 17.45 18.021 18 18.021C18.55 18.021 19 18.471 19 19.021C19 19.571 18.55 20.021 18 20.021Z" fill="#0047BB"/>
  </g>
  <defs>
    <clipPath id="clip0_11531_27319">
      <rect width="24" height="24" fill="white"/>
    </clipPath>
  </defs>
</svg>