<svg width="64" height="64" viewBox="0 0 64 64" fill="none" xmlns="http://www.w3.org/2000/svg">
<rect width="64" height="64" rx="8" fill="#D6DDFF"/>
<path d="M48.5 37.9531C48.5 43.7581 43.805 48.4531 38 48.4531L39.575 45.8281" stroke="#0026E6" stroke-width="1.5" stroke-linecap="round" stroke-linejoin="round"/>
<path d="M15.5 25.9531C15.5 20.1481 20.195 15.4531 26 15.4531L24.425 18.0781" stroke="#0026E6" stroke-width="1.5" stroke-linecap="round" stroke-linejoin="round"/>
<path d="M36.2756 36.9933C36.2756 42.1083 32.1356 46.2483 27.0206 46.2483C21.9056 46.2483 17.7656 42.1083 17.7656 36.9933C17.7656 31.8783 21.9056 27.7383 27.0206 27.7383C27.2606 27.7383 27.4856 27.7533 27.7406 27.7683C32.2856 28.1133 35.9156 31.7433 36.2606 36.2883C36.2606 36.5133 36.2756 36.7383 36.2756 36.9933Z" fill="#0026E6" stroke="#0026E6" stroke-width="1.5" stroke-miterlimit="10" stroke-linecap="round" stroke-linejoin="round"/>
<path d="M46.2522 27.005C46.2522 32.12 42.1122 36.26 36.9972 36.26H36.2622C35.9172 31.715 32.2872 28.085 27.7422 27.74V27.005C27.7422 21.89 31.8822 17.75 36.9972 17.75C42.1122 17.75 46.2522 21.89 46.2522 27.005Z" fill="#0026E6" stroke="#0026E6" stroke-width="1.5" stroke-miterlimit="10" stroke-linecap="round" stroke-linejoin="round"/>
<path d="M23.9316 33.6055H28.1466C29.0766 33.6055 29.8416 34.4455 29.8416 35.3005C29.8416 36.2305 29.0916 36.9955 28.1466 36.9955H23.9316V33.6055Z" stroke="white" stroke-width="1.5" stroke-miterlimit="10" stroke-linecap="round" stroke-linejoin="round"/>
<path d="M23.9316 36.9961H28.7616C29.8266 36.9961 30.6966 37.7461 30.6966 38.6911C30.6966 39.6211 29.8266 40.3861 28.7616 40.3861H23.9316V36.9961Z" stroke="white" stroke-width="1.5" stroke-miterlimit="10" stroke-linecap="round" stroke-linejoin="round"/>
<path d="M26.6309 40.3711V42.0511" stroke="white" stroke-width="1.5" stroke-miterlimit="10" stroke-linecap="round" stroke-linejoin="round"/>
<path d="M26.6309 31.9258V33.6058" stroke="white" stroke-width="1.5" stroke-miterlimit="10" stroke-linecap="round" stroke-linejoin="round"/>
</svg>
