<svg width="28" height="28" viewBox="0 0 28 28" fill="none" xmlns="http://www.w3.org/2000/svg">
<g opacity="0.4">
<path d="M7 20.4817L8.00447 16.7468C7.19439 15.2919 6.93702 13.5942 7.27959 11.9651C7.62215 10.336 8.54168 8.88492 9.86942 7.87806C11.1972 6.87121 12.8441 6.37614 14.5079 6.4837C16.1718 6.59126 17.741 7.29424 18.9276 8.46364C20.1142 9.63303 20.8386 11.1904 20.9678 12.85C21.0971 14.5096 20.6226 16.16 19.6313 17.4985C18.64 18.8369 17.1986 19.7736 15.5713 20.1367C13.9441 20.4997 12.2404 20.2648 10.7727 19.4749L7 20.4817ZM10.9546 18.0773L11.1879 18.2155C12.251 18.8446 13.4927 19.1049 14.7194 18.9559C15.9461 18.8069 17.0891 18.257 17.9701 17.3918C18.851 16.5266 19.4206 15.3947 19.59 14.1727C19.7594 12.9506 19.5191 11.7068 18.9065 10.6353C18.294 9.56382 17.3436 8.72469 16.2035 8.24873C15.0633 7.77276 13.7975 7.68668 12.6033 8.00391C11.409 8.32114 10.3535 9.02386 9.60104 10.0026C8.8486 10.9812 8.44159 12.1809 8.44343 13.4147C8.44243 14.4377 8.72581 15.4408 9.26203 16.3125L9.40835 16.5534L8.8468 18.6379L10.9546 18.0773Z" fill="#000E54"/>
<path fill-rule="evenodd" clip-rule="evenodd" d="M16.6173 14.3735C16.4805 14.2634 16.3203 14.1859 16.149 14.1469C15.9777 14.1079 15.7997 14.1084 15.6286 14.1485C15.3716 14.2551 15.2055 14.6578 15.0394 14.8591C15.0044 14.9074 14.9529 14.9412 14.8947 14.9543C14.8364 14.9674 14.7754 14.9588 14.723 14.9302C13.782 14.5622 12.9932 13.8874 12.4847 13.0154C12.4414 12.961 12.4208 12.8919 12.4275 12.8227C12.4341 12.7534 12.4674 12.6895 12.5203 12.6443C12.7056 12.4612 12.8416 12.2344 12.9158 11.9849C12.9323 11.7098 12.8691 11.4357 12.7339 11.1953C12.6293 10.8584 12.4303 10.5584 12.1604 10.3307C12.0212 10.2682 11.8669 10.2473 11.716 10.2704C11.5652 10.2935 11.4242 10.3597 11.3102 10.461C11.1123 10.6315 10.9552 10.8441 10.8504 11.0833C10.7457 11.3224 10.6961 11.582 10.7052 11.8428C10.7058 11.9893 10.7244 12.1351 10.7605 12.2771C10.8523 12.6182 10.9936 12.944 11.1797 13.2444C11.314 13.4744 11.4605 13.6972 11.6187 13.9116C12.1326 14.6159 12.7786 15.2139 13.5208 15.6724C13.8933 15.9054 14.2914 16.0948 14.7072 16.237C15.1392 16.4325 15.6161 16.5075 16.0874 16.4541C16.3559 16.4136 16.6103 16.3077 16.8282 16.1459C17.0461 15.9842 17.2208 15.7714 17.337 15.5263C17.4053 15.3783 17.426 15.2128 17.3963 15.0526C17.3252 14.7249 16.8862 14.5314 16.6173 14.3735Z" fill="#000E54"/>
</g>
</svg>
