<svg width="192" height="271" viewBox="0 0 192 271" fill="none" xmlns="http://www.w3.org/2000/svg">
<path d="M56.4652 211.28C55.3032 210.719 53.5421 210.009 51.2998 209.62C46.7699 208.833 43.2521 209.869 42.3852 210.14C41.146 210.529 38.8947 211.384 36.5843 213.208C34.6688 214.723 33.5387 216.248 32.8896 217.135C32.177 218.112 31.4416 219.139 30.8515 220.677C30.5338 221.51 30.3614 222.256 30.0209 223.754C29.9165 224.215 29.6987 225.183 29.3719 227.088C28.8771 229.956 28.9951 229.893 28.7545 231.001C28.4595 232.359 28.2098 232.766 27.0796 235.729C25.5273 239.796 25.8632 239.371 25.205 240.819C24.4788 242.416 23.5982 244.348 21.9279 246.325C19.79 248.845 17.6113 249.953 17.8609 250.41C17.9154 250.51 18.1333 250.677 19.7945 250.256C22.4907 249.573 24.388 248.492 24.7647 248.284C27.9511 246.506 31.0513 246.035 32.1543 245.868C34.5055 245.51 34.4601 245.981 39.7253 245.868C41.1415 245.836 42.6257 245.746 45.5988 245.56C49.929 245.289 52.1168 245.149 53.2969 244.9C55.0354 244.529 57.6589 243.945 60.4913 242.099C61.626 241.362 64.0362 239.751 65.8655 236.67C66.5554 235.507 67.7537 233.44 67.9216 230.472C68.0987 227.414 67.091 225.075 66.5372 223.998" fill="#F35A25"/>
<path d="M62.1572 192.433C62.9379 191.188 64.0999 189.288 65.4208 186.913C67.4089 183.339 68.6616 180.652 69.1291 179.674C71.5711 174.58 75.1705 169.033 78.0891 165.351C81.2937 161.306 85.4287 158.035 93.6942 151.489C99.4769 146.91 102.373 144.621 106.208 142.092C116.289 135.459 124.973 131.976 130.161 129.926C139.03 126.42 143.982 124.465 151.485 123.61C152.375 123.511 158.361 123.746 170.335 124.226C170.335 124.226 179.981 124.61 185.323 128.383C185.732 128.673 186.263 129.089 186.712 129.768C188.233 132.048 187.293 134.871 186.558 138.237C185.391 143.58 186.367 142.906 185.323 147.48C184.937 149.172 184.07 152.543 179.917 160.573C176.826 166.545 173.681 172.621 168.021 179.824C164.988 183.683 162.447 186.32 159.215 189.682C156.06 192.957 152.547 196.608 147.472 200.771C143.755 203.82 140.619 205.933 134.337 210.168C130.492 212.76 125.812 215.809 123.674 217.099C118.731 220.08 108.709 224.907 90.4534 226.957C89.591 227.065 88.2792 227.129 86.745 226.803C86.5045 226.753 85.7011 226.572 84.4256 226.034C83.3045 225.559 81.7113 224.763 79.9456 223.414C79.1422 222.582 78.0029 221.379 76.7002 219.872C73.8315 216.556 69.0247 210.928 65.4208 202.775C64.6219 200.97 64.0636 199.45 63.7232 198.463" fill="white"/>
<path d="M57.5411 212.733C56.9919 212.249 56.1431 211.624 54.9902 211.172C52.2986 210.118 49.0849 210.475 46.6793 212.036C43.7017 213.968 42.8529 217.167 42.3037 219.225C41.7953 221.134 42.1221 221.428 41.5638 224.31C41.473 224.781 40.8375 227.989 39.6846 230.689C38.8858 232.558 36.9839 236.195 32.4495 239.702C33.6841 238.643 37.7828 235.313 42.8801 234.503C44.5868 234.232 47.1649 234.119 49.8929 234.445C51.1456 234.594 50.9096 234.653 52.0943 234.793C54.6725 235.092 57.8951 235.463 60.7275 233.752C61.7987 233.105 62.4478 232.382 62.8699 231.902C63.637 231.033 66.1561 228.188 65.3028 225.143C65.1576 224.618 64.7082 223.36 63.1604 222.198" fill="#FFD553"/>
<path d="M26.9437 238.435C36.4347 238.457 43.3295 238.607 48.2679 238.896C49.1077 238.946 51.2909 239.082 54.0642 238.512C56.1794 238.077 59.9377 237.299 62.4069 234.585C65.852 230.798 64.8217 225.419 65.9564 225.373C66.719 225.342 67.5587 227.753 67.7357 229.735C68.0534 233.286 66.2832 236.001 65.4934 237.204C63.5417 240.19 61.0362 241.674 59.6972 242.439C56.8194 244.095 54.3003 244.551 51.3545 245.058C47.6642 245.692 47.6325 245.217 40.1522 245.75C33.6796 246.212 35.2591 246.456 30.1074 246.827C30.1074 246.827 27.5156 247.013 24.6197 247.827C23.4895 248.144 22.6906 248.374 21.7601 248.981C21.1655 249.37 20.8705 249.682 20.757 249.596C20.4801 249.388 21.8055 247.126 22.7678 245.669C24.075 243.683 25.1281 243.38 25.936 241.588C26.2946 240.787 26.4671 240.072 26.5533 239.584" fill="#B93F2F"/>
<path d="M58.7257 211.086C58.3671 211.258 58.0131 211.43 57.6545 211.597C56.9918 211.235 56.0477 210.769 54.8721 210.367C53.6556 209.946 47.4008 207.937 40.8102 210.982C35.5495 213.412 33.0666 217.682 32.1588 219.298C30.3342 222.537 31.0786 223.591 28.9135 231.463C27.8105 235.467 27.0343 238.29 25.6681 241.168C24.2065 244.244 21.4196 248.75 15.7776 253.179" stroke="#000A3D" stroke-width="4" stroke-miterlimit="10"/>
<path d="M66.6145 222.976C66.383 223.256 66.1515 223.537 65.9245 223.817C66.2241 224.45 66.5963 225.342 66.8732 226.423C67.1592 227.545 68.4845 233.277 64.3404 238.476C61.036 242.62 56.1294 244.067 54.2729 244.588C50.5555 245.633 49.5251 244.814 40.8011 245.398C36.362 245.692 33.2346 245.9 29.9711 246.61C26.476 247.37 21.2789 249.035 15.7776 253.184" stroke="#000A3D" stroke-width="4" stroke-miterlimit="10"/>
<path d="M62.9469 195.541C61.7713 195.717 60.9633 196.142 60.4731 196.463C59.6243 197.024 59.1341 197.712 58.1537 199.083C57.4184 200.114 57.0507 200.63 56.7648 201.395C56.6467 201.707 56.4289 202.354 56.3018 204.168C56.1656 206.055 56.0975 207 56.3018 208.172C56.5378 209.552 56.9962 210.479 57.845 212.176C58.6757 213.832 59.4428 215.013 60.0102 215.872C62.7653 220.071 64.1406 222.165 65.575 223.88C67.1454 225.762 68.0896 226.875 69.7463 228.038C70.8992 228.848 72.3608 229.852 74.535 230.196C75.3202 230.318 77.0178 230.59 78.8606 229.888C78.8606 229.888 79.7548 229.549 83.032 226.961C82.6189 225.699 82.0561 224.862 81.643 224.342C80.7035 223.17 79.9273 222.907 78.2433 221.414C77.5579 220.808 77.1177 220.342 76.2326 219.41C72.3517 215.316 67.8853 208.299 66.1877 204.471C66.0697 204.209 65.5523 203.024 64.7988 201.39C64.2768 200.264 63.8411 199.35 63.5642 198.771" fill="#00AAFF"/>
<path d="M63.6278 198.088C62.2933 198.685 60.6048 199.685 59.2658 201.409C56.9782 204.35 56.8919 207.851 56.379 207.788C56.0068 207.743 55.916 205.897 55.975 204.698C56.0295 203.553 56.1566 201.527 57.5274 199.414C58.3308 198.179 59.6607 195.858 61.5807 195.903C62.1844 195.917 62.6837 196.161 63.0196 196.378" fill="#99DDFF"/>
<path d="M81.1757 224.292C80.395 225.102 79.2193 226.134 77.5853 226.998C74.989 228.373 72.5561 228.627 71.1853 228.658C71.5393 228.984 72.1113 229.437 72.9147 229.78C73.8679 230.192 74.6849 230.255 75.402 230.305C75.9876 230.346 76.9226 230.4 78.0573 230.133C79.5779 229.771 80.6083 229.025 81.911 228.079C82.6327 227.554 83.1955 227.075 83.5768 226.727" fill="#99DDFF"/>
<path d="M121.972 176.638C121.664 177.561 120.701 180.801 122.363 183.601C123.756 185.949 126.203 186.659 129.198 187.528C130.969 188.044 134.94 189.143 139.974 188.107C141.363 187.822 146.792 186.7 150.636 182.447C155.302 177.285 156.165 169.128 153.187 161.541" fill="#B9AFBE"/>
<path d="M107.733 143.028C108.451 143.313 109.54 143.784 110.784 144.499C112.803 145.661 113.698 146.584 114.56 147.181C117.778 149.407 122.349 148.317 123.715 147.991C129.512 146.607 132.889 141.974 132.639 141.639C132.489 141.436 130.964 142.779 127.655 143.951C125.517 144.707 123.634 145.376 121.164 145.222C120.47 145.177 114.787 144.761 113.167 141.409C112.763 140.572 112.622 139.576 111.905 139.386C111.169 139.192 110.316 139.988 109.717 140.68" fill="#B9AFBE"/>
<path d="M139.906 126.402C141.594 125.868 143.746 125.267 146.265 124.737C150.532 123.841 153.9 123.561 155.279 123.466C156.714 123.366 161.629 123.077 168.016 123.873C168.492 123.932 173.612 124.588 179.087 126.171C184.084 127.619 184.293 128.37 185.9 128.501C186.058 128.515 186.558 128.551 186.912 128.908C187.643 129.655 187.134 131.216 186.93 131.935C186.244 134.36 187.075 134.016 186.494 138.939C186.335 140.273 185.959 142.947 184.479 148.254C183.208 152.823 181.973 157.339 179.49 162.709C176.549 169.07 175.955 167.844 174.706 170.509C174.511 170.929 173.917 172.25 172.618 172.762C172.287 172.893 171.992 172.934 171.815 172.952C171.57 171.947 171.107 170.264 170.263 168.274C168.824 164.894 167.458 163.401 165.011 159.031C163.563 156.443 163.754 156.456 162.537 154.258C160.141 149.923 157.812 147.023 154.503 142.938C151.194 138.857 148.425 135.926 146.161 133.541C143.746 130.999 141.64 128.918 140.051 127.393" fill="#D9261F"/>
<path d="M134.704 183.312C144.867 183.312 153.105 175.502 153.105 165.867C153.105 156.232 144.867 148.421 134.704 148.421C124.541 148.421 116.303 156.232 116.303 165.867C116.303 175.502 124.541 183.312 134.704 183.312Z" fill="#D9261F"/>
<path d="M61.3128 192.044C60.5457 191.474 59.3838 190.709 57.8496 190.076C55.4893 189.099 53.4876 188.936 52.2847 188.845C51.8717 188.814 50.4328 188.877 47.5687 188.999C41.5727 189.257 41.0189 189.366 40.2564 189.66C39.7162 189.868 38.8901 190.239 38.704 189.999C38.4816 189.71 39.2987 188.701 39.8116 188.067C40.2337 187.547 40.6104 187.158 41.2822 186.506C42.1809 185.633 42.6303 185.194 43.2748 184.629C44.9497 183.158 46.375 182.168 46.7608 181.901C47.664 181.281 49.4252 180.082 51.6357 179.109C53.4377 178.318 53.4059 178.612 61.0132 177.069C64.1043 176.44 66.2694 175.951 68.2439 177.159C68.6025 177.377 68.8703 177.603 69.0473 177.761" fill="#D9261F"/>
<path d="M86.0957 227.187C86.0821 228.264 86.0367 229.45 85.9505 230.725C85.8915 231.599 85.7961 232.757 85.6327 234.11C85.3377 236.566 84.9474 238.674 84.5888 240.312C84.0849 242.629 83.8308 243.787 83.4903 244.637C82.4872 247.162 81.1391 248.727 81.7882 249.732C81.8155 249.772 82.0606 250.143 82.4963 250.243C83.2225 250.41 83.74 249.646 84.8067 249.058C85.778 248.519 86.0776 248.754 87.3757 248.338C88.4197 248.003 89.1777 247.492 90.6574 246.492C91.8648 245.673 93.0722 244.855 94.5292 243.506C96.7216 241.47 98.0333 239.557 98.5008 238.855C99.1272 237.905 99.8943 236.602 100.598 234.969C100.888 234.295 101.492 232.811 101.964 230.829C102.327 229.305 102.686 227.197 102.677 224.649" fill="#D9261F"/>
<path d="M60.2144 219.913C60.4095 218.882 60.691 217.737 61.0995 216.515C61.7077 214.679 62.443 213.127 63.1466 211.874" fill="#D9261F"/>
<path d="M42.5669 188.935C44.3689 186.89 47.9275 183.398 53.515 181.013C59.9604 178.263 65.7158 178.435 68.5028 178.702C69.4333 178.272 70.5272 177.675 70.4364 177.213C70.3819 176.928 69.8736 176.62 66.6963 176.449C63.2285 176.263 61.3175 176.164 58.576 176.661C58.0268 176.761 55.3669 177.267 52.0943 178.738C48.2316 180.475 45.7079 182.579 44.1601 183.886C41.9133 185.787 40.2793 187.632 39.3533 188.754C39.0083 189.171 38.7269 189.528 38.5317 189.786" fill="#F37176"/>
<path d="M86.123 236.819C88.3835 236.2 91.6697 235.019 95.083 232.662C98.5281 230.282 102.65 226.319 101.928 225.133C101.601 224.6 100.403 224.821 98.6961 225.106C95.9318 225.572 91.9194 226.192 86.7358 226.812" fill="#AD1B30"/>
<path d="M61.8938 190.772C61.9846 190.949 62.1344 191.229 62.325 191.578C64.3449 195.251 72.0748 208.055 85.0518 211.104C88.2337 211.851 91.0751 211.823 94.2524 211.566C120.747 209.412 142.411 193.546 142.411 193.546C154.539 184.665 162.751 174.395 168.175 165.821C168.674 166.835 169.019 167.685 169.25 168.287C169.464 168.848 169.532 169.092 170.017 170.445C170.521 171.857 170.58 171.97 170.63 172.137C171.184 174.006 168.837 176.485 167.871 177.525C163.754 181.959 167.648 178.548 161.584 184.918C158.711 187.936 156.55 190.053 153.455 193.08C149.901 196.554 148.784 197.554 148.085 198.16C147.127 199.002 144.949 200.875 141.948 203.087C140.174 204.399 139.012 205.168 133.665 208.634C128.513 211.973 125.939 213.642 125.535 213.868C121.023 216.447 117.383 217.8 113.879 219.103C107.275 221.56 101.801 222.813 98.8504 223.414C94.8152 224.233 89.963 224.962 84.4345 225.265C83.7764 224.926 82.864 224.419 81.8291 223.727C80.3267 222.727 79.1466 221.722 77.8439 220.492C75.883 218.646 73.6952 216.583 71.403 213.561C66.2013 206.707 64.2042 199.857 63.1193 196.002C62.5156 193.858 62.1298 192.039 61.8938 190.772Z" fill="#B9AFBE"/>
<path d="M169.836 166.242C170.199 165.509 170.798 164.328 171.574 162.894C173.435 159.442 174.275 158.284 175.455 155.904C175.709 155.397 176 154.764 176.054 154.642C176.853 152.936 177.502 151.448 177.793 150.765C179.032 147.824 179.922 144.67 180.267 143.449C180.82 141.494 181.415 139.083 181.928 136.287C181.951 136.192 184.12 127.723 183.122 127.469C183.04 127.447 182.836 127.583 182.45 127.546C182.205 127.524 182 127.442 182.005 127.433C182.01 127.406 183.022 127.655 183.693 127.804C185.291 128.153 186.594 128.442 186.921 129.284C187.012 129.519 186.98 129.673 186.934 130.139C186.857 130.967 186.993 130.134 186.898 133.26C186.83 135.577 186.794 136.74 186.707 137.617C186.376 140.974 185.777 140.938 185.591 143.933C185.477 145.711 185.663 146.145 185.332 147.489C185.064 148.575 184.869 148.588 184.161 150.796C183.816 151.868 183.762 152.176 183.33 153.493C183.262 153.696 182.958 154.619 182.591 155.619C181.873 157.56 181.211 158.99 180.162 161.243C179.586 162.478 179.236 163.229 178.687 164.278C178.215 165.179 177.838 165.844 177.239 166.902C176.377 168.418 175.95 169.178 175.492 169.893C174.956 170.734 174.166 171.875 173.09 173.168" fill="#AD1B30"/>
<path d="M83.0366 224.618C92.505 224.179 105.813 222.36 120.352 216.185C149.333 203.879 164.889 182.041 170.898 172.431C171.279 172.689 171.888 173.191 172.015 173.942C172.183 174.928 171.425 175.788 171.075 176.191C169.564 177.937 168.533 180.1 166.858 181.697C162.388 185.954 163.445 186.085 157.336 192.175C156.042 193.46 154.186 195.26 151.88 197.337C149.252 199.699 146.846 201.685 144.803 203.3C142.125 205.413 139.969 206.964 138.98 207.666C136.706 209.281 133.556 211.502 129.275 213.954C127.138 215.176 124.319 216.782 120.447 218.447C116.235 220.257 113.039 221.166 108.464 222.469C104.969 223.464 101.174 224.532 96.0182 225.437C91.3385 226.26 87.2987 226.636 84.1986 226.821" fill="white"/>
<path d="M78.207 166.459C78.502 167.576 80.7625 166.83 83.445 168.264C88.1111 170.757 89.4683 177.394 90.0901 180.276C90.9389 184.226 90.1083 184.343 91.0161 187.053C92.8544 192.518 97.4115 195.522 98.5871 196.296C98.5871 196.296 105.677 200.992 114.655 199.223C117.955 198.572 119.235 197.445 119.907 196.604C121.759 194.292 121.677 190.849 120.987 190.596C120.488 190.41 120.066 192.075 118.05 193.369C116.598 194.301 115.2 194.473 112.644 194.753C109.907 195.056 108.537 195.206 106.925 194.907C102.786 194.138 100.198 191.234 99.3542 190.288C97.2118 187.886 96.4629 185.533 95.1829 181.511C94.1298 178.199 94.2569 177.068 93.3264 173.349C91.8059 167.264 91.361 165.74 90.6983 164.907C90.6166 164.803 90.5213 164.708 90.3897 164.572C88.3653 162.532 85.0427 161.858 82.3557 162.722C80.2405 163.41 77.8893 165.26 78.207 166.459Z" fill="#B9AFBE"/>
<path d="M117.615 159.51C119.408 157.569 123.37 153.805 129.625 151.801C131.599 151.167 135.852 149.855 141.031 150.624C143.079 150.927 144.713 151.47 144.776 151.271C144.871 150.982 141.685 149.339 137.963 148.701C135.276 148.244 133.206 148.466 132.63 148.534C130.188 148.833 128.399 149.57 127.346 150.018C126.77 150.262 125.812 150.674 124.646 151.398C123.102 152.357 122.04 153.348 121.369 153.977C120.81 154.501 120.365 154.972 120.052 155.311" fill="#F37176"/>
<path d="M141.29 127.623C143.596 127.035 146.782 126.338 150.641 125.854C152.175 125.66 154.585 125.366 157.517 125.316C162.102 125.239 165.519 125.814 168.102 126.239C173.876 127.194 180.076 128.193 187.184 129.352C187.211 129.116 187.211 128.782 187.03 128.474C186.562 127.673 185.26 127.745 183.784 127.551C182.377 127.361 182.668 127.175 180.153 126.551C178.256 126.081 177.457 126.031 174.511 125.551C171.416 125.045 171.842 125.026 168.946 124.551C165.007 123.9 163.032 123.579 160.912 123.552C158.747 123.524 158.824 123.751 155.27 123.782C152.148 123.814 152.066 123.638 150.405 123.782C148.621 123.936 147.182 124.298 144.377 125.013C142.557 125.479 140.991 125.936 139.742 126.32" fill="#F37176"/>
<path d="M170.832 132.458C171.391 131.031 170.184 129.228 168.137 128.43C166.089 127.633 163.976 128.143 163.416 129.569C162.857 130.996 164.064 132.799 166.111 133.597C168.159 134.394 170.272 133.884 170.832 132.458Z" fill="#F37176"/>
<path d="M153.273 133.649C157.412 133.649 160.767 132.185 160.767 130.378C160.767 128.572 157.412 127.107 153.273 127.107C149.134 127.107 145.779 128.572 145.779 130.378C145.779 132.185 149.134 133.649 153.273 133.649Z" fill="#F37176"/>
<path d="M186.975 127.832C187.252 134.555 185.809 144.345 181.733 155.465C179.59 161.302 176.885 165.903 175.36 168.513C170.88 176.195 166.486 181.366 164.235 183.991C144.871 206.566 123.674 216.565 123.674 216.565C114.542 221.116 106.281 223.08 101.823 224.111C94.7653 225.74 88.5287 226.441 83.5767 226.731" stroke="#000A3D" stroke-width="4" stroke-miterlimit="10"/>
<path d="M187.511 128.605C170.644 123.574 157.277 123.063 152.347 123.714C150.137 124.008 143.065 125.04 138.644 126.8C138.644 126.8 134.441 128.144 130.083 130.084C96.9803 144.847 80.7125 163.12 80.7125 163.12C75.2657 169.323 67.8989 179.109 61.9392 192.921C63.369 197.997 66.0833 205.345 71.4439 213.022C75.883 219.383 80.6853 223.889 84.4254 226.884" stroke="#000A3D" stroke-width="4" stroke-miterlimit="10"/>
<path d="M62.6835 195.378C61.2492 195.984 58.4577 197.423 56.9281 200.413C55.1578 203.879 56.1474 207.349 57.3093 211.176C57.3093 211.176 60.9678 223.256 72.1428 229.196C73.2866 229.803 74.6347 230.359 76.3142 230.35C79.1238 230.336 81.6021 228.328 82.5734 227.577C83.0092 227.242 83.3496 226.939 83.5766 226.731" stroke="#000A3D" stroke-width="4" stroke-miterlimit="10"/>
<path d="M60.1646 220.184C60.3189 219.311 60.564 218.202 60.9589 216.936C61.1087 216.456 61.6987 214.619 62.6655 212.764C64.4812 209.276 66.9458 207.023 68.5844 205.553C70.3047 204.005 72.0613 202.426 74.8891 201.078C76.0783 200.508 78.9651 199.943 84.7342 198.807C86.4046 198.477 87.8979 198.201 88.4426 198.934C88.8556 199.49 88.5106 200.345 87.9614 201.779C85.76 207.525 86.3592 206.643 85.7192 207.855C84.9566 209.294 83.6948 211.62 81.2346 213.841C78.8607 215.981 76.4687 217.026 73.9995 218.107C72.9782 218.555 72.1203 218.926 70.9084 219.261C68.185 220.016 65.8202 220.003 64.2633 219.876" fill="#D9261F"/>
<path d="M88.8103 199.875C88.3881 199.898 87.8843 199.934 87.3215 199.993C87.3215 199.993 86.4908 200.079 85.6602 200.21C78.9243 201.277 73.3187 204.974 73.3187 204.974C72.2021 205.711 65.3527 210.353 61.7124 219.049C61.5717 219.383 61.4628 219.659 61.3901 219.854C61.4038 218.632 61.5581 216.823 62.2798 214.787C62.425 214.375 63.0559 212.656 64.9033 210.122C66.2923 208.218 68.5482 205.128 72.5516 202.861C74.2219 201.911 75.8423 201.341 79.0786 200.196C80.4676 199.708 81.3663 199.436 82.3604 199.214C84.294 198.785 85.9462 198.667 87.0991 198.649" fill="#F37176"/>
<path d="M61.7624 220.225C62.2662 220.279 62.9924 220.334 63.8685 220.315C65.3164 220.284 66.4421 220.071 67.8129 219.754C70.8858 219.044 72.4835 218.678 74.6668 217.777C75.8242 217.298 77.1405 216.75 78.7292 215.714C80.6991 214.434 81.9156 213.172 82.1924 212.882C83.1048 211.923 83.6676 211.113 84.3939 210.073C85.0112 209.186 85.6829 208.209 86.3819 206.82C86.7859 206.014 87.4259 204.711 87.8843 202.893C88.3609 200.993 88.6106 200.006 88.3337 199.721C87.5666 198.93 81.6069 202.553 60.9136 219.696" fill="#AD1B30"/>
<path d="M135.04 176.213C140.904 176.213 145.657 171.532 145.657 165.758C145.657 159.983 140.904 155.302 135.04 155.302C129.177 155.302 124.423 159.983 124.423 165.758C124.423 171.532 129.177 176.213 135.04 176.213Z" fill="#6BD6F0"/>
<path d="M125.218 164.817C125.408 164.301 127.446 159.107 133.097 157.578C138.108 156.225 142.089 158.8 142.679 159.193C142.625 158.899 142.502 158.442 142.193 157.99C141.685 157.243 140.959 156.895 140.26 156.624C138.326 155.877 136.869 155.248 134.727 155.312C133.374 155.352 132.326 155.637 131.79 155.805C130.483 156.221 129.58 156.782 129.275 156.981C129.067 157.117 128.159 157.723 127.201 158.791C126.443 159.637 126.007 160.379 125.658 160.989C125.218 161.754 124.664 162.858 124.219 164.279" fill="#5C9CBB"/>
<path d="M127.26 172.865C128.159 173.377 131.785 175.295 136.347 174.286C141.095 173.236 144.191 169.599 144.635 168.219C144.685 168.065 144.867 167.423 145.076 167.436C145.275 167.445 145.461 168.052 145.448 168.59C145.434 169.178 145.18 169.608 145.03 169.87C143.614 172.309 143.877 172.028 143.569 172.426C142.484 173.829 141.295 174.643 140.691 175.014C139.928 175.48 138.58 176.177 136.76 176.462C136.011 176.58 134.699 176.702 133.138 176.408C130.56 175.924 128.799 174.594 127.959 173.852" fill="#97E2F5"/>
<path d="M139.198 126.619C145.675 132.505 153.518 140.821 160.758 151.955C166.096 160.166 169.373 167.319 172.01 173.942" stroke="#000A3D" stroke-width="4" stroke-miterlimit="10"/>
<path d="M88.4426 198.93C86.5316 198.717 78.1935 198.002 70.3637 203.703C62.1345 209.697 60.4641 218.411 60.1646 220.184C61.6307 220.411 72.2928 221.858 80.8715 214.176C87.7481 208.019 88.7785 200.034 88.9736 198.061" stroke="#000A3D" stroke-width="4" stroke-miterlimit="10"/>
<path d="M69.9824 177.571C67.6765 176.933 64.994 176.503 62.021 176.598C48.6854 177.023 39.9886 187.678 38.0686 190.153C41.2913 189.316 46.7199 188.37 53.2107 189.537C56.8919 190.198 59.9058 191.356 62.1571 192.437" stroke="#000A3D" stroke-width="4" stroke-miterlimit="10"/>
<path d="M102.672 224.265C102.713 227.034 102.368 231.49 100.031 236.205C94.6882 246.977 83.436 250.03 81.4888 250.528C83.1001 246.434 84.6797 241.244 85.5058 235.128C85.9143 232.119 86.0777 229.319 86.1004 226.776" stroke="#000A3D" stroke-width="4" stroke-miterlimit="10"/>
<path d="M135.103 176.585C141 176.585 145.779 171.82 145.779 165.944C145.779 160.067 141 155.303 135.103 155.303C129.207 155.303 124.428 160.067 124.428 165.944C124.428 171.82 129.207 176.585 135.103 176.585Z" stroke="#000A3D" stroke-width="4" stroke-miterlimit="10"/>
<path d="M134.704 183.317C144.867 183.317 153.105 175.539 153.105 165.944C153.105 156.349 144.867 148.571 134.704 148.571C124.541 148.571 116.303 156.349 116.303 165.944C116.303 175.539 124.541 183.317 134.704 183.317Z" stroke="#000A3D" stroke-width="4" stroke-miterlimit="10"/>
<path d="M59.815 96.4244C59.0116 96.8135 57.7134 97.4016 56.0567 97.9491C51.5177 99.4421 49.8292 98.7996 46.4159 100.401C43.7878 101.636 42.3171 103.179 41.9994 103.514C41.2414 104.328 40.1838 105.676 39.2896 107.929C37.996 111.196 37.9188 114.155 38.0232 119.235C38.1367 124.814 38.3864 129.284 38.8221 134.658C39.3668 141.372 39.6255 142.449 40.0703 143.68C40.7194 145.467 42.4079 149.923 46.9651 152.932C47.487 153.276 50.0244 154.913 53.819 155.538C56.6332 156.004 58.9798 155.723 60.4505 155.434C61.39 156.298 62.7472 157.451 64.4992 158.664C65.9245 159.65 66.7869 160.243 68.076 160.808C69.8417 161.582 71.2624 161.799 74.0176 162.22C75.8014 162.491 75.8967 162.405 78.6746 162.813C80.8533 163.129 81.7021 163.315 82.3103 163.464C84.0578 163.889 84.9293 164.097 85.9597 164.64C86.3682 164.853 88.3336 165.925 89.7906 168.196C90.3671 169.097 90.6485 169.848 91.3838 172.517C92.7818 177.607 92.7137 178.344 93.5943 180.928C94.0936 182.398 94.6882 184.117 95.8683 186.171C96.8125 187.813 98.0425 189.958 100.453 191.917C101.442 192.722 104.193 194.894 108.346 195.428C111.206 195.794 113.448 195.215 114.896 194.826C116.248 194.464 117.914 194.003 119.689 192.709C120.597 192.048 121.881 191.093 122.78 189.338C123.792 187.361 123.724 185.52 123.679 184.66C123.547 182.09 122.467 180.235 121.668 178.874C120.787 177.367 120.719 177.779 119.648 176.055C119.648 176.055 118.786 174.666 116.807 170.006C116.503 169.332 116.185 168.341 116.348 167.206C116.507 166.093 117.052 165.432 117.401 164.835C118.327 163.251 118.182 161.636 117.923 158.791C117.814 157.596 117.429 154.551 115.658 151.095C114.215 148.276 112.649 145.227 109.413 143.693C107.829 142.942 106.412 142.825 106.204 141.866C105.995 140.888 107.152 139.603 108.405 139.21C109.862 138.748 111.183 139.567 111.532 139.789C112.204 140.205 112.295 140.517 113.153 141.404C113.153 141.404 114.465 142.757 115.953 143.68C117.528 144.657 118.995 144.951 120.147 145.173C121.627 145.453 123.733 145.856 126.248 145.1C128.713 144.363 130.242 142.911 131.155 142.033C132.902 140.341 133.742 138.64 134.209 137.667C135.212 135.581 136.252 133.428 135.662 131.288C135.072 129.134 133.088 127.913 131.4 126.99C125.154 123.574 120.47 122.972 113.384 120.385C112.885 120.204 108.982 118.769 108.982 118.769C108.968 118.186 109.022 116.81 109.944 115.517C110.606 114.585 111.424 114.114 111.832 113.883C113.357 113.024 115.25 112.802 115.25 112.802C115.763 110.422 115.009 108.395 114.033 107.717C113.139 107.093 112.123 106.997 112.123 106.997C111.882 106.975 111.682 106.979 111.537 106.988C112.617 106.197 114.161 105.152 116.121 104.102C118.109 103.039 118.999 102.79 121.35 101.591C123.434 100.532 124.927 99.614 126.184 98.8358C129.829 96.5828 132.416 94.565 133.193 93.9497C134.813 92.6693 136.665 91.208 138.862 88.9414C140.351 87.4031 142.103 85.5799 143.846 82.8427C144.744 81.4312 146.315 78.9248 147.368 75.3054C149.12 69.2656 148.176 64.4609 147.972 63.4972C147.245 60.0498 145.988 58.2491 145.389 57.48C144.622 56.4892 143.637 55.2586 141.862 54.6162C139.833 53.8833 138.018 54.3764 137.387 54.5619C133.51 55.6794 131.926 59.5159 131.699 60.086C130.074 60.9863 129.076 60.9094 128.454 60.6651C127.723 60.3755 127.528 59.8462 126.47 59.4526C125.921 59.2445 125 58.9006 124.396 59.2807C123.906 59.5883 123.838 60.2398 123.815 63.0946C123.801 64.6057 123.797 65.3612 123.815 66.7909C123.847 69.2701 123.856 70.5098 123.815 70.7179C123.384 72.8216 121.518 74.197 117.787 76.9568C116.957 77.572 115.341 78.7619 113.153 79.9608C112.545 80.2956 111.846 80.653 110.602 81.3452C109.513 81.956 108.923 82.3134 107.82 82.9604C103.394 85.5663 103.235 85.5165 102.023 86.4259C100.739 87.3941 100.879 87.4801 99.4723 88.5071C98.0788 89.5205 96.9441 90.1584 95.7639 90.8189C94.9242 91.2894 93.1041 92.2757 91.1296 93.1308C84.1032 96.1756 76.9861 96.7411 75.8332 96.8271C72.9236 97.0397 70.4998 96.9447 68.8794 96.8271C66.4056 96.6461 64.2224 96.2932 62.3886 95.9041" fill="white"/>
<path d="M37.5331 58.7739C38.1141 59.0137 39.2806 56.6068 41.8134 53.4172C45.2494 49.083 48.6673 46.4906 51.4588 44.3778C56.7331 40.3784 61.3129 38.2114 62.6883 37.5825C65.8565 36.1302 68.4392 35.2932 69.6193 34.9313C71.6029 34.3251 77.086 32.7687 84.421 32.547C90.0766 32.3751 97.0531 32.1625 104.039 35.2842C105.164 35.7864 106.807 36.6098 107.025 36.2931C107.411 35.7321 103.09 31.9182 99.0321 29.1267C97.2619 27.9097 94.7427 26.1996 91.0616 24.6387C85.4287 22.2545 80.6991 21.7613 79.5688 21.6573C77.3356 21.4492 71.9161 21.1506 65.3935 23.096C63.6052 23.6298 60.4188 24.7202 56.8193 26.8556C54.5498 28.1993 49.9836 31.2215 45.8259 36.6053C41.7998 41.8217 40.2066 46.5992 39.0264 50.2593C37.9779 53.4896 36.7342 58.4436 37.5331 58.7739Z" fill="white"/>
<path d="M108.278 36.0895C109.295 35.8995 111.878 35.5511 114.792 36.7455C115.695 37.1165 118.219 38.2837 119.971 40.9711C120.838 42.3057 121.146 43.5137 121.759 45.9342C122.181 47.6036 122.63 49.4087 122.571 51.7975C122.531 53.571 122.499 54.9781 121.786 56.4168C120.325 59.3756 116.884 61.5834 115.599 60.7781C114.841 60.2985 115.422 59.1313 115.25 56.1589C115.109 53.6932 114.678 54.0053 112.699 46.4544C112.141 44.3235 111.823 42.9618 110.843 41.143C110.184 39.917 109.49 38.985 108.986 38.3697" fill="white"/>
<path d="M36.8613 61.0586C36.7569 61.0903 36.6025 61.1446 36.4164 61.2169C35.9399 61.4024 33.5841 62.357 32.1589 64.592C31.8094 65.1394 31.2102 66.2433 30.9742 68.424C30.8607 69.4827 30.1799 76.8752 35.4043 81.7568C36.0261 82.3359 37.8962 83.9737 40.7149 84.6388C41.7861 84.8921 43.5563 85.3083 44.1328 84.5483C44.7455 83.7339 43.5291 82.2138 41.7816 78.8025C41.137 77.5493 39.444 74.1336 38.5362 70.9485C38.0687 69.3017 37.5512 66.8134 37.6102 63.556" fill="white"/>
<path d="M138.644 126.8C137.813 126.288 136.642 125.632 135.185 125.004C133.492 124.271 132.026 123.886 129.158 123.153C124.51 121.963 123.874 122.076 123.361 122.461C122.335 123.23 122.063 124.904 122.435 126.157C122.866 127.609 124.115 128.329 124.755 128.7C128.803 131.034 134.686 128.302 135.648 127.845" fill="white"/>
<path d="M107.833 82.9557C105.364 84.7156 102.064 86.8601 97.9836 88.9638C93.7987 91.1174 90.172 92.9859 85.7011 94.0445C73.7544 96.8767 65.852 91.5472 61.7442 96.2569C61.2903 96.7771 60.7728 97.8991 59.7425 100.152C57.8497 104.278 56.9919 107.626 56.4381 109.829C54.6225 117.073 56.2021 116.023 54.4999 124.307C54.0597 126.442 53.4469 128.985 54.7178 130.021C55.4304 130.605 56.4926 130.51 57.3096 130.32C57.1235 129.112 56.9056 127.361 56.8466 125.239C56.7558 122.058 56.6696 117.064 59.048 111.725C60.0194 109.544 61.2631 106.857 64.0319 105.373C64.4948 105.124 65.8202 104.432 67.6222 104.333C69.5195 104.229 70.913 104.839 71.6846 105.124C74.9028 106.328 77.9984 105.961 81.7703 105.513C86.4455 104.957 89.8679 103.441 91.1479 102.831C94.3116 101.319 96.3541 99.641 98.1016 98.2113C99.7357 96.8721 102.482 94.5829 105.169 90.8188C106.59 88.8281 108.432 85.8105 109.826 81.793" fill="#B9AFBE"/>
<path d="M123.702 185.203C123.443 185.8 123.062 186.547 122.499 187.347C122.367 187.538 121.6 188.605 120.47 189.573C118.482 191.27 116.258 191.867 114.905 192.229C113.439 192.623 110.906 193.274 107.72 192.691C106.549 192.478 102.722 191.777 100.072 188.646C98.7008 187.026 98.2515 185.312 97.4072 181.946C95.923 176.028 96.7037 174.399 95.3193 169.703C94.3434 166.387 93.776 164.464 92.0739 162.541C88.075 158.022 81.3391 157.474 78.2844 157.23C73.8225 156.868 73.405 157.841 70.8676 156.882C66.0336 155.058 63.6461 150.054 62.9879 148.679C61.835 146.272 61.422 144.087 61.2495 142.671C62.1528 142.698 63.3873 142.694 64.8398 142.553C67.4089 142.309 69.3017 141.78 70.6362 141.4C72.833 140.771 74.3717 140.128 77.1269 138.975C78.8744 138.242 80.3042 137.59 81.2983 137.124C81.0078 137.699 80.6129 138.73 80.9488 139.78C81.5797 141.734 84.2668 142.25 85.2381 142.436C86.5726 142.689 87.5576 142.544 89.0645 142.318C92.3825 141.825 94.2526 140.671 94.7428 140.355C95.6824 139.748 96.976 138.911 96.8308 138.16C96.7581 137.803 96.3678 137.491 93.4538 136.713C90.0268 135.799 90.2038 136.133 89.0691 135.618C87.0129 134.686 85.0384 133.387 85.0339 133.387C84.6617 133.143 84.3939 132.957 83.9536 132.867C82.837 132.641 81.9383 133.328 80.6492 134.079C79.5871 134.699 78.4251 135.134 77.3266 135.686C75.2432 136.726 73.5956 137.296 71.7573 137.93C68.0852 139.201 66.2515 139.834 64.2089 139.929C60.5868 140.101 58.7803 140.187 57.6773 139.988C57.0373 139.875 56.1658 139.676 55.7391 140.137C55.3306 140.576 55.5848 141.35 56.2384 143.757C57.0101 146.598 56.8104 146.082 57.0328 146.765C57.2007 147.286 57.818 149.118 59.502 152.249C60.9363 154.918 61.6535 156.253 62.6157 157.257C64.3633 159.08 66.2379 159.962 67.3272 160.465C68.7298 161.107 69.9462 161.392 72.3791 161.958C75.0435 162.577 77.3494 162.939 79.2149 163.229C81.144 163.528 82.315 163.668 84.1987 164.152C85.86 164.582 86.6861 164.794 87.3261 165.192C89.0918 166.287 89.818 168.038 90.8393 170.599C91.6563 172.644 92.0194 174.291 92.3462 175.806C93.1769 179.638 92.7366 179.887 93.3493 181.937C94.0347 184.226 95.1876 185.732 97.498 188.755C99.8356 191.813 101.007 193.342 102.854 194.297C105.323 195.573 107.724 195.55 109.921 195.527C113.112 195.496 115.423 194.713 116.053 194.487C117.951 193.808 119.349 192.939 120.143 192.392C121.387 191.532 122.335 190.641 123.016 189.908" fill="#B9AFBE"/>
<path d="M51.9764 133.781C52.6391 134.215 53.5832 134.79 54.7588 135.396C55.6757 135.871 56.6379 136.364 57.5412 136.667C59.493 137.319 61.2269 137.034 64.6084 136.436C65.1032 136.35 66.9869 136.007 69.4742 135.283C70.1732 135.079 72.4246 134.405 75.2706 133.202C76.8456 132.537 78.6975 131.668 80.7174 130.546C85.4606 131.152 90.4127 131.944 95.5508 132.971C97.9883 133.459 98.3787 133.618 101.461 134.242C105.46 135.052 108.124 135.491 112.472 136.554C113.521 136.812 113.671 136.839 113.861 136.902C116.262 137.699 117.048 139.029 118.959 140.137C118.959 140.137 120.47 141.015 122.667 141.409C128.227 142.408 133.107 137.97 133.615 138.699C133.837 139.02 132.961 140.011 131.727 141.409C131.096 142.123 130.37 142.929 129.189 143.72C128.186 144.39 127.319 144.738 127.011 144.856C126.82 144.928 125.717 145.34 124.31 145.494C120.829 145.869 117.86 144.399 117.678 144.304C116.085 143.49 116.403 143.155 113.044 140.956C111.337 139.839 110.743 139.59 110.38 139.454C108.414 138.721 106.821 138.938 105.514 138.993C104.084 139.051 104.347 138.857 96.5903 137.26C90.6805 136.043 90.567 136.165 89.0555 135.645C85.9599 134.577 83.6541 133.111 82.2198 132.066C81.2711 133.31 79.7732 135.007 77.5854 136.572C72.7559 140.024 67.8538 140.486 64.8354 140.73C61.354 141.01 58.3128 141.219 55.2036 139.422C53.4652 138.418 52.3168 137.142 51.6223 136.224" fill="#B9AFBE"/>
<path d="M109.921 106.522C109.127 106.35 108.982 105.45 107.738 103.129C106.58 100.971 105.922 100.288 106.226 99.8218C106.617 99.2292 108.169 99.6273 108.687 99.7449C112.962 100.713 117.696 98.6998 122.131 96.8178C126.856 94.809 129.875 92.1985 132.33 90.0405C133.429 89.0723 138.358 84.6477 142.838 77.1013C146.183 71.4686 147.717 66.7182 148.394 66.9354C148.82 67.0711 148.534 69.0572 148.271 70.8941C148.031 72.568 147.577 75.554 145.906 79.1869C144.536 82.1729 143.001 84.1636 141.876 85.6023C141.358 86.2673 139.397 88.733 135.412 92.1533C132.344 94.7909 128.699 97.9171 123.302 100.546C117.338 103.446 114.474 103.183 111.932 105.59C111.655 105.857 110.793 106.712 109.921 106.522Z" fill="#B9AFBE"/>
<path d="M31.587 75.5C31.6642 75.4502 31.9819 76.0384 33.0214 76.9432C33.6614 77.5042 34.206 77.8616 34.4648 78.0336C36.2804 79.2189 38.0279 79.6849 38.3638 79.7709C40.0614 80.2052 41.532 80.2097 42.5396 80.1328C43.2931 81.2548 44.0421 82.3768 44.7955 83.4988C44.3689 83.7612 43.7062 84.096 42.8347 84.2724C41.5048 84.5394 40.4426 84.2724 39.6755 84.0689C39.0945 83.915 37.7692 83.5079 36.2713 82.4039C32.7127 79.7799 31.3873 75.6222 31.587 75.5Z" fill="#B9AFBE"/>
<path d="M121.586 45.5225C121.6 46.2825 121.532 47.391 121.155 48.6577C121.015 49.1237 120.62 50.3317 119.639 51.7432C117.624 54.6433 115.963 54.3582 115.109 56.5163C114.556 57.9233 114.56 59.8144 115.427 60.3709C115.935 60.6921 116.616 60.475 117.197 60.2895C117.701 60.1266 119.09 59.5973 120.465 57.7559C120.779 57.3352 121.963 55.6748 122.435 52.9738C123.003 49.6983 122.167 46.9657 121.586 45.5225Z" fill="#B9AFBE"/>
<path d="M37.7508 57.421C40.8373 53.9057 43.6878 51.1369 45.9437 49.0965C48.5264 46.7574 51.3769 44.1967 55.6073 41.4822C58.4169 39.6771 60.6683 38.5505 61.5398 38.1207C64.3721 36.7363 66.7642 35.8677 68.2076 35.3836C72.2745 34.0173 75.7196 33.3884 77.8756 33.0808C79.4734 32.85 82.2331 32.5288 85.7009 32.5288C91.1885 32.5288 95.3372 33.3432 98.6371 34.0082C101.646 34.6145 104.161 35.2976 106.054 35.8631C107.216 37.3652 108.568 39.3061 109.876 41.6813C111.659 44.9206 112.595 47.5763 112.858 48.3319C114.655 53.5573 114.928 57.9277 114.991 59.6198C115.027 60.5653 115.141 64.6371 113.979 69.9033C112.862 74.9614 112.032 78.7255 108.927 82.0146C107.479 83.5483 105.718 84.7879 103.503 86.3488C102.155 87.2989 100.403 88.4435 98.3103 89.6107C94.0754 91.9678 90.367 93.3206 88.2427 94.0173C82.7732 95.8134 78.4748 96.3066 74.7029 96.7137C67.2725 97.5236 63.2873 97.9036 58.8027 95.9175C57.0189 95.1257 55.7616 94.2299 54.1321 93.0672C49.8473 90.0089 47.0649 86.7107 45.5988 84.7744C44.2234 82.9556 40.5468 77.7664 38.6586 69.9847C37.5511 65.4153 37.4285 61.4837 37.5284 58.7692" fill="#000A3D"/>
<path d="M115.009 60.8369C115.009 82.5576 97.6839 100.17 76.3097 100.17C54.9355 100.17 37.6101 82.5621 37.6101 60.8369C37.6101 39.1162 54.9355 21.5034 76.3097 21.5034C90.8254 21.5034 101.056 30.5111 102.863 32.2213C104.111 33.4066 115.009 44.4954 115.009 60.8369Z" stroke="#000A3D" stroke-width="4" stroke-miterlimit="10"/>
<path d="M120.111 122.09C122.417 121.723 126.243 121.411 130.778 122.461C134.94 123.425 137.813 125.822 139.688 127.071" stroke="#000A3D" stroke-width="4" stroke-miterlimit="10"/>
<path d="M54.9764 98.2794C54.3364 99.4195 53.7145 100.627 53.1335 101.899C48.3267 112.39 48.3222 122.873 48.5491 125.741C48.7352 128.121 49.0257 129.03 48.7125 131.008C48.6263 131.569 48.4629 132.329 47.8819 133.007C47.0603 133.971 45.8938 134.188 45.6033 134.238C43.8558 134.541 42.0856 133.668 40.1565 132.736C39.1443 132.247 38.9083 132.016 38.6314 132.161C38.0323 132.469 38.2456 133.989 39.2669 139.509C39.7525 142.119 39.9931 143.427 40.0703 143.675C41.3276 147.634 43.6515 150.082 44.4459 150.864C45.7531 152.154 46.9696 152.941 47.5506 153.289C50.3103 154.959 52.8067 155.37 54.5179 155.628C55.5846 155.791 60.8589 156.601 61.3582 155.239C61.5806 154.633 60.5367 154.194 59.2748 152.484C56.7511 149.068 56.4016 144.752 56.3789 144.399C56.2518 142.567 56.5242 141.277 55.5664 140.011C55.2532 139.594 54.6042 138.911 54.0595 138.396C53.0654 137.446 52.6343 137.242 52.3211 136.545C52.1486 136.165 52.1304 135.677 52.0896 134.695C52.026 133.161 52.0033 132.378 52.4391 131.578C52.6252 131.238 52.8657 130.795 53.365 130.537C54.1094 130.157 54.7177 130.555 55.0762 130.234C55.5892 129.772 55.0127 128.374 54.8674 127.999C54.4907 127.026 54.5406 125.04 54.6359 121.068C54.7358 116.933 55.5801 113.359 56.1429 111.02C57.0053 107.445 58.5259 102.482 61.3491 96.8091" fill="#B9AFBE"/>
<path d="M107.266 141.508C103.385 141.151 100.085 140.784 97.4751 140.477C95.4416 140.237 93.7577 140.02 93.3128 139.165C92.8953 138.355 93.7531 137.269 94.5656 136.654C97.6521 134.319 104.91 135.088 109.408 137.694C110.538 138.35 111.301 139.011 111.7 139.377" fill="#B9AFBE"/>
<path d="M108.995 118.765C108.991 118.199 109.059 116.842 109.958 115.512C111.283 113.553 113.403 113.155 113.934 113.064C114.36 112.992 117.066 112.576 118.927 114.385C119.762 115.195 120.066 116.109 120.284 116.774C121.019 119.045 120.461 121.108 120.116 122.095" fill="#00AAFF"/>
<path d="M39.0264 50.2504C42.7484 45.6945 50.3104 37.7184 62.2797 32.8413C80.8806 25.2632 97.4162 30.3439 102.509 32.1445" stroke="#000A3D" stroke-width="4" stroke-miterlimit="10"/>
<path d="M37.533 58.7742C41.5409 53.2456 49.6975 43.5638 62.6881 37.5783C82.8686 28.281 100.929 34.262 106.49 36.3884" stroke="#000A3D" stroke-width="4" stroke-miterlimit="10"/>
<path d="M58.2444 95.628C63.2509 96.6912 73.3865 98.1525 85.4693 94.8543C97.2844 91.6286 105.146 85.4349 108.922 82.0146" stroke="#000A3D" stroke-width="4" stroke-miterlimit="10"/>
<path d="M37.6056 60.8369C36.5889 61.1038 33.8246 61.977 32.1588 64.592C30.6519 66.9627 30.897 69.4329 31.1148 71.6362C31.4235 74.7262 32.5583 76.9114 33.3163 78.3365C34.51 80.5806 35.3951 82.2364 37.2561 83.4172C40.3926 85.4034 44.0419 84.6116 45.2402 84.2994" stroke="#000A3D" stroke-width="4" stroke-miterlimit="10"/>
<path d="M107.025 36.2889C108.378 36.0175 110.738 35.7234 113.516 36.4066C114.692 36.6961 116.126 37.0445 117.574 38.1393C119.898 39.8947 120.688 42.3785 121.4 44.609C121.899 46.1834 122.049 47.3506 122.326 49.5765C122.626 51.9563 122.766 53.1733 122.444 54.5441C122.272 55.277 121.804 57.1274 120.125 58.7019C118.373 60.3487 116.353 60.6925 115.604 60.783" stroke="#000A3D" stroke-width="4" stroke-miterlimit="10"/>
<path d="M61.1812 97.0488C59.0615 101.302 56.6014 107.409 55.335 115.069C54.3818 120.819 54.3637 125.877 54.6406 129.854" stroke="#000A3D" stroke-width="4" stroke-miterlimit="10"/>
<path d="M55.6846 139.328C55.8117 142.223 56.4381 146.508 58.812 150.996C60.3053 153.819 62.9016 158.727 68.0851 160.813C70.1504 161.646 72.5788 162.007 75.3884 162.428C78.6383 162.917 79.4644 162.731 81.8792 163.351C84.4619 164.016 86.5044 164.537 88.2519 166.125C89.9405 167.654 90.6349 169.934 91.9603 174.44C93.1949 178.638 92.8908 179.195 94.0483 182.181C94.6656 183.782 95.5053 185.913 97.1757 188.189C98.4557 189.931 100.566 192.808 104.479 194.428C109.694 196.586 114.574 195.043 116.416 194.31C118.323 193.55 121.264 192.388 122.789 189.343C124.133 186.664 123.656 183.986 123.484 183.104C122.994 180.566 121.65 178.747 120.007 176.521C118.627 174.653 117.619 173.644 116.53 171.323C115.926 170.033 115.599 169.4 115.545 168.762C115.509 168.328 115.513 167.242 116.589 165.894" stroke="#000A3D" stroke-width="4" stroke-miterlimit="10"/>
<path d="M61.1813 97.0488C57.6 97.6279 54.627 98.207 52.4392 98.664C48.8534 99.4105 47.7186 99.7543 46.4114 100.397C45.5217 100.836 42.9799 102.116 41.0826 104.554C39.1126 107.088 38.6224 109.861 38.3001 113.68C37.7736 119.987 38.0641 124.995 38.4182 129.736C39.4304 143.304 40.3109 145.702 41.895 147.987C44.387 151.588 47.5143 153.307 48.3858 153.764C54.0505 156.714 59.6108 155.655 61.3628 155.248" stroke="#000A3D" stroke-width="4" stroke-miterlimit="10"/>
<path d="M88.8375 166.586C88.6423 165.663 86.7768 154.891 93.5808 147.761C98.1425 142.979 103.875 142.164 105.6 141.983" stroke="#000A3D" stroke-width="4" stroke-miterlimit="10"/>
<path d="M41.0825 105.364C42.8754 105.07 45.8212 104.817 49.3117 105.595C52.4482 106.292 54.8039 107.55 56.2655 108.482" stroke="#000A3D" stroke-width="4" stroke-miterlimit="10"/>
<path d="M81.5295 105.364C83.2816 106.405 85.6373 107.762 88.4606 109.269C91.4382 110.857 96.3902 113.481 102.622 115.992C104.206 116.63 108.237 117.996 116.298 120.728C117.592 121.167 122.226 122.737 128.004 125.348C133.624 127.89 134.822 128.935 135.421 130.428C136.765 133.79 134.323 137.604 133.22 139.323C132.276 140.798 130.288 143.901 126.266 145.1C123.016 146.069 120.225 145.218 119.081 144.87C117.469 144.381 114.782 143.562 113.171 141.404C112.844 140.97 112.427 140.296 111.551 139.789C110.243 139.029 108.863 139.174 108.423 139.21C105.473 139.459 102.559 138.386 99.6174 138.056C95.0921 137.54 91.5834 136.133 88.0294 134.708C84.203 133.175 78.6427 130.446 72.7329 125.583" stroke="#000A3D" stroke-width="4" stroke-miterlimit="10"/>
<path d="M99.7129 114.774C98.2513 115.462 96.7761 116.358 95.4054 117.53C88.202 123.692 89.0689 133.039 89.3231 135.16" stroke="#000A3D" stroke-width="4" stroke-miterlimit="10"/>
<path d="M108.922 82.0148C111.895 80.2594 114.8 78.4769 117.941 76.5179C117.941 76.5179 122.576 73.541 123.479 70.5957C123.67 69.9759 123.588 69.8583 123.597 66.438C123.611 60.4162 123.824 59.62 124.409 59.2761C125.594 58.5749 127.691 60.0995 128.467 60.6605C131.395 62.7914 132.462 65.9901 132.87 67.7047" stroke="#000A3D" stroke-width="4" stroke-miterlimit="10"/>
<path d="M130.188 62.2621C131.481 59.8371 132.97 58.1993 134.023 57.1995C135.762 55.5527 137.187 54.1954 139.239 54.0823C141.454 53.9556 143.165 55.3491 143.873 55.9327C148.366 59.6018 148.385 66.3203 148.394 68.406C148.412 74.8077 145.788 79.5083 144.336 82.0374C143.569 83.372 140.469 88.5703 131.704 95.0897C127.147 98.4829 119.934 103.066 109.917 106.527" stroke="#000A3D" stroke-width="4" stroke-miterlimit="10"/>
<path d="M117.329 76.957C118.046 79.9566 119.376 84.0736 121.977 88.4983C124.228 92.3258 126.724 95.1851 128.749 97.1802" stroke="#000A3D" stroke-width="4" stroke-miterlimit="10"/>
<path d="M74.6075 127.071C72.3426 127.904 70.4589 128.302 69.2016 128.515C62.9242 129.569 55.2169 129.967 55.2169 129.967C54.3182 129.989 53.7372 130.265 53.3605 130.546C51.504 131.926 51.5585 135.713 53.129 137.825C54.8538 140.151 58.19 140.142 61.3582 140.137C63.95 140.133 66.6234 139.712 71.0944 138.174C74.2762 137.079 78.561 135.351 83.3951 132.604" stroke="#000A3D" stroke-width="4" stroke-miterlimit="10"/>
<path d="M96.2134 113.191C98.6962 111.983 101.034 110.875 103.199 109.87C109.29 107.043 110.961 106.441 112.817 107.097C113.062 107.183 115.677 108.156 116.226 110.54C116.489 111.689 116.167 112.698 115.949 113.223" stroke="#000A3D" stroke-width="4" stroke-miterlimit="10"/>
<path d="M105.169 97.5103C106.644 100.731 108.115 103.957 109.59 107.178" stroke="#000A3D" stroke-width="4" stroke-miterlimit="10"/>
<path d="M120.111 122.09C120.397 121.258 120.656 120.118 120.579 118.765C120.533 117.928 120.456 116.562 119.535 115.186C119.217 114.711 118.482 113.648 117.102 113.105C115.318 112.408 113.657 113.055 112.93 113.336C110.289 114.363 109.09 116.679 108.759 117.381" stroke="#000A3D" stroke-width="4" stroke-miterlimit="10"/>
<path d="M84.5435 134.012C84.371 134.419 83.1818 137.287 84.4255 138.862C85.7827 140.581 90.1809 140.192 94.0436 137.025" stroke="#000A3D" stroke-width="4" stroke-miterlimit="10"/>
<path d="M38.8176 120.769C39.149 125.329 39.4803 129.885 39.8117 134.446C40.6287 136.893 42.939 138.499 45.3946 138.386C47.5098 138.291 49.4162 136.93 50.2786 134.912C50.2015 130.817 50.1243 126.723 50.0471 122.628C46.3024 122.004 42.5578 121.384 38.8176 120.769Z" stroke="#000A3D" stroke-width="4" stroke-miterlimit="10"/>
<path d="M143.219 125.393C140.133 126.447 137.042 127.501 133.955 128.556" stroke="#000A3D" stroke-width="4" stroke-miterlimit="10"/>
<path d="M95.9138 141.291C108.36 139.531 118.386 148.462 118.568 157.578C118.704 164.287 113.507 171.11 105.645 173.924" stroke="#000A3D" stroke-width="4" stroke-miterlimit="10"/>
<path d="M66.0381 39.8309C65.4616 39.0075 58.8075 42.5997 54.7587 45.2192C51.2954 47.4632 49.6568 49.0512 48.8852 49.8384C48.8852 49.8384 45.953 52.847 44.2509 56.1542C39.8435 64.714 45.9802 77.7528 46.2616 78.3319C46.0574 71.9889 46.8381 63.6644 51.359 55.6928C57.0191 45.7124 66.7235 40.8126 66.0381 39.8309Z" fill="#C3BAC7"/>
<path d="M99.0141 33.5605C100.834 35.9629 110.711 49.4586 107.139 66.0127C101.819 90.6651 71.8254 98.3065 66.0382 97.37C65.6569 97.3066 63.2059 96.8542 63.1151 97.1664C63.0243 97.4831 65.3982 98.5282 67.5724 99.1615C68.2714 99.3651 70.4093 99.9533 74.2039 100.107C75.847 100.175 78.7338 100.279 82.4785 99.6637C87.0765 98.9127 90.7032 97.4514 93.1134 96.2706C94.3117 95.6824 96.4314 94.5649 98.8598 92.796C100.603 91.5247 103.485 89.2038 106.34 85.6387C107.883 83.7114 109.572 81.2321 111.042 78.1964C111.819 76.5948 113.975 71.8534 114.746 65.2436C115.028 62.8141 115.604 57.4665 113.952 50.9154C111.869 42.6768 107.411 37.0849 104.738 34.2301" fill="#2A1A3B"/>
<path d="M103.671 54.2274C105.854 54.2274 107.624 51.9709 107.624 49.1874C107.624 46.4039 105.854 44.1475 103.671 44.1475C101.488 44.1475 99.7175 46.4039 99.7175 49.1874C99.7175 51.9709 101.488 54.2274 103.671 54.2274Z" fill="#C3BAC7"/>
<path d="M100.108 61.8595C100.918 61.8595 101.574 60.9278 101.574 59.7784C101.574 58.629 100.918 57.6973 100.108 57.6973C99.2982 57.6973 98.6418 58.629 98.6418 59.7784C98.6418 60.9278 99.2982 61.8595 100.108 61.8595Z" fill="#C3BAC7"/>
<path d="M122.412 211.434L122.408 211.439V211.425L122.412 211.434ZM95.8366 221.03L96.5946 220.754L95.2102 216.945H95.2056V216.936L94.4476 217.212L94.0527 219.085L94.6836 219.555L94.9696 218.632L95.8366 221.03ZM91.0615 218.438L91.8195 218.162L94.4567 220.193L93.6805 220.474L92.3461 219.6L93.2085 221.98L92.4505 222.256L91.0661 218.451L91.0615 218.438ZM116.898 209.077C115.795 209.475 115.214 210.652 115.595 211.697C115.976 212.742 117.174 213.276 118.277 212.877C119.38 212.479 119.961 211.303 119.58 210.258C119.199 209.199 118.001 208.679 116.898 209.077ZM118.028 212.181C117.347 212.425 116.612 212.095 116.376 211.452C116.14 210.801 116.498 210.086 117.174 209.842C117.855 209.597 118.591 209.928 118.827 210.57C119.067 211.217 118.709 211.936 118.028 212.181ZM108.233 216.547L115.009 214.099L114.732 213.343L107.956 215.791L108.233 216.547ZM107.125 213.497L113.902 211.05L113.625 210.294L106.848 212.742L107.125 213.497ZM107.806 214.977L112.567 213.257L112.29 212.502L107.529 214.221L107.806 214.977ZM121.654 211.706L122.412 211.43L121.981 210.24L122.703 209.982C123.425 209.72 123.801 208.919 123.543 208.199C123.279 207.48 122.476 207.1 121.75 207.362L120.774 207.715L120.27 207.896L121.654 211.706ZM123.824 209.647C123.729 209.91 123.529 210.131 123.261 210.24L123.969 210.869L124.836 210.557L123.824 209.647ZM121.704 209.489L121.3 208.38L122.022 208.118C122.331 208.005 122.667 208.163 122.78 208.471C122.894 208.779 122.735 209.113 122.426 209.226L121.704 209.489ZM104.756 217.809L105.514 217.533L104.402 214.47L105.618 214.031L105.341 213.276L102.146 214.429L102.423 215.185L103.639 214.746L104.756 217.809ZM97.8519 216.845L100.453 215.904L100.176 215.149L97.575 216.09L97.8519 216.845ZM98.8913 219.922L98.9594 219.899L101.56 218.958L101.283 218.202L99.3724 218.895L99.091 218.121L101.007 217.429L100.73 216.673L98.8142 217.365L98.0561 217.641L98.8913 219.922Z" fill="#0F244E"/>
<path d="M133.293 206.752H133.116C132.88 206.752 132.73 206.512 132.848 206.317L132.907 206.222C132.961 206.132 133.066 206.077 133.175 206.077C133.411 206.077 133.56 206.317 133.442 206.512L133.293 206.752ZM127.151 206.752H126.684C126.448 206.752 126.298 206.512 126.416 206.317L128.949 202.173C129.003 202.083 129.108 202.028 129.217 202.028H129.502C129.739 202.028 129.888 202.268 129.77 202.463L127.151 206.752ZM127.937 208.968H127.469C127.233 208.968 127.083 208.729 127.201 208.534L130.474 203.177C130.528 203.087 130.633 203.033 130.742 203.033H131.028C131.264 203.033 131.413 203.272 131.295 203.467L127.937 208.968ZM130.474 208.326H130.006C129.77 208.326 129.621 208.086 129.739 207.892L132.603 203.209C132.657 203.119 132.761 203.064 132.87 203.064H133.156C133.392 203.064 133.542 203.304 133.424 203.499L130.474 208.326Z" fill="#0F244E"/>
</svg>
