<svg width="32" height="32" viewBox="0 0 32 32" fill="none" xmlns="http://www.w3.org/2000/svg">
<path d="M26.6292 9.7602V23.8302C26.6292 25.6963 25.1172 27.209 23.2511 27.209H19.219V18.8953H22.4745V15.5052H19.0979V13.1779C19.1114 13.08 19.1749 12.6966 19.515 12.4111C19.7586 12.2063 20.0202 12.157 20.1338 12.1421H22.4745V8.77891C21.219 8.81478 19.9634 8.85065 18.7078 8.88653C18.3894 8.94034 17.6249 9.11522 16.959 9.76095C15.9321 10.7564 15.956 12.0778 15.9635 12.3035V15.5321H13.0308V18.8415H15.9635V27.209H9.18035C7.31492 27.209 5.80225 25.6963 5.80225 23.8302V9.7602C5.80225 7.89402 7.31492 6.38135 9.18035 6.38135H23.2511C25.1172 6.38135 26.6292 7.89402 26.6292 9.7602Z" fill="#DAE0FF"/>
<path d="M23.2494 8.91602V12.2792H20.9087C20.7951 12.2941 20.5335 12.3434 20.2898 12.5482C19.9498 12.8337 19.8863 13.2171 19.8728 13.315C19.8728 14.0908 19.8728 14.8666 19.8728 15.6423H23.2494V19.0324H19.9939V27.3461H16.7383V18.9786H13.8057V15.6692H16.7383V12.4406C16.7309 12.2149 16.7069 10.8936 17.7338 9.89806C18.3997 9.25233 19.1643 9.07745 19.4827 9.02364C20.7383 8.98776 21.9938 8.95189 23.2494 8.91602Z" stroke="#070A12" stroke-width="0.299065" stroke-miterlimit="10"/>
<path d="M23.9136 27.3462H7.94233C6.07615 27.3462 4.56348 25.8335 4.56348 23.9673V7.99604C4.56348 6.12986 6.07615 4.61719 7.94233 4.61719H23.9136C25.7798 4.61719 27.2924 6.12986 27.2924 7.99604V23.9673C27.2917 25.8335 25.779 27.3462 23.9136 27.3462Z" stroke="#294898" stroke-width="0.299065" stroke-miterlimit="10"/>
</svg>
