<svg width="102" height="32" viewBox="0 0 102 32" fill="none" xmlns="http://www.w3.org/2000/svg">
<g clip-path="url(#clip0_2663_201989)">
<path d="M46.436 21.3516H48.5303V10.7216H46.436V21.3516Z" fill="#221C35"/>
<path d="M51.9629 12.7951V10.7236H42.9798V12.7951H51.9629Z" fill="#221C35"/>
<path d="M74.8467 12.7951V10.7236L55.872 10.7236V12.7951L74.8467 12.7951Z" fill="#221C35"/>
<path d="M74.8467 21.3537V19.2822H55.872V21.3537H74.8467Z" fill="#221C35"/>
<path d="M69.603 17.0895V15.0181H55.8725V17.0895H69.603Z" fill="#00CEB3"/>
<path d="M31.5513 21.3535H33.6455V17.0873H31.5513V21.3535Z" fill="#221C35"/>
<path d="M39.0352 12.7951V10.7236H31.5552V12.7951H39.0352Z" fill="#221C35"/>
<path d="M39.0332 17.089V15.0176H31.5532V17.089H39.0332Z" fill="#00CEB3"/>
<path d="M39.0332 21.3556V19.2842H31.5532V21.3556H39.0332Z" fill="#221C35"/>
<path d="M18.2607 10.7236H16.1665V21.3536H18.2607V10.7236Z" fill="#221C35"/>
<path d="M20.5703 14.3565L18.2627 10.7217H16.1685L19.543 16.0357C19.6714 15.8284 20.272 14.8384 20.5703 14.3546V14.3565Z" fill="#221C35"/>
<path d="M25.5122 21.3516H27.6064V10.7216H25.5122V21.3516Z" fill="#221C35"/>
<path d="M20.8369 18.083H22.933L27.6068 10.7236H25.5107L20.8369 18.083Z" fill="#00CEB3"/>
<path d="M84.0846 10.7832C81.1519 10.7832 78.7744 13.133 78.7744 16.03C78.7744 18.927 81.1519 21.2768 84.0846 21.2768C87.0173 21.2768 89.3948 18.927 89.3948 16.03C89.3948 13.133 87.0173 10.7832 84.0846 10.7832ZM84.0846 19.2352C82.2944 19.2352 80.8441 17.8007 80.8441 16.0319C80.8441 14.263 82.2944 12.8285 84.0846 12.8285C85.8748 12.8285 87.3251 14.263 87.3251 16.0319C87.3251 17.8007 85.8748 19.2352 84.0846 19.2352Z" fill="#221C35"/>
<path d="M93.3227 21.3516H95.417V10.7216H93.3227V21.3516Z" fill="#00CEB3"/>
<path d="M97.413 10.7236H95.4169V12.9202H97.413C98.2741 12.9202 98.9728 13.6095 98.9728 14.4612C98.9728 15.3129 98.2741 16.0022 97.413 16.0022H93.3208V18.1988H97.413C99.5015 18.1988 101.194 16.5252 101.194 14.4612C101.194 12.3972 99.4996 10.7236 97.413 10.7236Z" fill="#221C35"/>
<path d="M102.159 21.2787L100.378 18.4751C99.917 18.8449 99.3675 19.1102 98.7632 19.2334L100.062 21.2806H102.157L102.159 21.2787Z" fill="#221C35"/>
<path fill-rule="evenodd" clip-rule="evenodd" d="M1.59186 17.7973L5.56128 10.7368H3.81073L-0.158691 17.7973H1.59186Z" fill="url(#paint0_linear_2663_201989)"/>
<path fill-rule="evenodd" clip-rule="evenodd" d="M7.31549 10.7368L1.34814 21.3537H3.09869L9.06793 10.7368H7.31549Z" fill="url(#paint1_linear_2663_201989)"/>
<path fill-rule="evenodd" clip-rule="evenodd" d="M10.7994 10.7368L4.83203 21.3537H6.58258L12.5499 10.7368H10.7994Z" fill="url(#paint2_linear_2663_201989)"/>
<path fill-rule="evenodd" clip-rule="evenodd" d="M11.3225 16.0449L10.333 17.8026H12.0836L13.0731 16.0449H11.3225Z" fill="#00CEB3"/>
</g>
<defs>
<linearGradient id="paint0_linear_2663_201989" x1="1.18774" y1="17.646" x2="1.18774" y2="10.8283" gradientUnits="userSpaceOnUse">
<stop offset="0.36" stop-color="#221C35"/>
<stop offset="0.54" stop-color="#221C35" stop-opacity="0.81"/>
<stop offset="0.84" stop-color="#221C35" stop-opacity="0.31"/>
<stop offset="1" stop-color="#221C35" stop-opacity="0"/>
</linearGradient>
<linearGradient id="paint1_linear_2663_201989" x1="3.5047" y1="10.6808" x2="3.5047" y2="21.0754" gradientUnits="userSpaceOnUse">
<stop offset="0.13" stop-color="#221C35"/>
<stop offset="0.36" stop-color="#221C35" stop-opacity="0.81"/>
<stop offset="0.75" stop-color="#221C35" stop-opacity="0.31"/>
<stop offset="0.94" stop-color="#221C35" stop-opacity="0"/>
</linearGradient>
<linearGradient id="paint2_linear_2663_201989" x1="6.98859" y1="21.0996" x2="6.98859" y2="10.9124" gradientUnits="userSpaceOnUse">
<stop offset="0.41" stop-color="#221C35"/>
<stop offset="0.78" stop-color="#221C35" stop-opacity="0.31"/>
<stop offset="1" stop-color="#221C35" stop-opacity="0"/>
</linearGradient>
<clipPath id="clip0_2663_201989">
<rect width="102" height="32" fill="white"/>
</clipPath>
</defs>
</svg>
