<svg width="32" height="32" viewBox="0 0 32 32" fill="none" xmlns="http://www.w3.org/2000/svg">
<path d="M21.5274 26.341H10.4731C7.81413 26.341 5.65869 24.2868 5.65869 21.7528V10.2474C5.65869 7.71334 7.81413 5.65918 10.4731 5.65918H21.5274C24.1863 5.65918 26.3418 7.71334 26.3418 10.2474V21.7528C26.3418 24.2868 24.1863 26.341 21.5274 26.341Z" fill="#DAE0FF"/>
<path d="M16.0005 21.3812C18.8074 21.3812 21.0829 19.2126 21.0829 16.5375C21.0829 13.8624 18.8074 11.6938 16.0005 11.6938C13.1935 11.6938 10.918 13.8624 10.918 16.5375C10.918 19.2126 13.1935 21.3812 16.0005 21.3812Z" fill="white"/>
<path d="M22.5507 27.3642H9.44964C6.79069 27.3642 4.63525 25.3101 4.63525 22.7761V9.22343C4.63525 6.68942 6.79069 4.63525 9.44964 4.63525H22.5498C25.2088 4.63525 27.3642 6.68942 27.3642 9.22343V22.7753C27.365 25.3101 25.2096 27.3642 22.5507 27.3642Z" stroke="#294798" stroke-width="0.299065" stroke-miterlimit="10"/>
<path d="M16.0006 22.8331C19.6491 22.8331 22.6067 20.0144 22.6067 16.5374C22.6067 13.0604 19.6491 10.2417 16.0006 10.2417C12.3522 10.2417 9.39453 13.0604 9.39453 16.5374C9.39453 20.0144 12.3522 22.8331 16.0006 22.8331Z" stroke="#010202" stroke-width="0.299065" stroke-miterlimit="10"/>
<path d="M22.6063 10.2419C23.3864 10.2419 24.0187 9.63929 24.0187 8.89588C24.0187 8.15246 23.3864 7.5498 22.6063 7.5498C21.8262 7.5498 21.1938 8.15246 21.1938 8.89588C21.1938 9.63929 21.8262 10.2419 22.6063 10.2419Z" fill="#010202"/>
</svg>
