<svg width="32" height="32" viewBox="0 0 32 32" fill="none" xmlns="http://www.w3.org/2000/svg">
<path d="M25.4009 27.3642H6.59855C5.51418 27.3642 4.63525 26.4853 4.63525 25.4009V6.59855C4.63525 5.51418 5.51418 4.63525 6.59855 4.63525H25.4009C26.4853 4.63525 27.3642 5.51418 27.3642 6.59855V25.4009C27.3642 26.4853 26.4853 27.3642 25.4009 27.3642Z" stroke="#294998" stroke-width="0.299065" stroke-miterlimit="10"/>
<path d="M9.69551 11.9423C10.726 11.9423 11.5614 11.1069 11.5614 10.0764C11.5614 9.04585 10.726 8.21045 9.69551 8.21045C8.66499 8.21045 7.82959 9.04585 7.82959 10.0764C7.82959 11.1069 8.66499 11.9423 9.69551 11.9423Z" fill="#DAE0FF"/>
<path d="M11.3805 13.5254H8.0332V24.1781H11.3805V13.5254Z" fill="#DAE0FF"/>
<path d="M23.8651 18.192V24.178H20.5781V18.2071C20.5781 18.2021 20.5787 18.197 20.5787 18.192C20.6132 17.1454 19.794 16.2601 18.7743 16.2093C17.7176 16.1565 16.7928 17.0178 16.7784 18.1053V24.178H13.4009V13.5254H16.7784V14.9728C16.9932 14.6512 17.3652 14.1894 17.9545 13.8194C19.0131 13.1541 20.6911 12.838 22.0557 13.7063C23.2199 14.447 23.5579 15.6696 23.6389 16.0057C23.7068 16.3129 23.7671 16.6559 23.8085 17.031C23.855 17.4545 23.8695 17.8446 23.8651 18.192Z" fill="#DAE0FF"/>
<path d="M20.5787 18.1919C20.5787 18.1969 20.5781 18.2018 20.5781 18.2068V18.1919H20.5787Z" fill="#9BA6D4"/>
<path d="M10.4777 11.9423C11.5082 11.9423 12.3436 11.1069 12.3436 10.0764C12.3436 9.04585 11.5082 8.21045 10.4777 8.21045C9.44721 8.21045 8.61182 9.04585 8.61182 10.0764C8.61182 11.1069 9.44721 11.9423 10.4777 11.9423Z" stroke="#010202" stroke-width="0.299065" stroke-miterlimit="10"/>
<path d="M12.1633 13.5254H8.81592V24.1781H12.1633V13.5254Z" stroke="#010202" stroke-width="0.299065" stroke-miterlimit="10"/>
<path d="M24.6473 18.192V24.178H21.3603V18.2071C21.3603 18.2021 21.3609 18.197 21.3609 18.192C21.3955 17.1454 20.5762 16.2601 19.5566 16.2093C18.4998 16.1565 17.575 17.0178 17.5606 18.1053V24.178H14.1831V13.5254H17.5606V14.9728C17.7755 14.6512 18.1474 14.1894 18.7367 13.8194C19.7953 13.1541 21.4734 12.838 22.8379 13.7063C24.0021 14.447 24.3401 15.6696 24.4211 16.0057C24.489 16.3129 24.5493 16.6559 24.5908 17.031C24.6373 17.4545 24.6517 17.8446 24.6473 18.192Z" stroke="#010202" stroke-width="0.299065" stroke-miterlimit="10"/>
</svg>
