<svg width="32" height="32" viewBox="0 0 32 32" fill="none" xmlns="http://www.w3.org/2000/svg">
<path d="M24.8949 26.6104H7.12286C6.27032 26.6104 5.57861 25.9193 5.57861 25.0662V7.29474C5.57861 6.44219 6.26969 5.75049 7.12286 5.75049H24.8949C25.7474 5.75049 26.4392 6.44157 26.4392 7.29474V25.0662C26.4385 25.9193 25.7474 26.6104 24.8949 26.6104Z" fill="#DAE0FF"/>
<path d="M14.1722 13.4304V16.6872C13.0948 16.3373 11.9124 16.7802 11.3375 17.7427C10.7489 18.7278 10.943 20.0126 11.805 20.7885C12.5375 21.3966 13.5553 21.5317 14.4135 21.1353C15.2447 20.7514 15.795 19.9297 15.8384 19.0093C15.8384 15.0739 15.8384 11.1385 15.8384 7.20312H18.9595C18.9595 7.48898 18.9897 8.87931 20.0979 10.0227C21.2728 11.2353 22.7705 11.2528 23.0306 11.2516C23.0306 12.2844 23.0306 13.3173 23.0306 14.3501C22.3829 14.3382 21.3576 14.2301 20.2487 13.7018C19.6958 13.4385 19.2535 13.1332 18.9143 12.8574C18.9143 15.0814 18.9143 17.3054 18.9143 19.5295C18.4663 22.5941 15.724 24.7245 12.8906 24.4525C10.4071 24.2137 8.30559 22.1732 7.95063 19.5125C7.91733 19.1456 7.75964 17.0296 9.31708 15.2699C11.1899 13.1546 13.9065 13.4015 14.1722 13.4304Z" fill="white"/>
<path d="M15.0751 15.0683V16.387C15.0751 16.8752 14.6912 17.2766 14.2037 17.3005C13.4102 17.3401 12.6619 17.7667 12.2404 18.4722C11.6517 19.4573 11.8458 20.7421 12.7078 21.518C13.4403 22.1261 14.4581 22.2612 15.3163 21.8648C16.1475 21.4809 16.6978 20.6592 16.7412 19.7388V8.84798C16.7412 8.34287 17.1508 7.93262 17.6566 7.93262H19.0368C19.4785 7.93262 19.8536 8.24863 19.9365 8.68212C20.0471 9.2576 20.321 10.0511 21.0008 10.7522C21.7283 11.503 22.5796 11.7957 23.1846 11.9095C23.6187 11.9911 23.9334 12.3675 23.9334 12.8091V14.0744C23.9334 14.6417 23.4227 15.0746 22.8635 14.9766C22.3515 14.8868 21.7641 14.7228 21.1515 14.4313C21.1459 14.4288 21.1402 14.4262 21.1352 14.4231C20.5245 14.1303 19.8171 14.5676 19.8171 15.2449V20.1861C19.8171 20.2345 19.814 20.2835 19.8058 20.3312C19.3258 23.3575 16.6042 25.4521 13.7934 25.182C11.3099 24.9432 9.20843 22.9027 8.85346 20.242C8.82016 19.8751 8.66247 17.7591 10.2199 15.9994C11.4569 14.6015 13.0628 14.2353 14.0868 14.1561C14.6189 14.1146 15.0751 14.5343 15.0751 15.0683Z" stroke="black" stroke-width="0.224299" stroke-miterlimit="10"/>
<path d="M25.4014 27.3647H6.59904C5.51467 27.3647 4.63574 26.4858 4.63574 25.4014V6.59904C4.63574 5.51467 5.51467 4.63574 6.59904 4.63574H25.4014C26.4858 4.63574 27.3647 5.51467 27.3647 6.59904V25.4014C27.3647 26.4858 26.4858 27.3647 25.4014 27.3647Z" stroke="#284897" stroke-width="0.299065" stroke-miterlimit="10"/>
</svg>
