<svg width="32" height="32" viewBox="0 0 32 32" fill="none" xmlns="http://www.w3.org/2000/svg">
<path d="M25.4014 27.3647H6.59904C5.51467 27.3647 4.63574 26.4858 4.63574 25.4014V6.59904C4.63574 5.51467 5.51467 4.63574 6.59904 4.63574H25.4014C26.4858 4.63574 27.3647 5.51467 27.3647 6.59904V25.4014C27.3647 26.4858 26.4858 27.3647 25.4014 27.3647Z" stroke="#284897" stroke-width="0.299065" stroke-miterlimit="10"/>
<path d="M15.0982 14.7951C14.9569 13.5926 15.4859 12.424 16.4553 11.8096C17.6288 11.0657 19.2516 11.2567 20.3152 12.3223L22.0794 11.5985L21.1068 13.0787L22.396 12.8085C21.9738 13.2307 21.5517 13.6529 21.1295 14.0751C21.1502 14.6405 21.2212 18.1832 18.5178 20.6586C15.942 23.017 11.9004 23.4417 8.46387 21.6405C9.05568 21.6166 9.85105 21.5199 10.7407 21.2183C11.3607 21.0079 11.8753 20.7497 12.2786 20.5097C12.0298 20.4814 11.2797 20.3639 10.6351 19.7407C10.1357 19.2576 9.95032 18.7135 9.88121 18.459C10.2079 18.4289 10.5346 18.3987 10.8613 18.3686C10.549 18.1895 10.0502 17.8509 9.6098 17.2679C9.09275 16.5843 8.91118 15.9033 8.84082 15.5339C9.23285 15.5741 9.62488 15.6143 10.0169 15.6545C9.81713 15.4887 9.06448 14.8246 8.88605 13.6793C8.7447 12.7689 9.04437 12.0596 9.17254 11.7945C9.71598 12.458 10.8889 13.6925 12.7913 14.3578C13.674 14.6669 14.4769 14.7699 15.0982 14.7951Z" fill="#DAE0FF"/>
<path d="M16.2384 14.7951C16.097 13.5926 16.626 12.424 17.5954 11.8096C18.769 11.0657 20.3918 11.2567 21.4554 12.3223L23.2195 11.5985L22.247 13.0787L23.5362 12.8085C23.114 13.2307 22.6918 13.6529 22.2696 14.0751C22.2903 14.6405 22.3613 18.1832 19.658 20.6586C17.0821 23.017 13.0406 23.4417 9.604 21.6405C10.1958 21.6166 10.9912 21.5199 11.8808 21.2183C12.5009 21.0079 13.0154 20.7497 13.4188 20.5097C13.17 20.4814 12.4198 20.3639 11.7752 19.7407C11.2758 19.2576 11.0905 18.7135 11.0213 18.459C11.348 18.4289 11.6747 18.3987 12.0014 18.3686C11.6892 18.1895 11.1903 17.8509 10.7499 17.2679C10.2329 16.5843 10.0513 15.9033 9.98096 15.5339C10.373 15.5741 10.765 15.6143 11.157 15.6545C10.9573 15.4887 10.2046 14.8246 10.0262 13.6793C9.88483 12.7689 10.1845 12.0596 10.3127 11.7945C10.8561 12.458 12.0291 13.6925 13.9314 14.3578C14.8141 14.6669 15.617 14.7699 16.2384 14.7951Z" stroke="black" stroke-width="0.299065" stroke-miterlimit="10"/>
</svg>
