<svg width="32" height="32" viewBox="0 0 32 32" fill="none" xmlns="http://www.w3.org/2000/svg">
<g clip-path="url(#clip0_2881_207097)">
<path d="M29.4794 5.53046C30.1279 5.91029 30.5021 6.37405 30.6252 6.53564C31.096 7.15329 31.259 7.76465 31.3639 8.20603C31.8032 10.0597 31.8752 11.7315 31.8927 12.1848C31.9654 14.0783 31.9682 15.5235 31.9682 16.004C31.9675 17.4478 31.9032 18.5614 31.7752 20.7886C31.7605 21.0418 31.7297 21.5398 31.5989 22.182C31.4492 22.915 31.3079 23.6089 30.8183 24.3392C30.6406 24.6043 30.2412 25.1863 29.4794 25.6193C28.9611 25.9138 28.4764 26.0257 28.1637 26.0725C24.0863 26.4195 19.6361 26.6168 14.8614 26.5636C11.2492 26.5237 7.83424 26.3447 4.63755 26.0725C4.17938 26.0103 3.83732 25.8844 3.61348 25.783C3.49807 25.7305 3.40783 25.6822 3.36167 25.657C3.23086 25.5864 2.88391 25.3898 2.57264 25.1114C2.17812 24.7589 1.96058 24.3819 1.81298 24.121C1.60313 23.7502 1.30305 23.1116 1.17924 22.2239C0.951204 20.3402 0.795217 18.2242 0.784724 15.9117C0.773532 13.4082 0.935815 11.1299 1.17924 9.12097C1.2289 8.51381 1.44645 6.90707 2.71533 5.88091C3.00702 5.64518 3.34068 5.4738 3.34068 5.4738C3.43371 5.42484 3.81634 5.22688 4.36684 5.09607C4.65224 5.02822 5.05095 4.96177 5.5315 4.97016C9.46686 4.72954 13.6512 4.60363 18.0595 4.6428C21.3086 4.67148 24.4305 4.7876 27.4145 4.97016C27.8321 4.97366 28.6421 5.04011 29.4794 5.53046Z" fill="#DAE0FF"/>
<path d="M28.6953 6.32294C29.3437 6.70277 29.7179 7.16653 29.841 7.32812C30.3118 7.94577 30.4748 8.55713 30.5797 8.99851C31.019 10.8522 31.091 12.524 31.1085 12.9772C31.1813 14.8708 31.1841 16.3159 31.1841 16.7965C31.1834 18.2402 31.119 19.3538 30.991 21.581C30.9763 21.8343 30.9455 22.3323 30.8147 22.9744C30.665 23.7075 30.5237 24.4014 30.0341 25.1317C29.8564 25.3968 29.457 25.9788 28.6953 26.4118C28.1769 26.7062 27.6922 26.8182 27.3795 26.865C23.3021 27.212 18.852 27.4092 14.0772 27.3561C10.465 27.3162 7.05006 27.1371 3.85337 26.865C3.3952 26.8028 3.05314 26.6769 2.8293 26.5754C2.71389 26.523 2.62365 26.4747 2.57749 26.4495C2.44668 26.3789 2.09973 26.1823 1.78846 25.9039C1.39394 25.5514 1.1764 25.1743 1.0288 24.9134C0.818954 24.5427 0.518871 23.9041 0.39506 23.0164C0.167025 21.1327 0.0110371 19.0167 0.000544685 16.7042C-0.0106472 14.2007 0.151636 11.9224 0.39506 9.91345C0.444724 9.30629 0.662268 7.69955 1.93115 6.67339C2.22284 6.43766 2.5565 6.26628 2.5565 6.26628C2.64953 6.21732 3.03216 6.01936 3.58266 5.88855C3.86806 5.8207 4.26677 5.75425 4.74732 5.76264C8.68268 5.52202 12.8671 5.39611 17.2753 5.43528C20.5244 5.46396 23.6463 5.58008 26.6303 5.76264C27.0479 5.76544 27.858 5.83189 28.6953 6.32294Z" stroke="black" stroke-width="0.299065" stroke-miterlimit="10"/>
<path d="M13.644 10.5898L21.9541 14.9211L13.644 19.3028V10.5898Z" fill="white"/>
<path d="M13.2275 11.5107L21.5375 15.842L13.2275 20.2237V11.5107Z" stroke="black" stroke-width="0.299065" stroke-miterlimit="10"/>
</g>
<defs>
<clipPath id="clip0_2881_207097">
<rect width="32" height="32" fill="white"/>
</clipPath>
</defs>
</svg>
