<svg width="44" height="45" viewBox="0 0 44 45" fill="none" xmlns="http://www.w3.org/2000/svg">
    <circle cx="22" cy="22.5" r="22" fill="#5F76E9" />
    <path
        d="M29.9 24H14.1C12.6 24 12 24.64 12 26.23V30.27C12 31.86 12.6 32.5 14.1 32.5H29.9C31.4 32.5 32 31.86 32 30.27V26.23C32 24.64 31.4 24 29.9 24Z"
        fill="white" stroke="#5F76E9" stroke-width="1.5" stroke-linecap="round" stroke-linejoin="round" />
    <path
        d="M29.9 12.5H14.1C12.6 12.5 12 13.14 12 14.73V18.77C12 20.36 12.6 21 14.1 21H29.9C31.4 21 32 20.36 32 18.77V14.73C32 13.14 31.4 12.5 29.9 12.5Z"
        fill="white" stroke="#5F76E9" stroke-width="1.5" stroke-linecap="round" stroke-linejoin="round" />
</svg>