<svg width="28" height="28" viewBox="0 0 28 28" fill="none" xmlns="http://www.w3.org/2000/svg">
    <path
        d="M23.2163 15.75H4.78301C3.03301 15.75 2.33301 16.4967 2.33301 18.3517V23.065C2.33301 24.92 3.03301 25.6667 4.78301 25.6667H23.2163C24.9663 25.6667 25.6663 24.92 25.6663 23.065V18.3517C25.6663 16.4967 24.9663 15.75 23.2163 15.75Z"
        fill="#F3F6F9" stroke="#999FBB" stroke-width="1.5" stroke-linecap="round" stroke-linejoin="round" />
    <path
        d="M23.2163 2.33325H4.78301C3.03301 2.33325 2.33301 3.07992 2.33301 4.93492V9.64825C2.33301 11.5033 3.03301 12.2499 4.78301 12.2499H23.2163C24.9663 12.2499 25.6663 11.5033 25.6663 9.64825V4.93492C25.6663 3.07992 24.9663 2.33325 23.2163 2.33325Z"
        fill="#F3F6F9" stroke="#999FBB" stroke-width="1.5" stroke-linecap="round" stroke-linejoin="round" />
</svg>