<svg width="42" height="30" viewBox="0 0 42 30" fill="none" xmlns="http://www.w3.org/2000/svg">
<path d="M19.1654 29.6673H10.9154C8.13481 29.6673 5.75942 28.7048 3.7892 26.7798C1.81775 24.8548 0.832031 22.502 0.832031 19.7215C0.832031 17.3382 1.55009 15.2145 2.9862 13.3507C4.42231 11.4868 6.30148 10.2951 8.6237 9.77565C9.38759 6.96454 10.9154 4.68815 13.207 2.94648C15.4987 1.20482 18.0959 0.333984 20.9987 0.333984C24.5737 0.333984 27.606 1.57882 30.0957 4.06848C32.5866 6.55937 33.832 9.59232 33.832 13.1673C35.9404 13.4118 37.69 14.3205 39.0809 15.8935C40.4705 17.4677 41.1654 19.309 41.1654 21.4173C41.1654 23.709 40.3636 25.6572 38.76 27.262C37.1553 28.8655 35.207 29.6673 32.9154 29.6673H22.832V16.559L25.0584 18.7158C25.4507 19.0958 26.0752 19.0908 26.4613 18.7047L27.6249 17.5411C28.0155 17.1506 28.0155 16.5174 27.6249 16.1269L21.7058 10.2078C21.3153 9.81723 20.6821 9.81723 20.2916 10.2078L14.3725 16.1269C13.9819 16.5174 13.9819 17.1506 14.3725 17.5411L15.5361 18.7047C15.9222 19.0908 16.5467 19.0958 16.939 18.7158L19.1654 16.559V29.6673Z" fill="#EEEEF2"/>
</svg>
