<svg width="24" height="24" viewBox="0 0 24 24" fill="none" xmlns="http://www.w3.org/2000/svg">
<path d="M6.52094 16.2584C6.33094 16.2584 6.14094 16.1884 5.99094 16.0384C5.70094 15.7484 5.70094 15.2684 5.99094 14.9784L9.04094 11.9284C9.33094 11.6384 9.81094 11.6384 10.1009 11.9284C10.3909 12.2184 10.3909 12.6984 10.1009 12.9884L7.05094 16.0384C6.90094 16.1784 6.71094 16.2584 6.52094 16.2584Z" fill="#626B93"/>
<path d="M9.60219 16.2897C9.41219 16.2897 9.22219 16.2197 9.07219 16.0697L6.02219 13.0197C5.73219 12.7297 5.73219 12.2497 6.02219 11.9597C6.31219 11.6697 6.79219 11.6697 7.08219 11.9597L10.1322 15.0097C10.4222 15.2997 10.4222 15.7797 10.1322 16.0697C9.98219 16.2197 9.79219 16.2897 9.60219 16.2897Z" fill="#626B93"/>
<path d="M13.5413 15C12.9913 15 12.5312 14.55 12.5312 14C12.5312 13.45 12.9713 13 13.5213 13H13.5413C14.0913 13 14.5413 13.45 14.5413 14C14.5413 14.55 14.1013 15 13.5413 15Z" fill="#626B93"/>
<path d="M17.4788 15C16.9288 15 16.4688 14.55 16.4688 14C16.4688 13.45 16.9087 13 17.4587 13H17.4788C18.0288 13 18.4788 13.45 18.4788 14C18.4788 14.55 18.0288 15 17.4788 15Z" fill="#626B93"/>
<path d="M15.5 16.9709C14.95 16.9709 14.5 16.5309 14.5 15.9809V15.9609C14.5 15.4109 14.95 14.9609 15.5 14.9609C16.05 14.9609 16.5 15.4109 16.5 15.9609C16.5 16.5109 16.06 16.9709 15.5 16.9709Z" fill="#626B93"/>
<path d="M15.5 13.0334C14.95 13.0334 14.5 12.5934 14.5 12.0434V12.0234C14.5 11.4734 14.95 11.0234 15.5 11.0234C16.05 11.0234 16.5 11.4734 16.5 12.0234C16.5 12.5734 16.06 13.0334 15.5 13.0334Z" fill="#626B93"/>
<path d="M15 22.75H9C3.57 22.75 1.25 20.43 1.25 15V13C1.25 7.57 3.57 5.25 9 5.25H15C20.43 5.25 22.75 7.57 22.75 13V15C22.75 20.43 20.43 22.75 15 22.75ZM9 6.75C4.39 6.75 2.75 8.39 2.75 13V15C2.75 19.61 4.39 21.25 9 21.25H15C19.61 21.25 21.25 19.61 21.25 15V13C21.25 8.39 19.61 6.75 15 6.75H9Z" fill="#626B93"/>
<path d="M12.9922 6.75H11.9922C11.0322 6.75 10.2422 5.96 10.2422 5C10.2422 4.04 11.0222 3.25 11.9822 3.25C12.1422 3.25 12.2522 3.14 12.2622 3L12.2722 1.99C12.2822 1.58 12.6122 1.25 13.0222 1.25H13.0322C13.4422 1.26 13.7822 1.6 13.7722 2.01L13.7622 3.02C13.7522 3.97 12.9622 4.75 12.0122 4.75C11.8522 4.75 11.7522 4.86 11.7522 5C11.7522 5.14 11.8622 5.25 12.0022 5.25H13.0022C13.4122 5.25 13.7522 5.59 13.7522 6C13.7522 6.41 13.4022 6.75 12.9922 6.75Z" fill="#626B93"/>
</svg>
