<svg width="20" height="20" viewBox="0 0 20 20" fill="none" xmlns="http://www.w3.org/2000/svg">
<path d="M10 12.5C11.3807 12.5 12.5 11.3807 12.5 10C12.5 8.61929 11.3807 7.5 10 7.5C8.61929 7.5 7.5 8.61929 7.5 10C7.5 11.3807 8.61929 12.5 10 12.5Z" stroke="#D9D9D9" stroke-width="1.5" stroke-miterlimit="10" stroke-linecap="round" stroke-linejoin="round"/>
<path d="M1.66406 10.7338V9.26718C1.66406 8.40052 2.3724 7.68385 3.2474 7.68385C4.75573 7.68385 5.3724 6.61718 4.61406 5.30885C4.18073 4.55885 4.43906 3.58385 5.1974 3.15052L6.63906 2.32552C7.2974 1.93385 8.1474 2.16718 8.53906 2.82552L8.63073 2.98385C9.38073 4.29218 10.6141 4.29218 11.3724 2.98385L11.4641 2.82552C11.8557 2.16718 12.7057 1.93385 13.3641 2.32552L14.8057 3.15052C15.5641 3.58385 15.8224 4.55885 15.3891 5.30885C14.6307 6.61718 15.2474 7.68385 16.7557 7.68385C17.6224 7.68385 18.3391 8.39218 18.3391 9.26718V10.7338C18.3391 11.6005 17.6307 12.3172 16.7557 12.3172C15.2474 12.3172 14.6307 13.3838 15.3891 14.6922C15.8224 15.4505 15.5641 16.4172 14.8057 16.8505L13.3641 17.6755C12.7057 18.0672 11.8557 17.8339 11.4641 17.1755L11.3724 17.0172C10.6224 15.7089 9.38906 15.7089 8.63073 17.0172L8.53906 17.1755C8.1474 17.8339 7.2974 18.0672 6.63906 17.6755L5.1974 16.8505C4.43906 16.4172 4.18073 15.4422 4.61406 14.6922C5.3724 13.3838 4.75573 12.3172 3.2474 12.3172C2.3724 12.3172 1.66406 11.6005 1.66406 10.7338Z" stroke="#D9D9D9" stroke-width="1.5" stroke-miterlimit="10" stroke-linecap="round" stroke-linejoin="round"/>
</svg>
