<svg viewBox="0 0 24 25" fill="none" xmlns="http://www.w3.org/2000/svg">
<path d="M23 16.4688C23 20.3387 19.87 23.4688 16 23.4688L17.05 21.7188" stroke="#626B93" stroke-width="1.5" stroke-linecap="round" stroke-linejoin="round"/>
<path d="M1 8.46875C1 4.59875 4.13 1.46875 8 1.46875L6.95 3.21875" stroke="#626B93" stroke-width="1.5" stroke-linecap="round" stroke-linejoin="round"/>
<path d="M6.62109 13.5703H9.4311C10.0511 13.5703 10.5611 14.1303 10.5611 14.7003C10.5611 15.3203 10.0611 15.8303 9.4311 15.8303H6.62109V13.5703Z" stroke="#626B93" stroke-width="1.5" stroke-miterlimit="10" stroke-linecap="round" stroke-linejoin="round"/>
<path d="M6.62109 15.8281H9.84109C10.5511 15.8281 11.1311 16.3281 11.1311 16.9581C11.1311 17.5781 10.5511 18.0881 9.84109 18.0881H6.62109V15.8281Z" stroke="#626B93" stroke-width="1.5" stroke-miterlimit="10" stroke-linecap="round" stroke-linejoin="round"/>
<path d="M8.42188 18.0781V19.1981" stroke="#626B93" stroke-width="1.5" stroke-miterlimit="10" stroke-linecap="round" stroke-linejoin="round"/>
<path d="M8.42188 12.4492V13.5692" stroke="#626B93" stroke-width="1.5" stroke-miterlimit="10" stroke-linecap="round" stroke-linejoin="round"/>
<path d="M14.8498 15.8302C14.8498 19.2402 12.0898 22.0002 8.67977 22.0002C5.26977 22.0002 2.50977 19.2402 2.50977 15.8302C2.50977 12.4202 5.26977 9.66016 8.67977 9.66016C8.83977 9.66016 8.98977 9.67018 9.15977 9.68018C12.1898 9.91018 14.6098 12.3302 14.8398 15.3602C14.8398 15.5102 14.8498 15.6602 14.8498 15.8302Z" stroke="#626B93" stroke-width="1.5" stroke-miterlimit="10" stroke-linecap="round" stroke-linejoin="round"/>
<path d="M21.5002 9.16998C21.5002 12.58 18.7402 15.34 15.3302 15.34H14.8402C14.6102 12.31 12.1902 9.88997 9.16016 9.65997V9.16998C9.16016 5.75998 11.9202 3 15.3302 3C18.7402 3 21.5002 5.75998 21.5002 9.16998Z" stroke="#626B93" stroke-width="1.5" stroke-miterlimit="10" stroke-linecap="round" stroke-linejoin="round"/>
</svg>
