<svg width="24" height="24" viewBox="0 0 24 24" fill="none" xmlns="http://www.w3.org/2000/svg">
<path d="M8.85 19.2857H5C3.89543 19.2857 3 18.3903 3 17.2857V5C3 3.89543 3.89543 3 5 3H14.5C15.6046 3 16.5 3.89543 16.5 5V8.88095" stroke="#626B93" stroke-width="1.5"/>
<path d="M21.0002 15.8572C21.0002 18.696 18.581 21 15.6002 21C12.6194 21 10.2002 18.696 10.2002 15.8572C10.2002 13.0183 12.6194 10.7143 15.6002 10.7143C18.581 10.7143 21.0002 13.0183 21.0002 15.8572Z" stroke="#626B93" stroke-width="1.5" stroke-linecap="round" stroke-linejoin="round"/>
<path d="M17.4001 17.5714L16.0325 16.5377C15.7942 16.3589 15.6001 15.9287 15.6001 15.5766V13.2857" stroke="#626B93" stroke-width="1.5" stroke-linecap="round" stroke-linejoin="round"/>
<line x1="6.4502" y1="6.53571" x2="11.2502" y2="6.53571" stroke="#626B93" stroke-width="1.5" stroke-linecap="round"/>
<line x1="6.4502" y1="9.96429" x2="8.5502" y2="9.96429" stroke="#626B93" stroke-width="1.5" stroke-linecap="round"/>
</svg>
