<svg width="32" height="32" viewBox="0 0 32 32" fill="none" xmlns="http://www.w3.org/2000/svg">
<path fill-rule="evenodd" clip-rule="evenodd" d="M23.5162 7.27342H10.5869V26.0209H23.5162V7.27342ZM9.94043 6.62695V26.6674H24.1627V6.62695H9.94043Z" fill="black"/>
<path d="M8 5.33398H22.2222V24.7279H8V5.33398Z" fill="#BAD0EE"/>
<path d="M10.9196 10.6922C10.7887 10.6922 10.661 10.6769 10.5364 10.6463C10.4119 10.614 10.2984 10.5741 10.1959 10.5265C10.0934 10.4772 10.0082 10.427 9.94043 10.376C9.94201 10.3284 9.95147 10.2791 9.96881 10.2281C9.98616 10.1771 10.0082 10.1295 10.035 10.0853C10.0634 10.0411 10.0934 10.0079 10.1249 9.98583C10.2321 10.0623 10.3559 10.1295 10.4962 10.1873C10.6366 10.2451 10.7769 10.274 10.9172 10.274C11.0544 10.2757 11.1687 10.2442 11.2602 10.1796C11.3516 10.115 11.3973 10.0232 11.3973 9.90422C11.4005 9.80732 11.3737 9.72231 11.3169 9.64921C11.2617 9.5744 11.1734 9.51405 11.052 9.46815L10.5861 9.28963C10.4142 9.22503 10.2786 9.13238 10.1793 9.01167C10.08 8.88926 10.0303 8.73795 10.0303 8.55774C10.0303 8.40133 10.0666 8.26107 10.1391 8.13696C10.2132 8.01116 10.3165 7.91255 10.4489 7.84115C10.583 7.76804 10.7391 7.73149 10.9172 7.73149C11.0907 7.73149 11.2523 7.75444 11.4021 7.80034C11.5519 7.84625 11.6827 7.9015 11.7947 7.9661C11.7947 8.03581 11.7789 8.10721 11.7474 8.18032C11.7158 8.25172 11.6756 8.31122 11.6268 8.35883C11.5195 8.29422 11.4076 8.24407 11.2909 8.20837C11.1758 8.17097 11.0607 8.15226 10.9456 8.15226C10.8116 8.15226 10.7044 8.18457 10.6239 8.24917C10.5435 8.31207 10.5033 8.39708 10.5033 8.50419C10.5033 8.60619 10.5341 8.68355 10.5956 8.73625C10.6586 8.78725 10.7398 8.83231 10.8392 8.87141L11.2767 9.03972C11.4612 9.11112 11.6078 9.21483 11.7166 9.35084C11.8254 9.48515 11.8798 9.66026 11.8798 9.87617C11.8798 10.0343 11.8404 10.1745 11.7616 10.2969C11.6843 10.4194 11.5739 10.5163 11.4305 10.5877C11.287 10.6574 11.1167 10.6922 10.9196 10.6922ZM10.8912 11.1512C10.8565 11.1512 10.8218 11.1495 10.7871 11.1461C10.754 11.1444 10.7256 11.1402 10.702 11.1334V10.5596H11.078V11.1334C11.056 11.1402 11.0276 11.1444 10.9929 11.1461C10.9598 11.1495 10.9259 11.1512 10.8912 11.1512ZM10.7493 7.8845V7.29286C10.7761 7.28606 10.8061 7.28096 10.8392 7.27756C10.8739 7.27416 10.907 7.27246 10.9385 7.27246C10.9716 7.27246 11.0047 7.27416 11.0378 7.27756C11.071 7.28096 11.1001 7.28606 11.1254 7.29286V7.8845H10.7493Z" fill="black"/>
<path fill-rule="evenodd" clip-rule="evenodd" d="M20.9308 8.88963H13.8197V8.24316H20.9308V8.88963ZM20.9308 11.4755H12.5268V10.829H20.9308V11.4755ZM20.9308 14.0613H9.29443V13.4149H20.9308V14.0613ZM20.9308 16.6472H9.29443V16.0007H20.9308V16.6472ZM20.9308 19.2331H9.29443V18.5866H20.9308V19.2331Z" fill="black"/>
</svg>
