<svg width="32" height="32" viewBox="0 0 32 32" fill="none" xmlns="http://www.w3.org/2000/svg">
<path fill-rule="evenodd" clip-rule="evenodd" d="M23.5162 7.27342H10.5869V26.0209H23.5162V7.27342ZM9.94043 6.62695V26.6674H24.1627V6.62695H9.94043Z" fill="black"/>
<path d="M8 5.33398H22.2222V24.7279H8V5.33398Z" fill="#D9261F"/>
<path fill-rule="evenodd" clip-rule="evenodd" d="M20.9308 8.88963H13.8197V8.24316H20.9308V8.88963ZM20.9308 11.4755H12.5268V10.829H20.9308V11.4755ZM20.9308 14.0613H9.29443V13.4149H20.9308V14.0613ZM20.9308 16.6472H9.29443V16.0007H20.9308V16.6472ZM20.9308 19.2331H9.29443V18.5866H20.9308V19.2331Z" fill="white"/>
<path d="M9 10L10.0966 8.47429L9.03382 7H9.84058L10.4976 8.00714L11.1594 7H11.9614L10.8986 8.47429L12 10H11.2415C10.9903 9.64429 10.744 9.28429 10.4976 8.92857L9.75845 10H9Z" fill="white"/>
</svg>
