<svg width="24" height="24" viewBox="0 0 24 24" fill="none" xmlns="http://www.w3.org/2000/svg">
<path d="M19.0612 18.6703L16.9212 14.4004L14.7812 18.6703" stroke="#231C35" stroke-width="1.5" stroke-linecap="round" stroke-linejoin="round"/>
<path d="M15.1719 17.9102H18.6919" stroke="#231C35" stroke-width="1.5" stroke-linecap="round" stroke-linejoin="round"/>
<path d="M16.9238 21.9998C14.1238 21.9998 11.8438 19.7298 11.8438 16.9198C11.8438 14.1198 14.1138 11.8398 16.9238 11.8398C19.7238 11.8398 22.0038 14.1098 22.0038 16.9198C22.0038 19.7298 19.7338 21.9998 16.9238 21.9998Z" stroke="#231C35" stroke-width="1.5" stroke-linecap="round" stroke-linejoin="round"/>
<path d="M5.02 2H8.94C11.01 2 12.01 3.00002 11.96 5.02002V8.94C12.01 11.01 11.01 12.01 8.94 11.96H5.02C3 12 2 11 2 8.92999V5.01001C2 3.00001 3 2 5.02 2Z" stroke="#231C35" stroke-width="1.5" stroke-linecap="round" stroke-linejoin="round"/>
<path d="M9.01312 5.84961H4.95312" stroke="#231C35" stroke-width="1.5" stroke-linecap="round" stroke-linejoin="round"/>
<path d="M6.96875 5.16992V5.84991" stroke="#231C35" stroke-width="1.5" stroke-linecap="round" stroke-linejoin="round"/>
<path d="M7.9875 5.83984C7.9875 7.58984 6.6175 9.00983 4.9375 9.00983" stroke="#231C35" stroke-width="1.5" stroke-linecap="round" stroke-linejoin="round"/>
<path d="M9.00624 9.01001C8.27624 9.01001 7.61625 8.62 7.15625 8" stroke="#231C35" stroke-width="1.5" stroke-linecap="round" stroke-linejoin="round"/>
<path d="M2 15C2 18.87 5.13 22 9 22L7.95 20.25" stroke="#231C35" stroke-width="1.5" stroke-linecap="round" stroke-linejoin="round"/>
<path d="M22 9C22 5.13 18.87 2 15 2L16.05 3.75" stroke="#231C35" stroke-width="1.5" stroke-linecap="round" stroke-linejoin="round"/>
</svg>
