<svg xmlns="http://www.w3.org/2000/svg" width="24" height="24" viewBox="0 0 24 24" fill="none">
  <path d="M9.66398 5.5V9C9.66398 10.3333 8.99732 10.1667 7.66398 10.1667H4.99732C3.66398 10.1667 3 10.3333 3 9L2.99732 5.5C2.99732 4.16667 2.66653 3.5 3.99987 3.5H8.49732C9.83065 3.5 9.66398 4.16667 9.66398 5.5Z" stroke="#231C35" stroke-width="1.5" stroke-linecap="round" stroke-linejoin="round"/>
  <path d="M9.66667 15.5V19.5C9.66667 20.8333 9 20.8327 7.66667 20.8327H5C3.66667 20.8327 3 20.8333 3 19.5V15.5C3 14.1667 3.66667 14.166 5 14.166H7.66667C9 14.166 9.66667 14.1667 9.66667 15.5Z" stroke="#231C35" stroke-width="1.5" stroke-linecap="round" stroke-linejoin="round"/>
  <path fill-rule="evenodd" clip-rule="evenodd" d="M12.9936 5C12.9936 4.44772 12.9404 4 13.4926 4H20.5C21.0523 4 20.9936 4.44772 20.9936 5C20.9936 5.55228 21.0523 6 20.5 6H13.4926C12.9403 6 12.9936 5.55228 12.9936 5Z" fill="#231C35"/>
  <path fill-rule="evenodd" clip-rule="evenodd" d="M12.9931 9C12.9931 8.44772 12.9478 8 13.5 8H20.5C21.0523 8 20.9931 8.44772 20.9931 9C20.9931 9.55228 21.0523 10 20.5 10H13.5C12.9478 10 12.9931 9.55228 12.9931 9Z" fill="#231C35"/>
  <path fill-rule="evenodd" clip-rule="evenodd" d="M13.0014 15.5C13.0014 14.9477 12.9478 14.5 13.5001 14.5H20.5C21.0523 14.5 21.0014 14.9477 21.0014 15.5C21.0014 16.0523 21.0523 16.5 20.5 16.5H13.5001C12.9478 16.5 13.0014 16.0523 13.0014 15.5Z" fill="#231C35"/>
  <path fill-rule="evenodd" clip-rule="evenodd" d="M13.0014 19.5C13.0014 18.9477 12.9478 18.5 13.5001 18.5H20.5C21.0523 18.5 21.0014 18.9477 21.0014 19.5C21.0014 20.0523 21.0523 20.5 20.5 20.5H13.5001C12.9478 20.5 13.0014 20.0523 13.0014 19.5Z" fill="#231C35"/>
</svg>