<svg width="712" height="426" viewBox="0 0 712 426" fill="none" xmlns="http://www.w3.org/2000/svg">
<path d="M564.264 306.013C549.073 191.91 449.451 107.79 337.495 111.449C230.748 114.941 139.664 197.345 125.309 306.013H564.264Z" fill="#00CFB4" stroke="black" stroke-width="1.065" stroke-miterlimit="10"/>
<path d="M320.643 170.684V226.451H314.108L283.719 182.665H283.174V226.451H276.421V170.684H282.956L313.454 214.579H313.999V170.684H320.643ZM334.156 226.451V170.684H367.594V176.675H340.909V195.518H365.089V201.508H340.909V226.451H334.156ZM376.11 176.675V170.684H417.936V176.675H400.4V226.451H393.647V176.675H376.11Z" fill="black"/>
<path d="M324.49 167.332V223.1H317.955L287.566 179.314H287.022V223.1H280.269V167.332H286.804L317.302 211.227H317.846V167.332H324.49ZM338.003 223.1V167.332H371.442V173.323H344.756V192.166H368.937V198.157H344.756V223.1H338.003ZM379.958 173.323V167.332H421.784V173.323H404.247V223.1H397.494V173.323H379.958Z" fill="white"/>
<path d="M324.49 167.332H324.57V167.252H324.49V167.332ZM324.49 223.1V223.179H324.57V223.1H324.49ZM317.955 223.1L317.89 223.145L317.913 223.179H317.955V223.1ZM287.566 179.314L287.632 179.268L287.608 179.234H287.566V179.314ZM287.022 179.314V179.234H286.942V179.314H287.022ZM287.022 223.1V223.179H287.102V223.1H287.022ZM280.269 223.1H280.189V223.179H280.269V223.1ZM280.269 167.332V167.252H280.189V167.332H280.269ZM286.804 167.332L286.87 167.287L286.846 167.252H286.804V167.332ZM317.302 211.227L317.236 211.273L317.26 211.307H317.302V211.227ZM317.846 211.227V211.307H317.926V211.227H317.846ZM317.846 167.332V167.252H317.766V167.332H317.846ZM324.411 167.332V223.1H324.57V167.332H324.411ZM324.49 223.02H317.955V223.179H324.49V223.02ZM318.021 223.054L287.632 179.268L287.501 179.359L317.89 223.145L318.021 223.054ZM287.566 179.234H287.022V179.393H287.566V179.234ZM286.942 179.314V223.1H287.102V179.314H286.942ZM287.022 223.02H280.269V223.179H287.022V223.02ZM280.349 223.1V167.332H280.189V223.1H280.349ZM280.269 167.412H286.804V167.252H280.269V167.412ZM286.738 167.378L317.236 211.273L317.367 211.182L286.87 167.287L286.738 167.378ZM317.302 211.307H317.846V211.147H317.302V211.307ZM317.926 211.227V167.332H317.766V211.227H317.926ZM317.846 167.412H324.49V167.252H317.846V167.412ZM338.003 223.1H337.923V223.179H338.003V223.1ZM338.003 167.332V167.252H337.923V167.332H338.003ZM371.442 167.332H371.522V167.252H371.442V167.332ZM371.442 173.323V173.403H371.522V173.323H371.442ZM344.756 173.323V173.243H344.677V173.323H344.756ZM344.756 192.166H344.677V192.246H344.756V192.166ZM368.937 192.166H369.017V192.086H368.937V192.166ZM368.937 198.157V198.237H369.017V198.157H368.937ZM344.756 198.157V198.077H344.677V198.157H344.756ZM344.756 223.1V223.179H344.836V223.1H344.756ZM338.083 223.1V167.332H337.923V223.1H338.083ZM338.003 167.412H371.442V167.252H338.003V167.412ZM371.362 167.332V173.323H371.522V167.332H371.362ZM371.442 173.243H344.756V173.403H371.442V173.243ZM344.677 173.323V192.166H344.836V173.323H344.677ZM344.756 192.246H368.937V192.086H344.756V192.246ZM368.857 192.166V198.157H369.017V192.166H368.857ZM368.937 198.077H344.756V198.237H368.937V198.077ZM344.677 198.157V223.1H344.836V198.157H344.677ZM344.756 223.02H338.003V223.179H344.756V223.02ZM379.958 173.323H379.878V173.403H379.958V173.323ZM379.958 167.332V167.252H379.878V167.332H379.958ZM421.784 167.332H421.863V167.252H421.784V167.332ZM421.784 173.323V173.403H421.863V173.323H421.784ZM404.247 173.323V173.243H404.168V173.323H404.247ZM404.247 223.1V223.179H404.327V223.1H404.247ZM397.494 223.1H397.414V223.179H397.494V223.1ZM397.494 173.323H397.574V173.243H397.494V173.323ZM380.038 173.323V167.332H379.878V173.323H380.038ZM379.958 167.412H421.784V167.252H379.958V167.412ZM421.704 167.332V173.323H421.863V167.332H421.704ZM421.784 173.243H404.247V173.403H421.784V173.243ZM404.168 173.323V223.1H404.327V173.323H404.168ZM404.247 223.02H397.494V223.179H404.247V223.02ZM397.574 223.1V173.323H397.414V223.1H397.574ZM397.494 173.243H379.958V173.403H397.494V173.243Z" fill="#000A3D"/>
<path d="M581.434 301.365L659.348 371.23" stroke="black" stroke-width="0.3195" stroke-linecap="round"/>
<path d="M564.012 301.365L636.548 371.23" stroke="black" stroke-width="0.3195" stroke-linecap="round"/>
<path d="M420.598 301.275L444.69 371.064" stroke="black" stroke-width="0.3195" stroke-linecap="round"/>
<path d="M421.035 371.231L402.836 301.275" stroke="black" stroke-width="0.3195" stroke-linecap="round"/>
<path d="M384.824 301.275L397.007 371.079" stroke="black" stroke-width="0.3195" stroke-linecap="round"/>
<path d="M372.611 371.064L368.176 301.275" stroke="black" stroke-width="0.3195" stroke-linecap="round"/>
<path d="M324.508 371.232L329.414 301.443" stroke="black" stroke-width="0.3195" stroke-linecap="round"/>
<path d="M312.802 301.443L300.938 371.232" stroke="black" stroke-width="0.3195" stroke-linecap="round"/>
<path d="M276.812 371.231L294.95 301.275" stroke="black" stroke-width="0.3195" stroke-linecap="round"/>
<path d="M113.223 301.275L34.0938 371.201" stroke="black" stroke-width="0.3195" stroke-linecap="round"/>
<path d="M61.625 371.231L128.677 301.275" stroke="black" stroke-width="0.3195" stroke-linecap="round"/>
<path d="M601.79 301.275H97.5749L11.8984 371.231H690.748L601.79 301.275Z" fill="white" stroke="#000A3D" stroke-width="0.8"/>
<path d="M612.164 371.23L547.391 301.365" stroke="#000A3D" stroke-width="0.8"/>
<path d="M527.23 301.275L586.125 371.231" stroke="#000A3D" stroke-width="0.8"/>
<path d="M561.474 371.23L510.934 301.365" stroke="#000A3D" stroke-width="0.8"/>
<path d="M490.148 301.365L538.85 371.23" stroke="#000A3D" stroke-width="0.8"/>
<path d="M519.58 371.231L474.145 301.275" stroke="#000A3D" stroke-width="0.8"/>
<path d="M454.242 301.275L492.645 371.125" stroke="#000A3D" stroke-width="0.8"/>
<path d="M469.962 371.231L438.289 301.275" stroke="#000A3D" stroke-width="0.8"/>
<path d="M668.978 354.289H32.6484" stroke="#000A3D" stroke-width="0.8"/>
<path d="M652.54 341.172L50.4961 339.715" stroke="#000A3D" stroke-width="0.8"/>
<path d="M66.7812 326.416H633.674" stroke="#000A3D" stroke-width="0.8"/>
<path d="M618.941 314.756H81.0625" stroke="#000A3D" stroke-width="0.8"/>
<path d="M434.81 371.596L425.832 301.443" stroke="#000A3D" stroke-width="0.8"/>
<path d="M403.789 371.233V302.006" stroke="#000A3D" stroke-width="0.8"/>
<path d="M376.551 371.231L384.83 301.275" stroke="#000A3D" stroke-width="0.8"/>
<path d="M348.434 371.231L366.845 301.275" stroke="#000A3D" stroke-width="0.8"/>
<path d="M319.445 371.063L343.325 298.951" stroke="#000A3D" stroke-width="0.8"/>
<path d="M289.184 371.064L319.444 297.449" stroke="#000A3D" stroke-width="0.8"/>
<path d="M256.742 371.064L298.122 295.264" stroke="#000A3D" stroke-width="0.8"/>
<path d="M58.957 371.231C77.7937 347.913 96.6304 324.594 115.467 301.275" stroke="#000A3D" stroke-width="0.8"/>
<path d="M98.1523 371.262L135.704 301.275" stroke="black" stroke-width="0.26625"/>
<path d="M136.25 371.262L168.151 301.275" stroke="black" stroke-width="0.26625"/>
<path d="M579.793 301.275L648.304 371.125" stroke="#000A3D" stroke-width="0.8"/>
<path d="M119.106 311.752L207.289 272.371C208.535 273.176 210.646 274.33 213.502 274.906C214.398 275.089 217.315 275.59 220.961 274.77C224.926 273.889 227.645 271.901 229.027 270.747C231.61 268.591 235.179 268.303 237.762 269.957C240.77 271.87 240.982 275.453 240.998 275.802C241.013 276.197 241.18 278.474 243.109 280.098C244.78 281.51 246.664 281.51 247.135 281.51C254.806 281.935 260.214 280.448 263.799 278.945C266.883 277.654 269.708 275.908 273.233 276.637C276.271 277.275 278.413 279.476 279.749 281.237C279.932 281.601 281.025 283.757 283.623 284.562C286.023 285.306 287.998 284.364 288.408 284.152C289.365 283.833 290.702 283.529 292.282 283.605C296.429 283.803 299.163 286.444 299.938 287.249C300.819 298.088 298.48 301.884 296.156 303.326C294.029 304.647 290.96 304.586 289.517 307.121C288.575 308.791 288.818 310.704 289.107 311.903C289.213 312.177 290.413 315.547 288.256 318.598C286.008 321.756 282.241 321.62 281.998 321.604C280.752 321.665 279.157 321.893 277.425 322.591C272.731 324.489 270.483 328.436 269.769 329.833C267.065 335.829 264.574 340.08 262.827 342.782C261.991 344.073 261.293 345.105 260.366 346.229C259.804 346.927 257.48 349.735 253.287 352.817C248.38 356.415 243.367 358.586 239.737 359.877C239.691 359.892 239.63 359.907 239.585 359.937C237.686 360.636 235.863 362.123 235.529 364.006C235.134 366.283 236.911 367.923 237.018 368.029C238.643 369.213 240.223 370.063 241.833 371.232C189.668 371.369 137.487 371.111 85.3216 371.232C84.9418 366.298 85.1545 362.989 85.3823 360.211C85.9748 352.848 86.7951 342.539 93.7525 333.749C95.9704 330.941 98.2338 329.043 99.6921 327.92C105.981 322.91 112.27 317.9 118.559 312.89" fill="#F9FCFF"/>
<path d="M119.106 311.752L207.289 272.371C208.535 273.176 210.646 274.33 213.502 274.906C214.398 275.089 217.315 275.59 220.961 274.77C224.926 273.889 227.645 271.901 229.027 270.747C231.61 268.591 235.179 268.303 237.762 269.957C240.77 271.87 240.982 275.453 240.998 275.802C241.013 276.197 241.18 278.474 243.109 280.098C244.78 281.51 246.664 281.51 247.135 281.51C254.806 281.935 260.214 280.448 263.799 278.945C266.883 277.654 269.708 275.908 273.233 276.637C276.271 277.275 278.413 279.476 279.749 281.237C279.932 281.601 281.025 283.757 283.623 284.562C286.023 285.306 287.998 284.364 288.408 284.152C289.365 283.833 290.702 283.529 292.282 283.605C296.429 283.803 299.163 286.444 299.938 287.249C300.819 298.088 298.48 301.884 296.156 303.326C294.029 304.647 290.96 304.586 289.517 307.121C288.575 308.791 288.818 310.704 289.107 311.903C289.213 312.177 290.413 315.547 288.256 318.598C286.008 321.756 282.241 321.62 281.998 321.604C280.752 321.665 279.157 321.893 277.425 322.591C272.731 324.489 270.483 328.436 269.769 329.833C267.065 335.829 264.574 340.08 262.827 342.782C261.991 344.073 261.293 345.105 260.366 346.229C259.804 346.927 257.48 349.735 253.287 352.817C248.38 356.415 243.367 358.586 239.737 359.877C239.691 359.892 239.63 359.907 239.585 359.937C237.686 360.636 235.863 362.123 235.529 364.006C235.134 366.283 236.911 367.923 237.018 368.029C238.643 369.213 240.223 370.063 241.833 371.232C189.668 371.369 137.487 371.111 85.3216 371.232C84.9418 366.298 85.1545 362.989 85.3823 360.211C85.9748 352.848 86.7951 342.539 93.7525 333.749C95.9704 330.941 98.2338 329.043 99.6921 327.92C105.981 322.91 112.27 317.9 118.559 312.89" stroke="black" stroke-width="1.065" stroke-linecap="round"/>
<path d="M118.824 312.345C118.55 312.148 118.474 311.799 118.368 311.237C118.216 310.417 118.14 310.007 118.14 309.947C118.019 308.58 117.943 307.73 118.019 306.485C118.079 305.726 118.17 304.481 118.672 302.948C118.93 302.143 119.264 301.172 120.054 300.155C120.798 299.198 121.421 298.879 121.619 298.788C121.816 298.697 122.394 298.424 123.183 298.393C124.125 298.348 124.839 298.652 125.432 298.91C125.903 299.107 126.176 299.471 126.328 299.365C126.449 299.289 126.374 299.046 126.343 298.712C126.298 298.135 126.434 298.044 126.723 296.602C126.86 295.873 126.814 295.964 126.951 295.327C127.027 294.962 127.148 294.37 127.346 293.763C127.634 292.883 127.969 292.26 128.272 291.698C129.078 290.226 129.943 289.239 130.202 288.951C130.824 288.252 131.432 287.721 131.933 287.326C132.237 287.083 132.739 286.704 133.422 286.294C133.817 286.051 134.607 285.611 135.686 285.186C136.081 285.034 137.189 284.624 138.678 284.381C138.8 284.366 138.906 284.351 138.967 284.336C138.997 284.229 139.028 284.077 139.073 283.895C139.134 283.592 139.195 283.303 139.195 283C139.195 282.924 139.195 282.772 139.058 282.149C138.891 281.36 138.8 280.965 138.633 280.692C138.526 280.51 138.39 280.358 138.131 280.039C137.934 279.811 137.827 279.675 137.676 279.538C137.432 279.295 137.25 279.219 136.779 278.916C136.567 278.779 136.263 278.582 135.898 278.339C135.807 278.4 135.686 278.476 135.534 278.551C135.184 278.734 134.88 278.87 134.653 278.961C134.485 279.022 134.227 279.113 133.908 279.204C133.68 279.265 133.377 279.341 132.982 279.386C132.799 279.402 132.754 279.402 131.994 279.386C131.128 279.371 131.052 279.386 130.824 279.356C130.475 279.311 130.217 279.235 130.004 279.174C129.548 279.037 129.199 278.901 129.002 278.81C128.515 278.597 128.151 278.354 127.923 278.202C127.634 278.005 127.27 277.732 126.89 277.352C126.586 277.048 126.343 276.745 126.146 276.487C125.994 276.274 125.736 275.895 125.492 275.394C125.401 275.212 124.976 274.316 124.809 273.01C124.763 272.676 124.703 272.175 124.748 271.507C124.779 271.006 124.854 270.05 125.417 269.033C125.599 268.699 125.781 268.441 125.918 268.274C125.736 268.258 125.492 268.243 125.219 268.198C125.113 268.183 124.687 268.122 124.11 267.985C123.639 267.879 123.244 267.757 122.94 267.651C122.302 267.439 121.831 267.226 121.634 267.135C120.768 266.74 120.145 266.33 119.933 266.194C119.234 265.723 118.763 265.298 118.55 265.101C118.231 264.812 117.821 264.387 117.396 263.856C116.94 263.294 116.636 262.778 116.424 262.398C116.013 261.655 115.755 261.002 115.618 260.577C115.239 259.438 115.132 258.527 115.072 257.874C114.996 257.07 114.904 256.28 115.087 255.309C115.132 255.036 115.193 254.777 115.315 254.246C115.466 253.608 115.558 253.183 115.74 252.667C115.831 252.394 115.968 252.045 116.15 251.62C115.907 251.574 115.588 251.498 115.223 251.407C114.54 251.225 113.963 251.028 113.552 250.861C112.945 250.618 112.444 250.375 112.033 250.162C111.562 249.919 111.167 249.676 110.864 249.479C110.651 249.342 110.362 249.145 110.043 248.917C109.299 248.371 108.737 247.855 108.403 247.536C107.917 247.05 107.537 246.625 107.294 246.337C106.747 245.669 106.367 245.092 106.124 244.712C105.441 243.619 105.046 242.663 104.848 242.131C104.453 241.069 104.24 240.158 104.134 239.535C104.028 238.928 103.906 238.032 103.906 236.924C103.906 236.074 103.982 234.48 104.575 232.567C104.742 232.021 105.046 231.155 105.562 230.138C105.76 229.758 106.625 228.073 108.327 226.297C108.858 225.751 109.542 225.037 110.621 224.324C111.319 223.853 111.973 223.534 112.459 223.322C112.383 223.139 112.276 222.912 112.17 222.638C112.003 222.229 111.79 221.697 111.562 221.075C111.35 220.498 111.092 219.769 110.833 218.904C110.757 218.676 110.59 218.099 110.393 217.386C109.891 215.473 109.618 213.879 109.542 213.347C109.223 211.359 109.132 209.856 109.086 208.899C108.995 207.32 108.919 206.03 109.071 204.315C109.132 203.677 109.193 203.13 109.314 202.326C109.451 201.339 109.588 200.322 109.846 199.047C109.952 198.546 110.18 197.422 110.59 195.98C110.848 195.084 111.274 193.703 111.942 192.048C112.504 190.666 113.264 188.966 114.327 187.099C114.418 186.947 114.494 186.81 114.585 186.659C114.631 186.461 114.692 186.188 114.783 185.9C114.859 185.626 115.011 185.11 115.223 184.472C115.406 183.972 115.679 183.258 116.059 182.423C116.393 181.725 116.667 181.239 117.031 180.601C117.487 179.797 117.608 179.645 118.155 178.704C118.55 178.02 118.565 177.975 118.945 177.276C119.31 176.624 119.872 175.622 120.677 174.407C120.92 174.028 121.391 173.329 122.014 172.479C122.637 171.629 123.199 170.931 123.654 170.384C124.186 169.747 124.854 168.972 125.66 168.137C126.191 167.591 126.662 167.12 127.072 166.725C127.771 166.057 128.333 165.572 128.439 165.465C129.032 164.949 129.138 164.888 130.08 164.084C131.022 163.279 130.916 163.355 131.28 163.067C132.04 162.459 132.632 162.095 133.528 161.533C134.106 161.169 134.88 160.729 135.807 160.228C145.833 162.368 154.416 162.642 160.659 162.399C168.665 162.095 172.675 161.943 177.339 160.349C186.271 157.298 191.102 152 196.905 154.095C198.409 154.641 199.533 155.506 201.416 156.979C204.561 159.438 206.141 161.746 210.364 164.342C210.561 164.463 210.728 164.57 210.835 164.63C210.956 164.706 211.123 164.797 211.306 164.934C211.989 165.374 212.521 165.754 212.794 165.951C213.205 166.255 213.524 166.498 213.675 166.619C214.253 167.075 214.678 167.454 214.891 167.636C215.134 167.849 215.316 168.031 215.407 168.122C215.908 168.593 216.273 168.987 216.486 169.2C216.653 169.382 216.911 169.655 217.23 170.035C217.397 170.232 217.595 170.475 217.838 170.794C218.081 171.113 218.385 171.538 218.719 172.16C218.916 172.54 219.053 172.844 219.083 172.95C219.159 173.132 219.357 173.648 219.524 174.331C219.569 174.529 219.645 174.923 219.706 175.409C219.721 175.5 219.737 175.698 219.752 176.001C219.767 176.442 219.797 176.988 219.737 177.641C219.676 178.218 219.554 178.643 219.387 179.235C219.235 179.751 219.099 180.191 218.977 180.51C218.886 180.632 218.78 180.753 218.673 180.89C218.582 181.011 218.506 181.117 218.43 181.239C218.369 181.33 218.248 181.542 218.157 181.816C218.126 181.907 218.005 182.302 218.066 182.818C218.111 183.182 218.217 183.471 218.278 183.607C218.4 183.865 218.536 184.047 218.825 184.412C219.099 184.761 219.129 184.746 219.281 184.973C219.326 185.034 219.494 185.307 219.645 185.672C219.676 185.748 219.782 186.036 219.873 186.431C219.919 186.659 219.995 187.053 219.964 187.554C219.934 188.162 219.752 188.602 219.615 188.921C219.569 189.042 219.402 189.452 218.916 190.166C218.643 190.575 218.324 190.985 217.655 191.744C217.26 192.2 216.835 192.655 216.06 193.445C215.179 194.356 214.739 194.811 214.344 195.175C212.977 196.451 211.655 197.392 211.655 197.392L211.67 197.377C211.67 197.377 211.777 197.711 211.777 197.741C211.883 198.105 212.247 198.5 212.46 198.743C212.46 198.743 212.87 199.198 213.235 199.715C213.675 200.337 213.934 200.868 214.055 201.126C214.177 201.415 214.253 201.612 214.405 202.022C214.556 202.447 214.708 202.857 214.815 203.313C214.997 204.087 215.012 204.709 215.027 205.15C215.027 205.453 215.027 206.303 214.815 207.381C214.708 207.913 214.663 207.867 214.329 209.157C214.116 209.947 214.01 210.342 213.903 210.843C213.812 211.252 213.645 212.163 213.539 213.332C213.508 213.727 213.478 214.243 213.463 214.835C213.448 216.08 213.539 217.052 213.599 217.477C213.751 218.858 214.04 220.012 214.131 220.376C214.237 220.771 214.298 221.014 214.374 221.454C214.481 222.077 214.526 222.638 214.526 223.352C214.526 224.961 214.344 226.616 214.268 227.284C214.389 227.694 214.572 228.21 214.845 228.757C215.058 229.197 215.24 229.5 215.24 229.516C216.774 232.218 198.135 256.296 198.135 256.296C190.646 265.981 193.927 265.222 181.532 284.503C173.268 297.361 169.136 303.783 165.444 306.485C165.444 306.485 153.823 314.972 119.386 312.467C119.021 312.482 118.824 312.345 118.824 312.345Z" fill="#F9FCFF"/>
<path d="M515.229 315.182L430.753 297.693C425.527 296.616 422.17 291.499 423.248 286.277L440.748 201.853C441.827 196.631 446.946 193.276 452.172 194.354L536.648 211.843C541.874 212.921 545.231 218.037 544.153 223.259L526.653 307.683C525.559 312.905 520.455 316.26 515.229 315.182Z" fill="#F2C260" stroke="black" stroke-width="0.4"/>
<path d="M213.194 86.2773C203.198 86.2773 195.102 94.3842 195.102 104.358C195.102 114.348 203.213 122.439 213.194 122.439C223.205 122.439 231.286 114.333 231.286 104.358C231.301 94.3842 223.205 86.2773 213.194 86.2773ZM213.194 115.319C207.148 115.319 202.241 110.416 202.241 104.374C202.241 98.3314 207.148 93.4278 213.194 93.4278C219.255 93.4278 224.146 98.3314 224.146 104.374C224.146 110.416 219.255 115.319 213.194 115.319Z" fill="#6BC77C" stroke="black" stroke-width="0.1065"/>
<path d="M580.294 250.373C573.519 250.373 568.02 255.869 568.02 262.64C568.02 269.41 573.519 274.906 580.294 274.906C587.084 274.906 592.568 269.41 592.568 262.64C592.568 255.869 587.084 250.373 580.294 250.373ZM580.294 270.078C576.192 270.078 572.865 266.754 572.865 262.655C572.865 258.556 576.192 255.231 580.294 255.231C584.395 255.231 587.722 258.556 587.722 262.655C587.722 266.739 584.395 270.078 580.294 270.078Z" fill="#6BC77C" stroke="black" stroke-width="0.1065"/>
<path d="M64.1063 262.137C57.3311 262.137 51.832 267.632 51.832 274.403C51.832 281.174 57.3311 286.67 64.1063 286.67C70.8966 286.67 76.3805 281.174 76.3805 274.403C76.3805 267.632 70.8966 262.137 64.1063 262.137ZM64.1063 281.842C60.0047 281.842 56.6779 278.517 56.6779 274.418C56.6779 270.319 60.0047 266.995 64.1063 266.995C68.2078 266.995 71.5346 270.319 71.5346 274.418C71.5346 278.517 68.223 281.842 64.1063 281.842Z" fill="#6BC77C" stroke="black" stroke-width="0.1065"/>
<path d="M590.384 220.557L593.361 226.159L585.644 230.258L589.715 237.894L584.11 240.885L580.039 233.248L572.473 237.271L569.496 231.67L577.061 227.646L572.99 220.01L578.595 217.02L582.651 224.656L590.384 220.557Z" fill="#E5A533" stroke="black" stroke-width="0.1065"/>
<path d="M185.86 92.639L188.336 97.2845L181.926 100.7L185.298 107.046L180.65 109.506L177.277 103.175L171.003 106.515L168.527 101.869L174.801 98.5294L171.429 92.1836L176.077 89.709L179.45 96.0548L185.86 92.639Z" fill="#E5A533" stroke="black" stroke-width="0.1065"/>
<path d="M246.405 101.854L251.13 103.25L249.2 109.748L255.626 111.646L254.229 116.352L247.803 114.454L245.919 120.8L241.21 119.403L243.094 113.057L236.668 111.16L238.066 106.453L244.491 108.351L246.405 101.854Z" fill="#E5A533" stroke="black" stroke-width="0.1065"/>
<path d="M489.062 276.692C490.413 268.935 483.823 261.309 474.342 259.657C464.862 258.005 456.082 262.955 454.731 270.711C453.38 278.468 459.97 286.095 469.451 287.746C478.931 289.398 487.711 284.449 489.062 276.692Z" stroke="white" stroke-width="3.195"/>
<path d="M489.059 276.731L499.753 229.684C502.746 231.536 508.002 235.361 512.118 242.041C515.187 247.021 516.493 251.727 517.101 254.854" stroke="white" stroke-width="3.195"/>
<path d="M486.885 275.917C487.834 269.395 481.907 263.135 473.646 261.933C465.385 260.732 457.919 265.045 456.969 271.567C456.02 278.088 461.947 284.349 470.208 285.55C478.469 286.752 485.935 282.439 486.885 275.917Z" stroke="black" stroke-width="0.1065"/>
<path d="M489.047 266.482C487.771 264.752 483.715 259.681 476.499 257.768C471.365 256.402 467.111 257.282 465.865 257.586C462.037 258.482 459.303 260.243 457.799 261.381C456.918 262.08 453.379 265.04 452.467 270.338C451.586 275.409 453.682 279.25 454.275 280.252C455.277 281.831 458.999 287.25 466.306 289.528C475.42 292.382 482.986 288.116 484.216 287.387C485.386 286.643 487.148 285.292 488.713 283.106C490.034 281.254 490.718 279.478 491.082 278.248C494.47 263.325 497.857 248.401 501.245 233.478C503.493 235.209 506.44 237.881 509.114 241.752C512.744 247.005 514.233 252.075 514.902 255.263L519.292 254.413C518.623 250.921 516.998 244.788 512.517 238.488C507.488 231.428 501.427 227.709 498.192 226.039C495.138 239.52 492.1 253.001 489.047 266.482Z" stroke="black" stroke-width="0.4"/>
<path d="M446.711 325.872C456.678 325.872 464.758 317.797 464.758 307.836C464.758 297.876 456.678 289.801 446.711 289.801C436.744 289.801 428.664 297.876 428.664 307.836C428.664 317.797 436.744 325.872 446.711 325.872Z" fill="#EBA84F" stroke="black" stroke-width="0.213" stroke-linecap="round"/>
<path d="M446.695 296.268L439.312 307.745H453.121L446.695 296.268Z" fill="white" stroke="black" stroke-width="0.213" stroke-linecap="round"/>
<path d="M439.312 310.127L446.893 321.27L453.121 310.127H439.312Z" fill="white" stroke="black" stroke-width="0.213" stroke-linecap="round"/>
<path d="M148.134 275.455C146.752 278.324 145.385 281.269 144.033 284.29C142.316 288.131 140.706 291.896 139.202 295.585C137.622 299.608 135.252 307.548 138.063 316.08C138.534 317.492 139.096 318.782 139.703 319.951C140.417 320.968 145.339 327.739 154.56 328.696C163.583 329.637 169.705 324.263 170.647 323.412C170.92 323.139 172.759 321.409 175.523 321.636C177.878 321.834 179.306 323.337 179.625 323.686C180.05 324.02 181.311 324.946 183.179 325.007C185.443 325.082 186.962 323.853 187.327 323.549C194.983 318.539 202.639 313.529 210.295 308.52L233.947 278.46C230.302 278.552 225.182 278.263 219.319 276.623C214.29 275.196 210.295 273.208 207.424 271.492" fill="#F9FCFF"/>
<path d="M148.134 275.455C146.752 278.324 145.385 281.269 144.033 284.29C142.316 288.131 140.706 291.896 139.202 295.585C137.622 299.608 135.252 307.548 138.063 316.08C138.534 317.492 139.096 318.782 139.703 319.951C140.417 320.968 145.339 327.739 154.56 328.696C163.583 329.637 169.705 324.263 170.647 323.412C170.92 323.139 172.759 321.409 175.523 321.636C177.878 321.834 179.306 323.337 179.625 323.686C180.05 324.02 181.311 324.946 183.179 325.007C185.443 325.082 186.962 323.853 187.327 323.549C194.983 318.539 202.639 313.529 210.295 308.52L233.947 278.46C230.302 278.552 225.182 278.263 219.319 276.623C214.29 275.196 210.295 273.208 207.424 271.492" stroke="black" stroke-width="1.065" stroke-linecap="round"/>
<path d="M151.367 258.648C155.332 262.413 165.252 270.839 179.941 273.405C184.073 274.133 191.805 275.5 200.996 272.858C203.776 272.054 206.009 271.082 207.558 270.323C208.151 269.974 209.168 269.275 210.019 268.076C210.308 267.666 211.007 266.649 211.28 265.192C211.417 264.448 211.28 263.431 210.976 261.442C210.657 259.24 210.46 258.603 210.399 257.085C210.369 256.462 210.369 255.87 210.399 255.157C210.672 248.188 211.903 240.4 211.903 240.4C212.419 237.136 213.103 233.113 213.999 228.483C214.288 227.238 214.531 225.599 214.455 223.671C214.409 222.426 214.242 221.317 214.045 220.391C213.604 218.676 213.164 216.08 213.498 212.952C213.665 211.313 214.014 209.871 214.394 208.687C214.956 206.925 215.138 205.028 214.713 203.221C214.652 202.978 214.592 202.735 214.516 202.493C214.06 201.005 213.331 199.881 212.693 199.077C211.994 198.211 211.356 197.285 210.9 196.253L210.353 195.054C210.308 194.963 210.277 194.856 210.262 194.75C209.974 192.26 209.685 189.755 209.396 187.266" fill="#F9FCFF"/>
<path d="M151.367 258.648C155.332 262.413 165.252 270.839 179.941 273.405C184.073 274.133 191.805 275.5 200.996 272.858C203.776 272.054 206.009 271.082 207.558 270.323C208.151 269.974 209.168 269.275 210.019 268.076C210.308 267.666 211.007 266.649 211.28 265.192C211.417 264.448 211.28 263.431 210.976 261.442C210.657 259.24 210.46 258.603 210.399 257.085C210.369 256.462 210.369 255.87 210.399 255.157C210.672 248.188 211.903 240.4 211.903 240.4C212.419 237.136 213.103 233.113 213.999 228.483C214.288 227.238 214.531 225.599 214.455 223.671C214.409 222.426 214.242 221.317 214.045 220.391C213.604 218.676 213.164 216.08 213.498 212.952C213.665 211.313 214.014 209.871 214.394 208.687C214.956 206.925 215.138 205.028 214.713 203.221C214.652 202.978 214.592 202.735 214.516 202.493C214.06 201.005 213.331 199.881 212.693 199.077C211.994 198.211 211.356 197.285 210.9 196.253L210.353 195.054C210.308 194.963 210.277 194.856 210.262 194.75C209.974 192.26 209.685 189.755 209.396 187.266" stroke="black" stroke-width="1.065" stroke-linecap="round"/>
<path d="M209.064 210.734C209.14 211.812 209.322 213.588 209.793 215.744C209.99 216.67 210.613 219.236 213.712 226.402C214.244 227.631 215.019 229.377 215.991 231.457C216.219 231.761 217.115 233.021 216.902 234.736C216.781 235.784 216.31 236.512 216.036 236.877C214.563 238.152 213.089 239.427 211.616 240.702C210.963 241.219 210.066 241.325 209.337 240.976C208.365 240.505 208.168 239.488 208.152 239.382" fill="#F9FCFF"/>
<path d="M209.064 210.734C209.14 211.812 209.322 213.588 209.793 215.744C209.99 216.67 210.613 219.236 213.712 226.402C214.244 227.631 215.019 229.377 215.991 231.457C216.219 231.761 217.115 233.021 216.902 234.736C216.781 235.784 216.31 236.512 216.036 236.877C214.563 238.152 213.089 239.427 211.616 240.702C210.963 241.219 210.066 241.325 209.337 240.976C208.365 240.505 208.168 239.488 208.152 239.382" stroke="black" stroke-width="1.065" stroke-linecap="round"/>
<path d="M211.975 244.21C212.294 244.574 213.403 245.819 213.16 247.398C213.023 248.263 212.537 248.886 212.188 249.25C212.066 249.371 212.066 249.554 212.172 249.675C212.507 250.07 213.069 250.935 213.069 252.134C213.053 253.637 212.142 254.579 211.914 254.791C211.899 254.806 211.884 254.822 211.853 254.837C211.018 255.322 209.757 255.93 208.147 256.324C205.033 257.068 202.511 256.522 201.265 256.233C196.845 255.216 193.898 252.59 192.5 251.132C192.363 250.981 192.394 250.753 192.561 250.631C195.508 248.536 198.47 246.457 201.417 244.362C201.432 244.346 201.463 244.331 201.478 244.316C206.035 242.358 210.243 242.267 211.975 244.21Z" fill="#F9FCFF" stroke="black" stroke-width="1.065" stroke-linecap="round"/>
<path d="M172.055 215.061L188.962 206.999C190.01 206.544 192.957 205.451 196.482 206.362C196.937 206.483 197.363 206.62 197.758 206.772C199.368 207.409 200.644 208.654 201.327 210.248C204.001 216.488 206.675 222.712 209.348 228.951" stroke="black" stroke-width="1.065" stroke-linecap="round"/>
<path d="M195.609 235.646C195.244 237.726 196.277 239.609 197.842 240.155C199.27 240.656 200.47 239.7 200.697 239.578C201.275 239.169 201.898 238.516 202.855 237.969C205.148 236.648 207.503 237.104 208.187 237.256" stroke="black" stroke-width="1.065" stroke-linecap="round"/>
<path d="M195.113 216.838C194.354 216.216 193.594 215.578 192.819 214.956C192.379 214.682 191.437 214.166 190.115 214.106C188.991 214.045 188.11 214.348 187.654 214.546C185.528 215.654 183.416 216.747 181.305 217.855C181.928 218.523 183.826 220.375 186.91 220.922C189.265 221.347 191.179 220.801 192.075 220.482" stroke="black" stroke-width="1.065" stroke-linecap="round"/>
<path d="M211.822 249.324C209.315 249.203 206.49 249.218 203.406 249.461C199.7 249.749 196.403 250.311 193.562 250.964" stroke="black" stroke-width="1.065" stroke-linecap="round"/>
<path d="M176.925 174.345C175.284 178.323 175.846 182.665 178.429 185.276C181.497 188.388 186.085 187.705 187.725 187.462C191.189 186.946 194.576 185.018 196.475 182.407C201.154 175.955 197.083 164.796 192.921 159.589C184.414 148.962 163.42 148.082 140.816 157.767C137.337 159.194 131.96 161.897 126.749 166.967C122.587 171.021 119.974 175.165 118.409 178.171L116.982 180.6C114.748 184.38 113.655 188.783 114.202 193.14C114.505 195.554 115.295 198.104 116.982 200.427C117.923 201.717 120.005 204.587 123.878 205.619C126.582 206.333 128.922 205.832 130.106 205.482" stroke="black" stroke-width="1.065" stroke-linecap="round"/>
<path d="M148.285 195.523C149.865 200.579 153.875 204.268 158.6 204.951C162.686 205.543 165.891 203.706 166.94 203.038C168.003 202.279 169.674 200.867 171.041 198.59C172.104 196.814 172.575 195.159 172.818 194.02C173.107 192.548 173.882 189.77 176.206 187.371C176.965 186.597 177.725 186.005 178.424 185.564" stroke="black" stroke-width="1.065" stroke-linecap="round"/>
<path d="M140.235 196.527C138.291 199.989 138.23 204.072 140.144 207.185C141.8 209.887 144.382 210.95 145.339 211.284" stroke="black" stroke-width="1.065" stroke-linecap="round"/>
<path d="M150.909 211.008C150.939 211.296 151.258 215.927 147.719 218.568C144.726 220.815 140.29 220.648 137.055 218.022" stroke="black" stroke-width="1.065" stroke-linecap="round"/>
<path d="M137.048 168.744C135.939 169.655 132.537 172.691 131.397 177.944C130.015 184.29 132.947 189.224 133.585 190.241" stroke="black" stroke-width="1.065" stroke-linecap="round"/>
<path d="M159.945 205.225L159.657 215.017C159.429 216.929 158.958 219.495 156.922 222.577C155.099 225.325 152.897 226.949 151.514 227.784C151.226 227.951 151.028 228.224 150.952 228.543C150.648 229.849 150.36 232.035 150.983 234.601C151.894 238.305 154.173 240.536 155.084 241.341C153.702 240.81 151.256 239.641 148.977 237.242C146.911 235.056 145.894 232.794 145.407 231.428C144.845 230.031 144.04 228.376 142.901 226.615C141.822 224.96 140.698 223.609 139.711 222.562C139.24 222.273 136.475 220.649 133.862 221.742C130.642 223.093 130.277 227.48 130.171 228.756C129.943 231.504 130.779 233.705 131.493 235.314C132.829 238.32 135.64 243.634 141.564 249.752C142.445 250.951 143.934 251.437 145.164 250.981C146.501 250.495 146.942 249.144 146.987 248.977" stroke="black" stroke-width="1.065" stroke-linecap="round"/>
<path d="M126.43 261.565C132.779 262.445 138.385 259.955 140.375 255.689C141.362 253.564 141.195 250.664 140.891 249.07" stroke="black" stroke-width="1.065" stroke-linecap="round"/>
<path d="M121.355 255.914C121.371 255.277 121.477 252.878 123.33 250.92C124.348 249.857 125.472 249.356 126.156 249.113C126.429 249.052 127.569 248.749 128.343 247.656C129.224 246.411 128.981 245.075 128.936 244.832" stroke="black" stroke-width="1.065" stroke-linecap="round"/>
<path d="M135.677 242.768C135.525 243.466 134.948 245.728 132.821 247.443C130.087 249.66 126.684 249.204 126.152 249.129" stroke="black" stroke-width="1.065" stroke-linecap="round"/>
<path d="M141.207 251.24C141.541 251.453 146.083 254.504 146.129 259.332C146.159 262.581 144.367 264.797 143.835 265.42" stroke="black" stroke-width="1.065" stroke-linecap="round"/>
<path d="M131.082 268.393C134.196 264.157 139.832 263.019 143.842 265.417C147.108 267.361 148.855 271.399 148.126 275.452" stroke="black" stroke-width="1.065" stroke-linecap="round"/>
<path d="M141.866 277.488C141.562 277.185 141.061 276.79 140.362 276.608C139.01 276.259 137.506 276.82 136.397 278.02C133.526 280.16 129.501 279.902 126.964 277.443C124.518 275.059 124.062 271.218 125.931 268.288C125.353 268.258 119.961 267.833 116.831 263.066C113.337 257.722 115.996 251.938 116.148 251.619C109.996 250.39 105.195 245.562 104.117 239.535C102.947 233.007 106.319 226.342 112.426 223.321C110.861 219.738 108.021 211.829 109.327 201.824C110.223 194.947 112.715 189.755 114.538 186.658" stroke="black" stroke-width="1.065" stroke-linecap="round"/>
<path d="M139.059 284.09C139.15 283.695 139.408 282.238 138.603 280.704C137.844 279.247 136.309 278.503 135.93 278.336" stroke="black" stroke-width="0.213" stroke-linecap="round"/>
<path d="M141.811 284.2C140.52 284.154 136.023 284.124 131.967 287.342C126.407 291.745 126.346 298.516 126.362 299.366C124.372 298.212 123.035 298.288 122.23 298.546C118.478 299.715 116.883 307.366 118.842 312.786C121.637 320.529 131.147 322.183 131.694 322.275C131.815 323.808 132.575 330.867 138.666 336.348C144.515 341.6 151.259 341.813 152.885 341.813H194.128" stroke="black" stroke-width="1.065" stroke-linecap="round"/>
<path d="M99.6953 327.512C102.035 332.324 106.729 340.097 115.448 346.261C134.893 360 157.618 353.821 161.036 352.834" stroke="black" stroke-width="1.065" stroke-linecap="round"/>
<path d="M214.887 178.719C214.903 178.992 215.055 183.167 212.077 185.019C210.133 186.234 207.976 185.748 207.034 185.551C201.337 184.275 198.846 177.717 198.512 176.791" stroke="black" stroke-width="1.065" stroke-linecap="round"/>
<path d="M206.465 162.385C212.04 164.753 215.215 167.789 216.779 169.55C218.223 171.175 218.906 172.389 219.316 173.725C220.197 176.686 219.377 179.342 218.906 180.557C218.785 180.663 217.949 181.453 218.01 182.667C218.055 183.608 218.602 184.216 218.769 184.367C219.18 184.853 219.909 185.87 219.924 187.237C219.939 188.466 219.377 189.392 218.83 190.167C216.612 193.309 212.83 196.437 211.569 197.469" stroke="black" stroke-width="1.065" stroke-linecap="round"/>
<path d="M285.172 307.836C279.141 308.929 269.616 311.449 259.575 317.825C251.554 322.926 246.025 328.68 242.516 332.976C237.7 339.231 230.864 346.867 221.552 354.291C210.767 362.884 200.726 368.091 192.766 371.431" stroke="black" stroke-width="1.065" stroke-linecap="round"/>
<path d="M285.589 284.838C276.809 284.109 255.724 282.94 239.424 297.271C237.054 299.351 235.004 301.567 233.226 303.829C220.466 316.521 206.885 329.122 194.125 341.813" stroke="black" stroke-width="1.065" stroke-linecap="round"/>
<path d="M146.52 140.598L144.742 143.194L146.52 149.099L153.902 153.274L158.201 156.189L181.853 158.557L195.115 155.278L196.391 155.233L196.543 154.868L196.604 155.187L197.971 155.384L202.467 155.536L198.305 152.606L205.369 147.156L205.764 144.712L146.52 140.598Z" fill="#F9FCFF"/>
<path d="M145.086 142.148C149.142 134.693 155.34 130.746 159.943 132.037C160.884 132.295 162.267 132.917 163.68 134.587C166.596 134.557 169.513 134.526 172.429 134.496C172.703 134.557 174.161 134.906 174.936 136.272C175.301 136.91 175.377 137.532 175.392 137.912C175.377 138.823 176.166 139.476 176.85 139.369C177.442 139.278 177.959 138.641 177.898 137.866C178.172 136.94 178.977 136.272 179.903 136.227C180.936 136.166 181.924 136.895 182.182 137.957C182.304 138.686 182.926 139.233 183.64 139.278C184.415 139.324 185.114 138.777 185.281 138.003C185.342 137.851 185.661 137.092 186.42 136.819C187.286 136.5 188.365 136.91 188.972 137.866C188.896 138.747 189.565 139.491 190.385 139.521C191.236 139.551 191.98 138.808 191.935 137.912C192.041 137.563 192.375 136.576 193.347 135.862C193.484 135.771 194.122 135.316 195.079 135.179C195.079 135.179 195.611 135.103 196.218 135.179C198.011 135.407 200.107 137.183 200.365 137.411C200.533 137.578 201.93 138.853 203.844 138.534C205.029 138.337 205.789 137.639 206.062 137.35C206.806 136.652 207.87 136.409 208.842 136.713C210.316 137.183 210.695 138.656 210.71 138.732C210.71 138.868 210.726 139.005 210.726 139.126C210.756 141.692 209.389 144.076 207.141 145.351C206.624 145.639 206.001 145.988 205.211 146.398C204.665 146.717 203.601 147.248 202.173 147.324C200.168 147.431 198.695 146.565 198.178 146.231C197.51 145.715 196.203 144.85 194.35 144.622C191.479 144.288 189.367 145.761 188.714 146.231C187.468 147.127 186.724 148.159 186.329 148.827" fill="#F9FCFF"/>
<path d="M145.086 142.148C149.142 134.693 155.34 130.746 159.943 132.037C160.884 132.295 162.267 132.917 163.68 134.587C166.596 134.557 169.513 134.526 172.429 134.496C172.703 134.557 174.161 134.906 174.936 136.272C175.301 136.91 175.377 137.532 175.392 137.912C175.377 138.823 176.166 139.476 176.85 139.369C177.442 139.278 177.959 138.641 177.898 137.866C178.172 136.94 178.977 136.272 179.903 136.227C180.936 136.166 181.924 136.895 182.182 137.957C182.304 138.686 182.926 139.233 183.64 139.278C184.415 139.324 185.114 138.777 185.281 138.003C185.342 137.851 185.661 137.092 186.42 136.819C187.286 136.5 188.365 136.91 188.972 137.866C188.896 138.747 189.565 139.491 190.385 139.521C191.236 139.551 191.98 138.808 191.935 137.912C192.041 137.563 192.375 136.576 193.347 135.862C193.484 135.771 194.122 135.316 195.079 135.179C195.079 135.179 195.611 135.103 196.218 135.179C198.011 135.407 200.107 137.183 200.365 137.411C200.533 137.578 201.93 138.853 203.844 138.534C205.029 138.337 205.789 137.639 206.062 137.35C206.806 136.652 207.87 136.409 208.842 136.713C210.316 137.183 210.695 138.656 210.71 138.732C210.71 138.868 210.726 139.005 210.726 139.126C210.756 141.692 209.389 144.076 207.141 145.351C206.624 145.639 206.001 145.988 205.211 146.398C204.665 146.717 203.601 147.248 202.173 147.324C200.168 147.431 198.695 146.565 198.178 146.231C197.51 145.715 196.203 144.85 194.35 144.622C191.479 144.288 189.367 145.761 188.714 146.231C187.468 147.127 186.724 148.159 186.329 148.827" stroke="black" stroke-width="1.065" stroke-linecap="round"/>
<path d="M187.199 155.507C188.263 154.292 189.326 153.078 190.389 151.863C190.724 151.59 191.756 150.785 193.306 150.725C195.22 150.649 196.496 151.757 196.769 152C197.043 152.319 200.977 156.934 206.507 156.099C207.828 155.902 209.029 155.34 209.029 155.34C210.198 154.809 211.049 154.141 211.581 153.64C211.9 153.23 212.796 151.939 212.674 150.224C212.568 148.873 211.915 147.931 211.626 147.582C211.201 147.02 210.578 146.322 209.727 145.669C209.15 145.229 208.603 144.91 208.208 144.713" fill="#F9FCFF"/>
<path d="M187.199 155.507C188.263 154.292 189.326 153.078 190.389 151.863C190.724 151.59 191.756 150.785 193.306 150.725C195.22 150.649 196.496 151.757 196.769 152C197.043 152.319 200.977 156.934 206.507 156.099C207.828 155.902 209.029 155.34 209.029 155.34C210.198 154.809 211.049 154.141 211.581 153.64C211.9 153.23 212.796 151.939 212.674 150.224C212.568 148.873 211.915 147.931 211.626 147.582C211.201 147.02 210.578 146.322 209.727 145.669C209.15 145.229 208.603 144.91 208.208 144.713" stroke="black" stroke-width="1.065" stroke-linecap="round"/>
<path d="M139.342 153.17C138.659 154.005 134.284 159.577 135.97 165.831C136.35 167.213 137.261 170.613 140.436 172.025C142.866 173.118 145.251 172.435 146.072 172.162C147.393 171.418 148.852 170.477 150.356 169.308C152.376 167.744 153.986 166.165 155.232 164.753C155.49 164.495 156.584 163.463 158.331 163.357C160.26 163.25 161.551 164.374 161.794 164.586C162.447 165.087 164.741 166.727 168.053 166.651C171.091 166.59 173.187 165.148 173.886 164.632C174.266 164.374 174.889 164.025 175.709 163.888C177.547 163.569 178.99 164.48 179.355 164.723C181.603 165.376 183.943 164.875 185.462 163.357C186.707 162.112 186.981 160.594 187.057 159.986C187.862 160.108 190.733 160.411 193.482 158.62C195.153 157.527 196.065 156.13 196.49 155.341C196.627 156.662 197.219 160.411 200.318 163.266C201.063 163.949 202.688 165.406 205.24 165.862C205.27 165.862 205.316 165.877 205.377 165.892C207.534 166.256 210.481 165.786 211.605 164.435C213.018 162.734 212.38 158.605 208.871 155.584" fill="#F9FCFF"/>
<path d="M139.342 153.17C138.659 154.005 134.284 159.577 135.97 165.831C136.35 167.213 137.261 170.613 140.436 172.025C142.866 173.118 145.251 172.435 146.072 172.162C147.393 171.418 148.852 170.477 150.356 169.308C152.376 167.744 153.986 166.165 155.232 164.753C155.49 164.495 156.584 163.463 158.331 163.357C160.26 163.25 161.551 164.374 161.794 164.586C162.447 165.087 164.741 166.727 168.053 166.651C171.091 166.59 173.187 165.148 173.886 164.632C174.266 164.374 174.889 164.025 175.709 163.888C177.547 163.569 178.99 164.48 179.355 164.723C181.603 165.376 183.943 164.875 185.462 163.357C186.707 162.112 186.981 160.594 187.057 159.986C187.862 160.108 190.733 160.411 193.482 158.62C195.153 157.527 196.065 156.13 196.49 155.341C196.627 156.662 197.219 160.411 200.318 163.266C201.063 163.949 202.688 165.406 205.24 165.862C205.27 165.862 205.316 165.877 205.377 165.892C207.534 166.256 210.481 165.786 211.605 164.435C213.018 162.734 212.38 158.605 208.871 155.584" stroke="black" stroke-width="1.065" stroke-linecap="round"/>
<path d="M151.983 158.014C149.203 159.806 145.664 159.73 143.173 157.877C140.757 156.086 140.286 153.353 140.21 152.048C140.18 151.532 139.998 151.046 139.709 150.621C138.722 149.148 137.734 147.691 136.747 146.218C136.625 146.082 135.805 145.14 135.987 143.835C136.109 142.954 136.64 142.377 136.884 142.134C138.251 140.692 140.818 140.373 142.823 141.117C145.056 141.952 146.059 143.88 146.302 144.412C147.259 146.431 149.021 146.734 150.267 146.598C151.603 146.461 152.515 145.277 152.91 144.67C153.533 143.303 154.171 141.937 154.794 140.571C154.869 140.343 155.599 138.339 157.756 137.656C159.32 137.155 161.052 137.565 162.298 138.703" fill="#F9FCFF"/>
<path d="M151.983 158.014C149.203 159.806 145.664 159.73 143.173 157.877C140.757 156.086 140.286 153.353 140.21 152.048C140.18 151.532 139.998 151.046 139.709 150.621C138.722 149.148 137.734 147.691 136.747 146.218C136.625 146.082 135.805 145.14 135.987 143.835C136.109 142.954 136.64 142.377 136.884 142.134C138.251 140.692 140.818 140.373 142.823 141.117C145.056 141.952 146.059 143.88 146.302 144.412C147.259 146.431 149.021 146.734 150.267 146.598C151.603 146.461 152.515 145.277 152.91 144.67C153.533 143.303 154.171 141.937 154.794 140.571C154.869 140.343 155.599 138.339 157.756 137.656C159.32 137.155 161.052 137.565 162.298 138.703" stroke="black" stroke-width="1.065" stroke-linecap="round"/>
<path d="M178.775 156.282C178.259 155.933 174.628 153.535 170.026 154.81C165.742 155.994 163.843 159.471 163.539 160.078" fill="#F9FCFF"/>
<path d="M178.775 156.282C178.259 155.933 174.628 153.535 170.026 154.81C165.742 155.994 163.843 159.471 163.539 160.078" stroke="black" stroke-width="1.065" stroke-linecap="round"/>
<path d="M158.785 143.225C159.332 144.713 159.879 146.185 160.426 147.673C160.669 148.341 161.535 148.963 162.507 149.07C163.418 149.161 164.193 148.645 165.074 147.916C166.198 146.975 167.778 145.502 169.419 143.301C169.571 143.134 171.226 141.282 173.794 141.555C175.981 141.798 177.166 143.422 177.348 143.665C177.759 144.181 178.29 144.986 178.685 146.094C179.126 147.324 179.186 148.402 179.171 149.1" fill="#F9FCFF"/>
<path d="M158.785 143.225C159.332 144.713 159.879 146.185 160.426 147.673C160.669 148.341 161.535 148.963 162.507 149.07C163.418 149.161 164.193 148.645 165.074 147.916C166.198 146.975 167.778 145.502 169.419 143.301C169.571 143.134 171.226 141.282 173.794 141.555C175.981 141.798 177.166 143.422 177.348 143.665C177.759 144.181 178.29 144.986 178.685 146.094C179.126 147.324 179.186 148.402 179.171 149.1" stroke="black" stroke-width="1.065" stroke-linecap="round"/>
<path d="M202.828 147.246C205.076 146.7 207.552 145.212 208.236 144.574" stroke="#020201" stroke-width="1.065" stroke-miterlimit="10"/>
<path d="M200.723 155.08C201.589 155.475 202.895 155.991 204.915 156.021C206.829 156.052 207.862 155.794 208.743 155.444" stroke="#020201" stroke-width="1.065" stroke-miterlimit="10"/>
<path d="M329.934 234.967L379.729 285.87L354.816 298.637L326.653 311.754L291.258 300.763L329.934 234.967Z" fill="#283BC6" stroke="black" stroke-width="0.213" stroke-linecap="round"/>
<path d="M373.758 316.947L330.646 345.002L291.484 301.158L326.666 312.074L379.789 286.189L373.758 316.947Z" fill="#283BC6" stroke="#495BE1" stroke-width="1.065" stroke-linecap="round"/>
<path d="M373.589 316.809L353.568 298.911L329.961 235.164L340.503 305.089" stroke="#495BE1" stroke-width="1.065" stroke-linecap="round"/>
<path d="M326.664 311.985L330.674 344.716L353.567 298.959" stroke="#495BE1" stroke-width="1.065" stroke-linecap="round"/>
<path d="M402.151 368.738C419.014 368.738 432.684 365.476 432.684 361.451C432.684 357.427 419.014 354.164 402.151 354.164C385.288 354.164 371.617 357.427 371.617 361.451C371.617 365.476 385.288 368.738 402.151 368.738Z" fill="#0A399F" stroke="black" stroke-width="0.1065" stroke-miterlimit="10"/>
<path d="M371.706 356.793L372.45 357.704L374.865 359.328L380.228 361.15L383.266 361.803L387.55 362.486L393.155 363.048L396.436 363.245L399.034 363.382H402.467L405.445 363.336L409.531 363.169L414.255 362.699L417.294 362.425L422.109 361.621L426.514 360.512L429.051 359.586L431.041 358.524L432.591 357.051L432.682 357.81C432.651 359.131 432.621 360.467 432.591 361.788C432.454 362.061 432.226 362.425 431.892 362.805C431.497 363.26 431.102 363.533 430.722 363.792C429.644 364.49 428.641 364.869 428.231 365.021C426.499 365.674 425.147 366.054 425.056 366.069C423.248 366.57 421.699 366.873 420.377 367.116C418.099 367.526 416.412 367.708 414.498 367.921C411.035 368.3 408.483 368.422 407.663 368.452C406.311 368.513 405.293 368.528 404.351 368.543C402.893 368.574 400.66 368.604 397.712 368.498C394.279 368.376 391.697 368.134 390.77 368.042C390.436 368.012 389.783 367.951 388.963 367.845C387.854 367.724 386.38 367.541 384.512 367.238C383.661 367.101 383.023 366.964 382.749 366.919C382.142 366.797 381.443 366.661 380.532 366.448C379.423 366.175 378.618 365.947 378.405 365.887C377.539 365.629 376.916 365.416 376.719 365.34C375.929 365.067 375.473 364.9 374.865 364.596C374.592 364.46 374.288 364.293 373.681 363.943C373.346 363.746 373.088 363.594 372.769 363.321C372.724 363.275 372.587 363.169 372.435 363.002C372.192 362.744 372.04 362.577 371.903 362.289C371.766 362.015 371.721 361.742 371.691 361.651C371.675 361.575 371.66 361.499 371.66 361.454" fill="#76A2CC"/>
<path d="M402.252 363.381C419.116 363.381 432.786 360.118 432.786 356.094C432.786 352.069 419.116 348.807 402.252 348.807C385.389 348.807 371.719 352.069 371.719 356.094C371.719 360.118 385.389 363.381 402.252 363.381Z" fill="#9FCAFC" stroke="black" stroke-width="0.1065" stroke-miterlimit="10"/>
<path d="M371.708 356.096L371.602 361.576" stroke="black" stroke-width="0.1065" stroke-miterlimit="10"/>
<path d="M432.743 356.486L432.621 361.952" stroke="black" stroke-width="0.1065" stroke-miterlimit="10"/>
<path d="M401.772 361.954C415.698 361.954 426.988 359.248 426.988 355.911C426.988 352.574 415.698 349.869 401.772 349.869C387.845 349.869 376.555 352.574 376.555 355.911C376.555 359.248 387.845 361.954 401.772 361.954Z" fill="#E7EAFF"/>
<path d="M401.89 361.56C415.104 361.56 425.816 359.086 425.816 356.034C425.816 352.982 415.104 350.508 401.89 350.508C388.677 350.508 377.965 352.982 377.965 356.034C377.965 359.086 388.677 361.56 401.89 361.56Z" fill="#0A399F"/>
<path d="M405.022 362.683C421.885 362.683 435.556 359.421 435.556 355.396C435.556 351.372 421.885 348.109 405.022 348.109C388.159 348.109 374.488 351.372 374.488 355.396C374.488 359.421 388.159 362.683 405.022 362.683Z" fill="#0A399F" stroke="black" stroke-width="0.1065" stroke-miterlimit="10"/>
<path d="M374.592 350.812L375.337 351.723L377.752 353.348L383.115 355.17L386.153 355.822L390.437 356.506L396.042 357.067L399.323 357.265L401.921 357.401H405.354L408.331 357.356L412.418 357.189L417.142 356.718L420.18 356.445L424.996 355.64L429.401 354.532L431.938 353.606L433.928 352.543L435.477 351.071L435.569 351.83C435.538 353.15 435.508 354.486 435.477 355.807C435.341 356.08 435.113 356.445 434.779 356.824C434.384 357.28 433.989 357.553 433.609 357.811C432.53 358.509 431.528 358.889 431.118 359.041C429.386 359.694 428.034 360.073 427.943 360.088C426.135 360.589 424.586 360.893 423.264 361.136C420.985 361.546 419.299 361.728 417.385 361.925C413.922 362.305 411.37 362.426 410.549 362.457C409.197 362.517 408.179 362.533 407.238 362.548C405.779 362.578 403.546 362.608 400.599 362.502C397.166 362.381 394.584 362.138 393.657 362.047C393.323 362.016 392.67 361.956 391.849 361.849C390.74 361.728 389.267 361.546 387.398 361.242C386.548 361.105 385.91 360.969 385.636 360.923C385.029 360.802 384.33 360.665 383.418 360.453C382.309 360.179 381.504 359.952 381.292 359.891C380.426 359.633 379.803 359.42 379.605 359.344C378.816 359.071 378.36 358.904 377.752 358.601C377.479 358.464 377.175 358.297 376.567 357.948C376.233 357.75 375.975 357.599 375.656 357.325C375.61 357.28 375.474 357.174 375.322 357.007C375.079 356.748 374.927 356.581 374.79 356.293C374.653 356.02 374.608 355.746 374.577 355.655C374.562 355.579 374.547 355.504 374.547 355.458" fill="#76A2CC"/>
<path d="M405.131 357.31C421.995 357.31 435.665 354.048 435.665 350.023C435.665 345.999 421.995 342.736 405.131 342.736C388.268 342.736 374.598 345.999 374.598 350.023C374.598 354.048 388.268 357.31 405.131 357.31Z" fill="#0A399F" stroke="black" stroke-width="0.1065" stroke-miterlimit="10"/>
<path d="M374.594 350.023L374.488 355.504" stroke="black" stroke-width="0.1065" stroke-miterlimit="10"/>
<path d="M435.614 350.418L435.508 355.898" stroke="black" stroke-width="0.1065" stroke-miterlimit="10"/>
<path d="M404.643 355.899C418.569 355.899 429.859 353.194 429.859 349.857C429.859 346.52 418.569 343.814 404.643 343.814C390.716 343.814 379.426 346.52 379.426 349.857C379.426 353.194 390.716 355.899 404.643 355.899Z" fill="#E7EAFF"/>
<path d="M404.777 355.488C417.991 355.488 428.703 353.013 428.703 349.962C428.703 346.91 417.991 344.436 404.777 344.436C391.563 344.436 380.852 346.91 380.852 349.962C380.852 353.013 391.563 355.488 404.777 355.488Z" fill="#0A399F"/>
<path d="M405.127 357.31C421.991 357.31 435.661 354.048 435.661 350.023C435.661 345.999 421.991 342.736 405.127 342.736C388.264 342.736 374.594 345.999 374.594 350.023C374.594 354.048 388.264 357.31 405.127 357.31Z" fill="#9FCAFC" stroke="black" stroke-width="0.1065" stroke-miterlimit="10"/>
<path d="M374.698 345.361L375.442 346.272L377.858 347.897L383.22 349.718L386.258 350.371L390.542 351.054L396.147 351.616L399.429 351.813L402.026 351.95H405.459L408.437 351.904L412.523 351.738L417.248 351.267L420.286 350.994L425.101 350.189L429.507 349.081L432.043 348.155L434.033 347.092L435.583 345.619L435.674 346.379C435.644 347.699 435.613 349.035 435.583 350.356C435.446 350.629 435.218 350.994 434.884 351.373C434.489 351.829 434.094 352.102 433.714 352.36C432.636 353.058 431.633 353.438 431.223 353.59C429.491 354.242 428.139 354.622 428.048 354.637C426.241 355.138 424.691 355.442 423.369 355.685C421.091 356.095 419.405 356.277 417.491 356.474C414.027 356.854 411.475 356.975 410.655 357.005C409.303 357.066 408.285 357.081 407.343 357.097C405.885 357.127 403.652 357.157 400.705 357.051C397.272 356.93 394.689 356.687 393.762 356.596C393.428 356.565 392.775 356.504 391.955 356.398C390.846 356.277 389.372 356.095 387.504 355.791C386.653 355.654 386.015 355.518 385.742 355.472C385.134 355.351 384.435 355.214 383.524 355.002C382.415 354.728 381.61 354.501 381.397 354.44C380.531 354.182 379.908 353.969 379.711 353.893C378.921 353.62 378.465 353.453 377.858 353.149C377.584 353.013 377.28 352.846 376.673 352.497C376.339 352.299 376.08 352.147 375.761 351.874C375.716 351.829 375.579 351.722 375.427 351.555C375.184 351.297 375.032 351.13 374.895 350.842C374.759 350.569 374.713 350.295 374.683 350.204C374.668 350.128 374.652 350.052 374.652 350.007" fill="#76A2CC"/>
<path d="M405.252 351.949C422.116 351.949 435.786 348.687 435.786 344.662C435.786 340.638 422.116 337.375 405.252 337.375C388.389 337.375 374.719 340.638 374.719 344.662C374.719 348.687 388.389 351.949 405.252 351.949Z" fill="#9FCAFC" stroke="black" stroke-width="0.1065" stroke-miterlimit="10"/>
<path d="M374.7 344.664L374.594 350.145" stroke="black" stroke-width="0.1065" stroke-miterlimit="10"/>
<path d="M435.743 345.055L435.621 350.52" stroke="black" stroke-width="0.1065" stroke-miterlimit="10"/>
<path d="M404.748 350.522C418.675 350.522 429.965 347.817 429.965 344.48C429.965 341.143 418.675 338.438 404.748 338.438C390.821 338.438 379.531 341.143 379.531 344.48C379.531 347.817 390.821 350.522 404.748 350.522Z" fill="#E7EAFF"/>
<path d="M404.89 350.128C418.104 350.128 428.816 347.654 428.816 344.602C428.816 341.55 418.104 339.076 404.89 339.076C391.677 339.076 380.965 341.55 380.965 344.602C380.965 347.654 391.677 350.128 404.89 350.128Z" fill="#0A399F"/>
<path d="M404.163 351.588C421.026 351.588 434.696 348.325 434.696 344.301C434.696 340.276 421.026 337.014 404.163 337.014C387.299 337.014 373.629 340.276 373.629 344.301C373.629 348.325 387.299 351.588 404.163 351.588Z" fill="#0A399F" stroke="black" stroke-width="0.1065" stroke-miterlimit="10"/>
<path d="M373.733 339.715L374.477 340.626L376.893 342.25L382.255 344.072L385.293 344.725L389.577 345.408L395.183 345.97L398.464 346.167L401.061 346.304H404.495L407.472 346.258L411.558 346.091L416.283 345.62L419.321 345.347L424.136 344.543L428.542 343.434L431.079 342.508L433.069 341.446L434.618 339.973L434.709 340.732C434.679 342.053 434.648 343.389 434.618 344.71C434.481 344.983 434.254 345.347 433.919 345.727C433.524 346.182 433.129 346.455 432.75 346.713C431.671 347.412 430.668 347.791 430.258 347.943C428.527 348.596 427.175 348.976 427.083 348.991C425.276 349.492 423.726 349.795 422.405 350.038C420.126 350.448 418.44 350.63 416.526 350.828C413.062 351.207 410.51 351.329 409.69 351.359C408.338 351.42 407.32 351.435 406.378 351.45C404.92 351.48 402.687 351.511 399.74 351.405C396.307 351.283 393.724 351.04 392.798 350.949C392.463 350.919 391.81 350.858 390.99 350.752C389.881 350.63 388.407 350.448 386.539 350.144C385.688 350.008 385.05 349.871 384.777 349.826C384.169 349.704 383.47 349.568 382.559 349.355C381.45 349.082 380.645 348.854 380.432 348.793C379.566 348.535 378.944 348.323 378.746 348.247C377.956 347.974 377.5 347.807 376.893 347.503C376.619 347.366 376.316 347.199 375.708 346.85C375.374 346.653 375.115 346.501 374.796 346.228C374.751 346.182 374.614 346.076 374.462 345.909C374.219 345.651 374.067 345.484 373.931 345.195C373.794 344.922 373.748 344.649 373.718 344.558C373.703 344.482 373.688 344.406 373.688 344.36" fill="#76A2CC"/>
<path d="M404.272 346.213C421.135 346.213 434.806 342.95 434.806 338.926C434.806 334.901 421.135 331.639 404.272 331.639C387.409 331.639 373.738 334.901 373.738 338.926C373.738 342.95 387.409 346.213 404.272 346.213Z" fill="#9FCAFC" stroke="black" stroke-width="0.1065" stroke-miterlimit="10"/>
<path d="M373.735 338.928L373.613 344.408" stroke="black" stroke-width="0.1065" stroke-miterlimit="10"/>
<path d="M434.762 339.318L434.641 344.799" stroke="black" stroke-width="0.1065" stroke-miterlimit="10"/>
<path d="M403.783 344.801C417.71 344.801 429 342.096 429 338.759C429 335.422 417.71 332.717 403.783 332.717C389.856 332.717 378.566 335.422 378.566 338.759C378.566 342.096 389.856 344.801 403.783 344.801Z" fill="#E7EAFF"/>
<path d="M403.91 344.392C417.124 344.392 427.836 341.918 427.836 338.866C427.836 335.814 417.124 333.34 403.91 333.34C390.696 333.34 379.984 335.814 379.984 338.866C379.984 341.918 390.696 344.392 403.91 344.392Z" fill="#0A399F"/>
<path d="M405.1 344.5C421.963 344.5 435.634 341.237 435.634 337.213C435.634 333.188 421.963 329.926 405.1 329.926C388.237 329.926 374.566 333.188 374.566 337.213C374.566 341.237 388.237 344.5 405.1 344.5Z" fill="#0A399F" stroke="black" stroke-width="0.1065" stroke-miterlimit="10"/>
<path d="M374.729 332.504L375.352 333.476L377.767 335.054C377.782 335.054 377.767 335.054 377.782 335.054L383.099 336.967H383.114L386.137 337.62L390.421 338.303L396.011 338.865L399.292 339.062L401.89 339.199H405.323L408.301 339.153L412.387 338.986L417.111 338.516L420.149 338.242C420.149 338.242 420.149 338.242 420.165 338.242L424.965 337.438C424.965 337.438 424.965 337.438 424.98 337.438L429.37 336.33H429.385L431.907 335.404H431.922L433.897 334.356C433.912 334.356 433.912 334.341 433.927 334.341L435.462 332.883L435.553 333.627C435.523 334.948 435.492 336.284 435.462 337.605C435.325 337.878 435.097 338.242 434.763 338.622C434.368 339.077 433.973 339.351 433.593 339.609C432.515 340.307 431.512 340.687 431.102 340.839C429.37 341.491 428.018 341.871 427.927 341.886C426.119 342.387 424.57 342.691 423.248 342.934C420.97 343.343 419.284 343.526 417.369 343.723C413.906 344.102 411.354 344.224 410.534 344.254C409.182 344.315 408.164 344.33 407.222 344.345C405.764 344.376 403.531 344.406 400.584 344.3C397.15 344.178 394.568 343.935 393.641 343.844C393.307 343.814 392.654 343.753 391.834 343.647C390.725 343.526 389.251 343.343 387.383 343.04C386.532 342.903 385.894 342.767 385.621 342.721C385.013 342.6 384.314 342.463 383.403 342.25C382.294 341.977 381.489 341.749 381.276 341.689C380.41 341.431 379.787 341.218 379.59 341.142C378.8 340.869 378.344 340.702 377.736 340.398C377.463 340.262 377.159 340.095 376.552 339.745C376.217 339.548 375.959 339.396 375.64 339.123C375.595 339.077 375.458 338.971 375.306 338.804C375.063 338.546 374.911 338.379 374.774 338.091C374.638 337.817 374.592 337.544 374.562 337.453C374.546 337.377 374.531 337.301 374.531 337.256" fill="#76A2CC"/>
<path d="M405.221 339.139C422.084 339.139 435.755 335.876 435.755 331.851C435.755 327.827 422.084 324.564 405.221 324.564C388.358 324.564 374.688 327.827 374.688 331.851C374.688 335.876 388.358 339.139 405.221 339.139Z" fill="#0A399F" stroke="black" stroke-width="0.1065" stroke-miterlimit="10"/>
<path d="M374.673 331.852L374.566 337.317" stroke="black" stroke-width="0.1065" stroke-miterlimit="10"/>
<path d="M435.692 332.232L435.586 337.713" stroke="black" stroke-width="0.1065" stroke-miterlimit="10"/>
<path d="M404.713 337.711C418.64 337.711 429.93 335.006 429.93 331.669C429.93 328.332 418.64 325.627 404.713 325.627C390.786 325.627 379.496 328.332 379.496 331.669C379.496 335.006 390.786 337.711 404.713 337.711Z" fill="#E7EAFF"/>
<path d="M404.851 337.316C418.065 337.316 428.777 334.842 428.777 331.79C428.777 328.738 418.065 326.264 404.851 326.264C391.638 326.264 380.926 328.738 380.926 331.79C380.926 334.842 391.638 337.316 404.851 337.316Z" fill="#0A399F"/>
<path d="M405.213 339.135C422.077 339.135 435.747 335.872 435.747 331.848C435.747 327.823 422.077 324.561 405.213 324.561C388.35 324.561 374.68 327.823 374.68 331.848C374.68 335.872 388.35 339.135 405.213 339.135Z" fill="#9FCAFC" stroke="black" stroke-width="0.1065" stroke-miterlimit="10"/>
<path d="M374.816 327.129L375.5 328.161L377.885 329.846L383.247 331.668L386.286 332.321L390.569 333.004L396.175 333.566L399.456 333.763L402.054 333.9H405.487L408.464 333.854L412.551 333.687L417.275 333.217L420.313 332.943L425.129 332.139L429.534 331.03L432.071 330.104L434.061 329.042L435.61 327.569L435.701 328.328C435.671 329.649 435.641 330.985 435.61 332.306C435.474 332.579 435.246 332.943 434.911 333.323C434.517 333.778 434.122 334.052 433.742 334.31C432.663 335.008 431.661 335.388 431.25 335.539C429.519 336.192 428.167 336.572 428.076 336.587C426.268 337.088 424.718 337.391 423.397 337.634C421.118 338.044 419.432 338.226 417.518 338.424C414.054 338.803 411.502 338.925 410.682 338.955C409.33 339.016 408.312 339.031 407.37 339.046C405.912 339.077 403.679 339.107 400.732 339.001C397.299 338.879 394.716 338.636 393.79 338.545C393.456 338.515 392.802 338.454 391.982 338.348C390.873 338.226 389.4 338.044 387.531 337.741C386.681 337.604 386.042 337.467 385.769 337.422C385.161 337.3 384.463 337.164 383.551 336.951C382.442 336.678 381.637 336.45 381.424 336.39C380.559 336.131 379.936 335.919 379.738 335.843C378.948 335.57 378.493 335.403 377.885 335.099C377.612 334.962 377.308 334.795 376.7 334.446C376.366 334.249 376.108 334.097 375.789 333.824C375.743 333.778 375.606 333.672 375.454 333.505C375.211 333.247 375.059 333.08 374.923 332.792C374.786 332.518 374.74 332.245 374.71 332.154C374.695 332.078 374.68 332.002 374.68 331.957" fill="#76A2CC"/>
<path d="M405.315 333.777C422.178 333.777 435.849 330.515 435.849 326.49C435.849 322.466 422.178 319.203 405.315 319.203C388.452 319.203 374.781 322.466 374.781 326.49C374.781 330.515 388.452 333.777 405.315 333.777Z" fill="#9FCAFC" stroke="black" stroke-width="0.1065" stroke-miterlimit="10"/>
<path d="M374.77 326.492L374.664 331.957" stroke="black" stroke-width="0.1065" stroke-miterlimit="10"/>
<path d="M435.805 326.871L435.684 332.352" stroke="black" stroke-width="0.1065" stroke-miterlimit="10"/>
<path d="M404.834 332.35C418.761 332.35 430.051 329.645 430.051 326.308C430.051 322.971 418.761 320.266 404.834 320.266C390.907 320.266 379.617 322.971 379.617 326.308C379.617 329.645 390.907 332.35 404.834 332.35Z" fill="#E7EAFF"/>
<path d="M404.953 331.956C418.167 331.956 428.879 329.482 428.879 326.43C428.879 323.378 418.167 320.904 404.953 320.904C391.739 320.904 381.027 323.378 381.027 326.43C381.027 329.482 391.739 331.956 404.953 331.956Z" fill="#0A399F"/>
<path d="M403.104 332.553C419.967 332.553 433.638 329.29 433.638 325.266C433.638 321.241 419.967 317.979 403.104 317.979C386.241 317.979 372.57 321.241 372.57 325.266C372.57 329.29 386.241 332.553 403.104 332.553Z" fill="#0A399F" stroke="black" stroke-width="0.1065" stroke-miterlimit="10"/>
<path d="M372.635 320.723L373.38 321.634L375.795 323.258L381.157 325.08L384.196 325.732L388.479 326.416L394.085 326.977L397.366 327.175L399.964 327.311H403.397L406.374 327.266L410.461 327.099L415.185 326.628L418.223 326.355L423.039 325.55L427.444 324.442L429.981 323.516L431.971 322.453L433.52 320.981L433.612 321.74C433.581 323.061 433.551 324.397 433.52 325.717C433.384 325.991 433.156 326.355 432.822 326.734C432.427 327.19 432.032 327.463 431.652 327.721C430.573 328.42 429.571 328.799 429.161 328.951C427.429 329.604 426.077 329.983 425.986 329.998C424.178 330.499 422.629 330.803 421.307 331.046C419.028 331.456 417.342 331.638 415.428 331.835C411.965 332.215 409.412 332.336 408.592 332.367C407.24 332.427 406.222 332.443 405.281 332.458C403.822 332.488 401.589 332.519 398.642 332.412C395.209 332.291 392.627 332.048 391.7 331.957C391.366 331.926 390.713 331.866 389.892 331.759C388.783 331.638 387.31 331.456 385.441 331.152C384.591 331.016 383.953 330.879 383.679 330.833C383.072 330.712 382.373 330.575 381.461 330.363C380.352 330.09 379.547 329.862 379.335 329.801C378.469 329.543 377.846 329.33 377.648 329.255C376.858 328.981 376.403 328.814 375.795 328.511C375.522 328.374 375.218 328.207 374.61 327.858C374.276 327.661 374.018 327.509 373.699 327.235C373.653 327.19 373.517 327.084 373.365 326.917C373.122 326.659 372.97 326.492 372.833 326.203C372.696 325.93 372.651 325.657 372.62 325.566C372.605 325.49 372.59 325.414 372.59 325.368" fill="#76A2CC"/>
<path d="M403.206 327.191C420.069 327.191 433.739 323.929 433.739 319.904C433.739 315.88 420.069 312.617 403.206 312.617C386.342 312.617 372.672 315.88 372.672 319.904C372.672 323.929 386.342 327.191 403.206 327.191Z" fill="#BCD4F7" stroke="black" stroke-width="0.1065" stroke-miterlimit="10"/>
<path d="M372.676 319.904L372.555 325.385" stroke="black" stroke-width="0.1065" stroke-miterlimit="10"/>
<path d="M433.696 320.299L433.574 325.764" stroke="black" stroke-width="0.1065" stroke-miterlimit="10"/>
<path d="M402.725 325.78C416.652 325.78 427.941 323.074 427.941 319.737C427.941 316.4 416.652 313.695 402.725 313.695C388.798 313.695 377.508 316.4 377.508 319.737C377.508 323.074 388.798 325.78 402.725 325.78Z" fill="#E7EAFF"/>
<path d="M402.859 325.368C416.073 325.368 426.785 322.894 426.785 319.842C426.785 316.79 416.073 314.316 402.859 314.316C389.645 314.316 378.934 316.79 378.934 319.842C378.934 322.894 389.645 325.368 402.859 325.368Z" fill="#BCD4F7"/>
<path d="M406.041 326.539C422.905 326.539 436.575 323.276 436.575 319.252C436.575 315.227 422.905 311.965 406.041 311.965C389.178 311.965 375.508 315.227 375.508 319.252C375.508 323.276 389.178 326.539 406.041 326.539Z" fill="#0A399F" stroke="black" stroke-width="0.1065" stroke-miterlimit="10"/>
<path d="M375.553 314.65L376.298 315.561L378.713 317.186L384.075 319.007L387.114 319.66L391.397 320.343L397.003 320.905L400.284 321.102L402.882 321.239H406.315L409.292 321.194L413.379 321.027L418.103 320.556L421.141 320.283L425.957 319.478L430.362 318.37L432.899 317.444L434.889 316.381L436.438 314.908L436.53 315.652C436.499 316.973 436.469 318.309 436.438 319.63C436.302 319.903 436.074 320.267 435.74 320.647C435.345 321.102 434.95 321.376 434.57 321.634C433.491 322.332 432.489 322.712 432.079 322.864C430.347 323.516 428.995 323.896 428.904 323.911C427.096 324.397 425.547 324.716 424.225 324.959C421.946 325.368 420.26 325.551 418.346 325.748C414.883 326.128 412.33 326.249 411.51 326.279C410.158 326.34 409.14 326.355 408.199 326.37C406.74 326.401 404.507 326.431 401.56 326.325C398.127 326.203 395.545 325.96 394.618 325.869C394.284 325.839 393.631 325.778 392.81 325.672C391.701 325.551 390.228 325.368 388.359 325.065C387.509 324.928 386.871 324.792 386.597 324.746C385.989 324.625 385.291 324.488 384.379 324.275C383.27 324.002 382.465 323.774 382.253 323.714C381.387 323.456 380.764 323.243 380.566 323.167C379.776 322.894 379.321 322.727 378.713 322.423C378.44 322.287 378.136 322.12 377.528 321.77C377.194 321.573 376.936 321.421 376.617 321.148C376.571 321.102 376.434 320.996 376.283 320.829C376.04 320.571 375.888 320.404 375.751 320.116C375.614 319.842 375.569 319.569 375.538 319.478C375.523 319.402 375.508 319.326 375.508 319.281" fill="#76A2CC"/>
<path d="M406.151 321.164C423.014 321.164 436.684 317.901 436.684 313.877C436.684 309.852 423.014 306.59 406.151 306.59C389.288 306.59 375.617 309.852 375.617 313.877C375.617 317.901 389.288 321.164 406.151 321.164Z" fill="#0A399F" stroke="black" stroke-width="0.1065" stroke-miterlimit="10"/>
<path d="M375.598 313.879L375.492 319.359" stroke="black" stroke-width="0.1065" stroke-miterlimit="10"/>
<path d="M436.641 314.27L436.52 319.75" stroke="black" stroke-width="0.1065" stroke-miterlimit="10"/>
<path d="M405.662 319.752C419.589 319.752 430.879 317.047 430.879 313.71C430.879 310.373 419.589 307.668 405.662 307.668C391.735 307.668 380.445 310.373 380.445 313.71C380.445 317.047 391.735 319.752 405.662 319.752Z" fill="#E7EAFF"/>
<path d="M405.789 319.357C419.003 319.357 429.715 316.883 429.715 313.831C429.715 310.779 419.003 308.305 405.789 308.305C392.575 308.305 381.863 310.779 381.863 313.831C381.863 316.883 392.575 319.357 405.789 319.357Z" fill="#0A399F"/>
<path d="M406.151 321.166C423.014 321.166 436.684 317.903 436.684 313.879C436.684 309.854 423.014 306.592 406.151 306.592C389.288 306.592 375.617 309.854 375.617 313.879C375.617 317.903 389.288 321.166 406.151 321.166Z" fill="#9FCAFC" stroke="black" stroke-width="0.1065" stroke-miterlimit="10"/>
<path d="M375.729 309.23L376.474 310.141L378.889 311.766L384.251 313.588L387.289 314.24L391.573 314.923L397.179 315.485L400.46 315.683L403.058 315.819H406.491L409.468 315.774L413.554 315.607L418.279 315.136L421.317 314.863L426.132 314.058L430.538 312.95L433.075 312.024L435.065 310.961L436.614 309.489L436.705 310.248C436.675 311.568 436.645 312.904 436.614 314.225C436.477 314.498 436.25 314.863 435.915 315.242C435.52 315.698 435.125 315.971 434.746 316.229C433.667 316.927 432.665 317.307 432.254 317.459C430.523 318.112 429.171 318.491 429.079 318.506C427.272 319.007 425.722 319.311 424.401 319.554C422.122 319.964 420.436 320.146 418.522 320.358C415.058 320.738 412.506 320.859 411.686 320.89C410.334 320.95 409.316 320.966 408.374 320.981C406.916 321.011 404.683 321.042 401.736 320.935C398.303 320.814 395.72 320.571 394.794 320.48C394.459 320.45 393.806 320.389 392.986 320.283C391.877 320.161 390.404 319.979 388.535 319.675C387.684 319.539 387.046 319.402 386.773 319.356C386.165 319.235 385.467 319.098 384.555 318.886C383.446 318.613 382.641 318.385 382.428 318.324C381.562 318.066 380.94 317.853 380.742 317.778C379.952 317.504 379.496 317.337 378.889 317.034C378.615 316.897 378.312 316.73 377.704 316.381C377.37 316.184 377.112 316.032 376.792 315.758C376.747 315.713 376.61 315.607 376.458 315.44C376.215 315.182 376.063 315.015 375.927 314.726C375.79 314.453 375.744 314.18 375.714 314.088C375.699 314.013 375.684 313.937 375.684 313.891" fill="#76A2CC"/>
<path d="M406.252 315.805C423.116 315.805 436.786 312.542 436.786 308.518C436.786 304.493 423.116 301.23 406.252 301.23C389.389 301.23 375.719 304.493 375.719 308.518C375.719 312.542 389.389 315.805 406.252 315.805Z" fill="#BCD4F7" stroke="black" stroke-width="0.1065" stroke-miterlimit="10"/>
<path d="M375.723 308.518L375.602 313.998" stroke="black" stroke-width="0.1065" stroke-miterlimit="10"/>
<path d="M436.747 308.912L436.641 314.377" stroke="black" stroke-width="0.1065" stroke-miterlimit="10"/>
<path d="M405.772 314.393C419.698 314.393 430.988 311.688 430.988 308.351C430.988 305.014 419.698 302.309 405.772 302.309C391.845 302.309 380.555 305.014 380.555 308.351C380.555 311.688 391.845 314.393 405.772 314.393Z" fill="#E7EAFF"/>
<path d="M405.906 313.982C419.12 313.982 429.832 311.508 429.832 308.456C429.832 305.404 419.12 302.93 405.906 302.93C392.692 302.93 381.98 305.404 381.98 308.456C381.98 311.508 392.692 313.982 405.906 313.982Z" fill="#BCD4F7"/>
<path d="M469.831 368.089C486.694 368.089 500.364 365.105 500.364 361.424C500.364 357.744 486.694 354.76 469.831 354.76C452.967 354.76 439.297 357.744 439.297 361.424C439.297 365.105 452.967 368.089 469.831 368.089Z" fill="#0A399F" stroke="black" stroke-width="0.1065" stroke-miterlimit="10"/>
<path d="M439.401 357.156L440.145 357.991L442.561 359.479L447.923 361.134L450.961 361.741L455.245 362.363L460.851 362.88L464.132 363.062L466.729 363.183H470.163L473.14 363.153L477.226 363.001L481.951 362.576L484.989 362.333L489.804 361.589L494.21 360.572L496.747 359.722L498.737 358.75L500.286 357.399L500.377 358.082C500.347 359.297 500.316 360.511 500.286 361.726C500.149 361.969 499.921 362.303 499.587 362.652C499.192 363.062 498.797 363.32 498.418 363.548C497.339 364.185 496.336 364.534 495.926 364.686C494.194 365.278 492.842 365.627 492.751 365.643C490.944 366.098 489.394 366.387 488.073 366.599C485.794 366.963 484.108 367.146 482.194 367.328C478.73 367.662 476.178 367.783 475.358 367.814C474.006 367.874 472.988 367.889 472.046 367.905C470.588 367.92 468.355 367.95 465.408 367.859C461.975 367.753 459.392 367.525 458.466 367.449C458.131 367.419 457.478 367.358 456.658 367.267C455.549 367.146 454.075 366.994 452.207 366.705C451.356 366.569 450.718 366.462 450.445 366.417C449.837 366.311 449.138 366.189 448.227 365.977C447.118 365.734 446.313 365.506 446.1 365.46C445.234 365.218 444.612 365.02 444.414 364.959C443.624 364.701 443.168 364.55 442.561 364.276C442.287 364.155 441.984 363.988 441.376 363.669C441.042 363.487 440.783 363.35 440.464 363.092C440.419 363.047 440.282 362.94 440.13 362.804C439.887 362.561 439.735 362.409 439.599 362.151C439.462 361.908 439.416 361.65 439.386 361.559C439.371 361.483 439.355 361.422 439.355 361.377" fill="#76A2CC"/>
<path d="M469.956 363.185C486.819 363.185 500.489 360.201 500.489 356.52C500.489 352.839 486.819 349.855 469.956 349.855C453.092 349.855 439.422 352.839 439.422 356.52C439.422 360.201 453.092 363.185 469.956 363.185Z" fill="#9FCAFC" stroke="black" stroke-width="0.1065" stroke-miterlimit="10"/>
<path d="M439.403 356.52L439.297 361.514" stroke="black" stroke-width="0.1065" stroke-miterlimit="10"/>
<path d="M500.43 356.869L500.324 361.879" stroke="black" stroke-width="0.1065" stroke-miterlimit="10"/>
<path d="M469.451 361.878C483.378 361.878 494.668 359.404 494.668 356.352C494.668 353.3 483.378 350.826 469.451 350.826C455.524 350.826 444.234 353.3 444.234 356.352C444.234 359.404 455.524 361.878 469.451 361.878Z" fill="#E7EAFF"/>
<path d="M469.594 361.513C482.807 361.513 493.519 359.25 493.519 356.458C493.519 353.666 482.807 351.402 469.594 351.402C456.38 351.402 445.668 353.666 445.668 356.458C445.668 359.25 456.38 361.513 469.594 361.513Z" fill="#0A399F"/>
<path d="M472.713 362.532C489.577 362.532 503.247 359.549 503.247 355.868C503.247 352.187 489.577 349.203 472.713 349.203C455.85 349.203 442.18 352.187 442.18 355.868C442.18 359.549 455.85 362.532 472.713 362.532Z" fill="#0A399F" stroke="black" stroke-width="0.1065" stroke-miterlimit="10"/>
<path d="M442.292 351.602L443.036 352.437L445.451 353.924L450.814 355.579L453.852 356.186L458.136 356.809L463.741 357.325L467.022 357.507L469.62 357.629H473.053L476.031 357.598L480.117 357.446L484.841 357.021L487.879 356.778L492.695 356.034L497.1 355.017L499.637 354.167L501.627 353.196L503.177 351.844L503.268 352.528C503.237 353.742 503.207 354.957 503.177 356.171C503.04 356.414 502.812 356.748 502.478 357.097C502.083 357.507 501.688 357.765 501.308 357.993C500.23 358.631 499.227 358.98 498.817 359.132C497.085 359.724 495.733 360.073 495.642 360.088C493.834 360.543 492.285 360.832 490.963 361.044C488.685 361.409 486.998 361.591 485.084 361.773C481.621 362.107 479.069 362.229 478.248 362.259C476.896 362.32 475.879 362.335 474.937 362.35C473.479 362.365 471.245 362.395 468.298 362.304C464.865 362.198 462.283 361.97 461.356 361.894C461.022 361.864 460.369 361.803 459.549 361.712C458.44 361.591 456.966 361.439 455.098 361.151C454.247 361.014 453.609 360.908 453.335 360.862C452.728 360.756 452.029 360.634 451.118 360.422C450.009 360.179 449.204 359.951 448.991 359.906C448.125 359.663 447.502 359.465 447.305 359.405C446.515 359.147 446.059 358.995 445.451 358.722C445.178 358.6 444.874 358.433 444.267 358.114C443.932 357.932 443.674 357.796 443.355 357.537C443.309 357.492 443.173 357.386 443.021 357.249C442.778 357.006 442.626 356.854 442.489 356.596C442.352 356.353 442.307 356.095 442.277 356.004C442.261 355.928 442.246 355.868 442.246 355.822" fill="#76A2CC"/>
<path d="M472.815 357.63C489.678 357.63 503.349 354.646 503.349 350.965C503.349 347.285 489.678 344.301 472.815 344.301C455.952 344.301 442.281 347.285 442.281 350.965C442.281 354.646 455.952 357.63 472.815 357.63Z" fill="#9FCAFC" stroke="black" stroke-width="0.1065" stroke-miterlimit="10"/>
<path d="M442.285 350.965L442.164 355.975" stroke="black" stroke-width="0.1065" stroke-miterlimit="10"/>
<path d="M503.305 351.314L503.184 356.324" stroke="black" stroke-width="0.1065" stroke-miterlimit="10"/>
<path d="M472.334 356.324C486.261 356.324 497.551 353.849 497.551 350.798C497.551 347.746 486.261 345.271 472.334 345.271C458.407 345.271 447.117 347.746 447.117 350.798C447.117 353.849 458.407 356.324 472.334 356.324Z" fill="#E7EAFF"/>
<path d="M472.453 355.958C485.667 355.958 496.379 353.695 496.379 350.903C496.379 348.111 485.667 345.848 472.453 345.848C459.239 345.848 448.527 348.111 448.527 350.903C448.527 353.695 459.239 355.958 472.453 355.958Z" fill="#9FCAFC"/>
<path d="M538.22 361.887C538.851 358.261 525.895 352.975 509.282 350.081C492.669 347.187 478.689 347.78 478.058 351.407C477.426 355.033 490.382 360.319 506.995 363.213C523.608 366.107 537.588 365.514 538.22 361.887Z" fill="#0A399F" stroke="black" stroke-width="0.1065" stroke-miterlimit="10"/>
<path d="M478.881 347.273L479.474 348.215L481.6 350.097L486.598 352.648L489.484 353.756L493.601 355.107L499.024 356.58L502.229 357.323L504.766 357.885L508.154 358.477L511.101 358.948L515.157 359.494L519.881 359.889L522.919 360.162L527.78 360.254L532.292 360.011L534.935 359.601L537.062 358.978L538.824 357.916L538.794 358.614C538.551 359.798 538.323 360.997 538.08 362.182C537.898 362.394 537.624 362.698 537.229 362.971C536.773 363.305 536.333 363.502 535.923 363.654C534.753 364.094 533.705 364.277 533.28 364.337C531.472 364.626 530.074 364.732 529.983 364.747C528.13 364.884 526.55 364.899 525.213 364.884C522.904 364.853 521.218 364.732 519.304 364.595C515.84 364.337 513.304 364.003 512.483 363.897C511.131 363.715 510.129 363.563 509.202 363.411C507.759 363.183 505.556 362.834 502.67 362.227C499.313 361.529 496.791 360.876 495.895 360.633C495.576 360.542 494.938 360.375 494.148 360.147C493.069 359.844 491.657 359.434 489.864 358.826C489.059 358.553 488.436 358.325 488.178 358.234C487.601 358.022 486.932 357.779 486.066 357.43C485.018 357.005 484.259 356.64 484.061 356.549C483.256 356.17 482.664 355.866 482.481 355.76C481.752 355.38 481.327 355.153 480.78 354.773C480.537 354.606 480.263 354.394 479.717 353.968C479.413 353.741 479.185 353.543 478.927 353.255C478.881 353.209 478.775 353.088 478.653 352.906C478.456 352.632 478.319 352.45 478.243 352.177C478.152 351.904 478.137 351.661 478.137 351.57C478.137 351.494 478.137 351.433 478.137 351.388" fill="#76A2CC"/>
<path d="M539.171 357.077C539.803 353.45 526.847 348.166 510.234 345.274C493.62 342.382 479.64 342.978 479.008 346.604C478.376 350.23 491.331 355.514 507.945 358.406C524.559 361.298 538.539 360.703 539.171 357.077Z" fill="#9FCAFC" stroke="black" stroke-width="0.1065" stroke-miterlimit="10"/>
<path d="M479.003 346.635L478.031 351.554" stroke="black" stroke-width="0.1065" stroke-miterlimit="10"/>
<path d="M539.05 357.461L538.078 362.38" stroke="black" stroke-width="0.1065" stroke-miterlimit="10"/>
<path d="M533.48 355.92C534.004 352.913 523.306 348.539 509.585 346.151C495.864 343.763 484.317 344.264 483.793 347.271C483.269 350.277 493.967 354.651 507.687 357.039C521.408 359.428 532.956 358.926 533.48 355.92Z" fill="#E7EAFF"/>
<path d="M532.327 355.821C532.807 353.071 522.642 349.004 509.624 346.738C496.606 344.472 485.664 344.864 485.184 347.615C484.705 350.366 494.87 354.433 507.888 356.699C520.906 358.965 531.848 358.572 532.327 355.821Z" fill="#9FCAFC"/>
</svg>
