<svg width="24" height="24" viewBox="0 0 24 24" fill="none" xmlns="http://www.w3.org/2000/svg">
<path d="M14.5453 2H9.44531C7.64531 2 7.24532 2.90001 7.01532 4.01001L6.19531 7.92999H17.7953L16.9753 4.01001C16.7453 2.90001 16.3453 2 14.5453 2Z" stroke="#231C35" stroke-width="1.5" stroke-linecap="round" stroke-linejoin="round"/>
<path d="M19.2386 14.3199C19.3186 15.1699 18.6386 15.9 17.7686 15.9H16.4086C15.6286 15.9 15.5186 15.57 15.3786 15.15L15.2286 14.7199C15.0286 14.1299 14.8986 13.7299 13.8486 13.7299H10.1386C9.09859 13.7299 8.93858 14.1799 8.75858 14.7199L8.60859 15.15C8.46859 15.56 8.35859 15.9 7.57859 15.9H6.21859C5.34859 15.9 4.66859 15.1699 4.74859 14.3199L5.15859 9.89996C5.25859 8.80996 5.46858 7.91992 7.36858 7.91992H16.6186C18.5186 7.91992 18.7286 8.80996 18.8286 9.89996L19.2386 14.3199Z" stroke="#231C35" stroke-width="1.5" stroke-linecap="round" stroke-linejoin="round"/>
<path d="M6.19875 5.75H5.46875" stroke="#231C35" stroke-width="1.5" stroke-linecap="round" stroke-linejoin="round"/>
<path d="M18.5269 5.75H17.7969" stroke="#231C35" stroke-width="1.5" stroke-linecap="round" stroke-linejoin="round"/>
<path d="M7.64844 10.8301H9.81845" stroke="#231C35" stroke-width="1.5" stroke-linecap="round" stroke-linejoin="round"/>
<path d="M14.1797 10.8301H16.3497" stroke="#231C35" stroke-width="1.5" stroke-linecap="round" stroke-linejoin="round"/>
<path d="M12 17V18" stroke="#231C35" stroke-width="1.5" stroke-linecap="round" stroke-linejoin="round"/>
<path d="M12 21V22" stroke="#231C35" stroke-width="1.5" stroke-linecap="round" stroke-linejoin="round"/>
<path d="M3 18L2 22" stroke="#231C35" stroke-width="1.5" stroke-linecap="round" stroke-linejoin="round"/>
<path d="M21 18L22 22" stroke="#231C35" stroke-width="1.5" stroke-linecap="round" stroke-linejoin="round"/>
</svg>
