<svg xmlns="http://www.w3.org/2000/svg" width="40" height="40" viewBox="0 0 40 40" fill="none">
  <path d="M26.0999 23.2291L7.78191 27.6863L6.41383 22.1794L4 12.4572L22.3189 8L26.0999 23.2291Z" fill="white" stroke="black" stroke-width="0.5" stroke-miterlimit="10"/>
  <path d="M22.4078 24.1291L14.3898 18.4698C13.9091 18.1308 13.3377 17.9314 12.7479 17.9259C12.4558 17.9232 12.128 17.9568 11.7791 18.0528C11.7352 18.0646 11.693 18.0773 11.6509 18.0909C10.9559 18.3121 10.357 18.759 9.91929 19.3382C8.86256 20.737 7.80674 22.1348 6.75 23.5335" fill="white"/>
  <path d="M22.4078 24.1291L14.3898 18.4698C13.9091 18.1308 13.3377 17.9314 12.7479 17.9259C12.4558 17.9232 12.128 17.9568 11.7791 18.0528C11.7352 18.0646 11.693 18.0773 11.6509 18.0909C10.9559 18.3121 10.357 18.759 9.91929 19.3382C8.86256 20.737 7.80674 22.1348 6.75 23.5335" stroke="black" stroke-width="0.5" stroke-miterlimit="10"/>
  <path d="M8.7656 16.141C9.72034 15.9087 10.3182 15.0109 10.1009 14.1358C9.88356 13.2607 8.93344 12.7396 7.97871 12.9719C7.02397 13.2043 6.42615 14.102 6.64345 14.9771C6.86074 15.8522 7.81086 16.3733 8.7656 16.141Z" fill="white" stroke="black" stroke-width="0.5" stroke-miterlimit="10"/>
  <path d="M14.7812 18.7456L18.3031 14.0853C18.3938 13.9485 18.7527 13.4435 19.4523 13.2459C20.2453 13.022 20.8882 13.3574 21.0136 13.4263C22.0539 14.0618 23.0941 14.6972 24.1353 15.3327" fill="white"/>
  <path d="M14.7812 18.7456L18.3031 14.0853C18.3938 13.9485 18.7527 13.4435 19.4523 13.2459C20.2453 13.022 20.8882 13.3574 21.0136 13.4263C22.0539 14.0618 23.0941 14.6972 24.1353 15.3327" stroke="black" stroke-width="0.136484" stroke-miterlimit="10"/>
  <path d="M31.549 30.3675L13.4453 25.1189L15.0561 19.6763L17.8984 10.0684L36.0012 15.317L31.549 30.3675Z" fill="white" stroke="black" stroke-width="0.5" stroke-miterlimit="10"/>
  <path d="M27.8948 29.3089L23.8308 20.4298C23.5872 19.8977 23.1935 19.4408 22.6862 19.1435C22.4353 18.9966 22.1349 18.8615 21.7842 18.7718C21.7402 18.7609 21.6972 18.75 21.6542 18.741C20.9408 18.5869 20.1963 18.6757 19.5242 18.9585C17.9015 19.6429 16.2789 20.3273 14.6562 21.0117" fill="white"/>
  <path d="M27.8948 29.3089L23.8308 20.4298C23.5872 19.8977 23.1935 19.4408 22.6862 19.1435C22.4353 18.9966 22.1349 18.8615 21.7842 18.7718C21.7402 18.7609 21.6972 18.75 21.6542 18.741C20.9408 18.5869 20.1963 18.6757 19.5242 18.9585C17.9015 19.6429 16.2789 20.3273 14.6562 21.0117" stroke="black" stroke-width="0.136484" stroke-miterlimit="10"/>
  <path d="M22.3255 14.5537C22.5814 13.6889 22.0239 12.766 21.0804 12.4924C20.1369 12.2188 19.1645 12.6981 18.9086 13.563C18.6528 14.4278 19.2102 15.3507 20.1537 15.6243C21.0973 15.8978 22.0696 15.4185 22.3255 14.5537Z" fill="white" stroke="black" stroke-width="0.5" stroke-miterlimit="10"/>
  <path d="M24.0391 20.8695L29.4482 18.5887C29.5956 18.5153 30.1625 18.257 30.8685 18.4337C31.6679 18.6341 32.0543 19.2441 32.1276 19.3656C32.7054 20.4326 33.2823 21.4986 33.8601 22.5655" fill="white"/>
  <path d="M24.0391 20.8695L29.4482 18.5887C29.5956 18.5153 30.1625 18.257 30.8685 18.4337C31.6679 18.6341 32.0543 19.2441 32.1276 19.3656C32.7054 20.4326 33.2823 21.4986 33.8601 22.5655" stroke="black" stroke-width="0.5" stroke-miterlimit="10"/>
  <path d="M29.3794 32L10.5156 31.9402L10.5339 26.2691L10.566 16.2578L29.4297 16.3176L29.3794 32Z" fill="white" stroke="black" stroke-width="0.5" stroke-miterlimit="10"/>
  <path d="M25.5783 31.9877L19.1811 24.5771C18.7974 24.1329 18.2919 23.8029 17.7205 23.657C17.4376 23.5845 17.1116 23.5383 16.749 23.5482C16.7041 23.5491 16.6592 23.5518 16.6153 23.5546C15.8873 23.6026 15.1959 23.8927 14.6309 24.3505C13.2647 25.4546 11.8975 26.5587 10.5312 27.6628" fill="white"/>
  <path d="M25.5783 31.9877L19.1811 24.5771C18.7974 24.1329 18.2919 23.8029 17.7205 23.657C17.4376 23.5845 17.1116 23.5383 16.749 23.5482C16.7041 23.5491 16.6592 23.5518 16.6153 23.5546C15.8873 23.6026 15.1959 23.8927 14.6309 24.3505C13.2647 25.4546 11.8975 26.5587 10.5312 27.6628" stroke="black" stroke-width="0.5" stroke-miterlimit="10"/>
  <path d="M16.0812 19.3464C16.0841 18.4452 15.2895 17.7122 14.3063 17.7091C13.3232 17.7059 12.5238 18.434 12.5209 19.3351C12.518 20.2363 13.3126 20.9693 14.2958 20.9724C15.2789 20.9755 16.0783 20.2475 16.0812 19.3464Z" fill="white" stroke="black" stroke-width="0.5" stroke-miterlimit="10"/>
  <path d="M19.5 24.9446L24.0557 21.2652C24.1775 21.1546 24.6491 20.7503 25.3762 20.7258C26.2003 20.6977 26.7424 21.1781 26.8468 21.2742C27.7012 22.1399 28.5555 23.0056 29.4099 23.8713" fill="white"/>
  <path d="M19.5 24.9446L24.0557 21.2652C24.1775 21.1546 24.6491 20.7503 25.3762 20.7258C26.2003 20.6977 26.7424 21.1781 26.8468 21.2742C27.7012 22.1399 28.5555 23.0056 29.4099 23.8713" stroke="black" stroke-width="0.5" stroke-miterlimit="10"/>
</svg>