<svg width="24" height="24" viewBox="0 0 24 24" fill="none" xmlns="http://www.w3.org/2000/svg">
<path d="M17.0909 11.75C17.0909 15.365 14.1604 18.2955 10.5455 18.2955C6.9305 18.2955 4 15.365 4 11.75C4 8.13509 6.9305 5.20459 10.5455 5.20459C14.1604 5.20459 17.0909 8.13509 17.0909 11.75Z" fill="#BAD0EE"/>
<path fill-rule="evenodd" clip-rule="evenodd" d="M13 5.40909C9.49801 5.40909 6.65909 8.24801 6.65909 11.75C6.65909 15.252 9.49801 18.0909 13 18.0909C14.8938 18.0909 16.5936 17.2609 17.7557 15.9442L18.0624 16.2149C16.8259 17.6159 15.0161 18.5 13 18.5C9.27208 18.5 6.25 15.4779 6.25 11.75C6.25 8.02208 9.27208 5 13 5C15.0161 5 16.8259 5.88412 18.0624 7.28511L17.7557 7.55582C16.5936 6.23908 14.8938 5.40909 13 5.40909Z" fill="black"/>
<path fill-rule="evenodd" clip-rule="evenodd" d="M18.3178 10.978L20.3633 12.159L18.3178 13.3399V12.3635H13.8178C13.7049 12.3635 13.6133 12.2719 13.6133 12.159C13.6133 12.046 13.7049 11.9544 13.8178 11.9544H18.3178V10.978Z" fill="black"/>
</svg>
