<svg width="24" height="24" viewBox="0 0 720 720" fill="none" xmlns="http://www.w3.org/2000/svg">
<g clip-path="url(#clip0_9866_2511)">
<path d="M144.996 131.003C145.996 129.003 303.996 193.003 303.996 193.003H433.996L585.996 134.003L611.996 206.003L595.996 283.003L611.996 289.003L590.996 302.003L604.996 310.003L587.996 323.003L599.996 329.003L575.996 356.003L606.996 460.003L575.996 568.003L467.996 536.003L403.996 582.003H333.996L265.996 533.003L159.996 566.003L126.996 458.003L160.996 356.003L134.996 329.003H146.996L130.996 307.003L144.996 306.003L126.996 287.003L141.996 283.003L120.996 205.003L144.996 131.003Z" fill="#BACFED"/>
<path d="M146.016 130.996L304.016 192.996L330.016 262.996L146.016 130.996Z" fill="#9FC0E2"/>
<path d="M330 275.996L269 325.996L235 371.996H337L330 275.996Z" fill="#9FC0E2"/>
<path d="M216.008 460.004L128.008 459.004L161.008 566.004L267.008 534.004L216.008 460.004Z" fill="#9FC0E2"/>
<path d="M276.012 461.992L267.012 533.992L334.012 502.992L276.012 461.992Z" fill="#9FC0E2"/>
<path d="M460.016 462.988L406.016 500.988L469.016 534.988L460.016 462.988Z" fill="#9FC0E2"/>
<path d="M521.004 462L469.004 535L577.004 568L608.004 460L521.004 462Z" fill="#9FC0E2"/>
<path d="M408.015 275L401.016 371H503.015L468.015 324L408.015 275Z" fill="#9FC0E2"/>
<path d="M434.008 193L408.008 261L585.008 135L435.008 193" fill="#9FC0E2"/>
<path d="M502.008 371.992L463.008 413.992V448.992L502.008 371.992Z" fill="#9FC0E2"/>
<path d="M236.016 372.988L275.016 414.988V449.988L236.016 372.988Z" fill="#9FC0E2"/>
<path d="M215.996 460L275.996 462L266.996 534L215.996 460Z" fill="#71A5D3"/>
<path d="M460 462.992L520 461.992L470 534.992L460 462.992Z" fill="#71A5D3"/>
<path d="M235 371.992H337L333 429.992L275 414.992L235 371.992Z" fill="#71A5D3"/>
<path d="M502.996 371.992H400.996L403.996 430.992L462.996 415.992L502.996 371.992Z" fill="#71A5D3"/>
<path d="M415.016 552.996L469.016 534.996L406.016 500.996L415.016 552.996Z" fill="white"/>
<path d="M334.008 502.988L268.008 532.988L325.008 553.988L334.008 502.988Z" fill="white"/>
<path d="M269.004 533.988L335.004 580.988H405.004L469.004 534.988V533.988L415.004 552.988L405.004 538.988H335.004L325.004 552.988L269.004 532.988V533.988Z" fill="#E5EDF9"/>
<path d="M586.989 134.004L407.988 261.004V275.004L467.988 324.004L576.989 356.004L601.989 329.004L588.988 323.004L606.989 310.004L591.989 302.004L612.988 289.004L596.989 284.004L612.988 206.004L586.989 134.004Z" fill="#8F9BB5"/>
<path d="M145.992 130.996L329.992 262.996V275.996L268.992 325.996L162.992 355.996L135.992 328.996H148.992L131.992 306.996L146.992 305.996L127.992 286.996L142.992 282.996L121.992 204.996L145.992 130.996Z" fill="#8F9BB5"/>
<path d="M134 121.003C135 119.003 293 183.003 293 183.003H423L575 124.003L601 196.003L585 273.003L601 279.003L580 292.003L594 300.003L577 313.003L589 319.003L565 346.003L596 450.003L565 558.003L457 526.003L393 572.003H323L255 523.003L149 556.003L116 448.003L150 346.003L124 319.003H136L120 297.003L134 296.003L116 277.003L131 273.003L110 195.003L134 121.003Z" stroke="#284997" stroke-width="5" stroke-miterlimit="10"/>
<path d="M134.004 120.996L318.004 252.996V265.996L257.004 316.996L152.004 346.996" stroke="#284997" stroke-width="2" stroke-miterlimit="10"/>
<path d="M575.012 125L397.012 251V265L456.012 315L566.012 347" stroke="#284997" stroke-width="2" stroke-miterlimit="10"/>
<path d="M301.008 394.004L313.008 419.004L273.008 408.004L301.008 394.004Z" fill="#010202"/>
<path d="M415.012 394.004L402.012 419.004L443.011 408.004L415.012 394.004Z" fill="#010202"/>
<path d="M257.988 316.016L222.988 363.016" stroke="#284997" stroke-width="2" stroke-miterlimit="10"/>
<path d="M328.984 453.008L325.984 363.008H223.984L263.984 442.008V406.008L224.984 364.008" stroke="#284997" stroke-width="2" stroke-miterlimit="10"/>
<path d="M116.992 449.004L264.992 452.004L322.992 493.004" stroke="#284997" stroke-width="2" stroke-miterlimit="10"/>
<path d="M292.988 183.008L317.988 253.008" stroke="#284997" stroke-width="2" stroke-miterlimit="10"/>
<path d="M317.988 266.016C317.988 266.016 324.988 362.016 325.988 363.016" stroke="#284997" stroke-width="2" stroke-miterlimit="10"/>
<path d="M205 451.016L256 524.016L323 493.016" stroke="#284997" stroke-width="2" stroke-miterlimit="10"/>
<path d="M264.996 452.012L255.996 524.012" stroke="#284997" stroke-width="2" stroke-miterlimit="10"/>
<path d="M491.992 361L456.992 315" stroke="#284997" stroke-width="2" stroke-miterlimit="10"/>
<path d="M385.996 453.012L388.996 362.012H491.996" stroke="#284997" stroke-width="2" stroke-miterlimit="10"/>
<path d="M313.996 544.004L255.996 524.004" stroke="#284997" stroke-width="2" stroke-miterlimit="10"/>
<path d="M596.996 450L448.996 452L395.996 493L457.996 525L403.996 544" stroke="#284997" stroke-width="2" stroke-miterlimit="10"/>
<path d="M422.992 183.008L396.992 251.008" stroke="#284997" stroke-width="2" stroke-miterlimit="10"/>
<path d="M397.004 265C397.004 265 390.004 361 389.004 362" stroke="#284997" stroke-width="2" stroke-miterlimit="10"/>
<path d="M509.988 452.012L457.988 525.012" stroke="#284997" stroke-width="2" stroke-miterlimit="10"/>
<path d="M449.004 452.012L458.004 525.012" stroke="#284997" stroke-width="2" stroke-miterlimit="10"/>
<path d="M491.996 361.996L450.996 441.996V405.996L491.996 360.996V361.996Z" stroke="#284997" stroke-width="2" stroke-miterlimit="10"/>
<path d="M395.008 488.008L404.008 545.008L393.008 532.008H324.008L313.008 545.008L324.008 488.008H395.008Z" fill="#010202"/>
</g>
<defs>
<clipPath id="clip0_9866_2511">
<rect width="720" height="720" fill="white"/>
</clipPath>
</defs>
</svg>
