<svg xmlns="http://www.w3.org/2000/svg" width="24" height="24" viewBox="0 0 24 24" fill="none">
  <path fill-rule="evenodd" clip-rule="evenodd"
    d="M7.03575 5.3213V8.39197L7.82067 8.39276L7.82146 5.32181L7.42861 5.32133C7.36194 5.32133 7.28197 5.32133 7.19503 5.32131C7.14392 5.32131 7.09039 5.3213 7.03575 5.3213ZM9.32146 6.10705V4.57149C9.32146 4.37256 9.24243 4.18178 9.10176 4.04113C8.96108 3.90047 8.77029 3.82147 8.57136 3.82149L7.42861 3.82133C7.36252 3.82133 7.28305 3.82133 7.19648 3.82131C6.88702 3.82128 6.48697 3.82123 6.28451 3.82157C5.87078 3.82225 5.53575 4.15784 5.53575 4.57156V6.10705H2.85718C2.44296 6.10705 2.10718 6.44284 2.10718 6.85705C2.10718 7.27126 2.44296 7.60705 2.85718 7.60705H5.53575V9.14276C5.53575 9.55698 5.87154 9.89276 6.28575 9.89276H8.57062C8.98483 9.89276 9.32146 9.55698 9.32146 9.14276V7.60705H21.1429C21.5571 7.60705 21.8929 7.27126 21.8929 6.85705C21.8929 6.44284 21.5571 6.10705 21.1429 6.10705H9.32146ZM14.6786 10.2856C14.6786 9.87141 15.0144 9.53562 15.4286 9.53562H17.7143C18.1285 9.53562 18.4643 9.87141 18.4643 10.2856V11.8213H21.1429C21.5571 11.8213 21.8929 12.1571 21.8929 12.5713C21.8929 12.9855 21.5571 13.3213 21.1429 13.3213H18.4643V14.857C18.4643 15.2713 18.1285 15.607 17.7143 15.607H15.4286C15.0144 15.607 14.6786 15.2713 14.6786 14.857V13.3213H2.85718C2.44296 13.3213 2.10718 12.9855 2.10718 12.5713C2.10718 12.1571 2.44296 11.8213 2.85718 11.8213H14.6786V10.2856ZM16.1786 14.1066L16.9643 14.107L16.9643 11.0356H16.1786V14.1066ZM5.75544 15.4696C5.8961 15.3289 6.08688 15.2499 6.2858 15.2499H8.57132C8.77026 15.2499 8.96106 15.3289 9.10174 15.4695C9.24243 15.6102 9.32146 15.801 9.32146 15.9999V17.5356H21.1429C21.5571 17.5356 21.8929 17.8714 21.8929 18.2856C21.8929 18.6998 21.5571 19.0356 21.1429 19.0356H9.32146V20.5713C9.32146 20.9855 8.98568 21.3213 8.57146 21.3213L6.28575 21.3214C5.87154 21.3214 5.53575 20.9856 5.53575 20.5714V19.0356H2.85718C2.44296 19.0356 2.10718 18.6998 2.10718 18.2856C2.10718 17.8714 2.44296 17.5356 2.85718 17.5356H5.53575V15.9999C5.53575 15.801 5.61477 15.6102 5.75544 15.4696ZM7.03575 19.8214L7.82104 19.8213L7.82146 16.7503L7.03575 16.7499V19.8214Z"
     />
</svg>