<svg xmlns="http://www.w3.org/2000/svg" width="28" height="28" viewBox="0 0 28 28" fill="none">
<mask id="mask0_10977_97705" style="mask-type:luminance" maskUnits="userSpaceOnUse" x="1" y="1" width="26" height="26">
<path d="M10.5002 2.33301H3.50016C3.19074 2.33301 2.894 2.45592 2.6752 2.67472C2.45641 2.89351 2.3335 3.19026 2.3335 3.49967V10.4997C2.3335 10.8091 2.45641 11.1058 2.6752 11.3246C2.894 11.5434 3.19074 11.6663 3.50016 11.6663H10.5002C10.8096 11.6663 11.1063 11.5434 11.3251 11.3246C11.5439 11.1058 11.6668 10.8091 11.6668 10.4997V3.49967C11.6668 3.19026 11.5439 2.89351 11.3251 2.67472C11.1063 2.45592 10.8096 2.33301 10.5002 2.33301ZM10.5002 16.333H3.50016C3.19074 16.333 2.894 16.4559 2.6752 16.6747C2.45641 16.8935 2.3335 17.1903 2.3335 17.4997V24.4997C2.3335 24.8091 2.45641 25.1058 2.6752 25.3246C2.894 25.5434 3.19074 25.6663 3.50016 25.6663H10.5002C10.8096 25.6663 11.1063 25.5434 11.3251 25.3246C11.5439 25.1058 11.6668 24.8091 11.6668 24.4997V17.4997C11.6668 17.1903 11.5439 16.8935 11.3251 16.6747C11.1063 16.4559 10.8096 16.333 10.5002 16.333ZM24.5002 2.33301H17.5002C17.1907 2.33301 16.894 2.45592 16.6752 2.67472C16.4564 2.89351 16.3335 3.19026 16.3335 3.49967V10.4997C16.3335 10.8091 16.4564 11.1058 16.6752 11.3246C16.894 11.5434 17.1907 11.6663 17.5002 11.6663H24.5002C24.8096 11.6663 25.1063 11.5434 25.3251 11.3246C25.5439 11.1058 25.6668 10.8091 25.6668 10.4997V3.49967C25.6668 3.19026 25.5439 2.89351 25.3251 2.67472C25.1063 2.45592 24.8096 2.33301 24.5002 2.33301Z" fill="white" stroke="white" stroke-width="1.5" stroke-linejoin="round"/>
<path d="M16.3335 16.333H25.6668M21.0002 20.9997H25.6668M16.3335 25.6663H25.6668" stroke="white" stroke-width="1.5" stroke-linecap="round" stroke-linejoin="round"/>
</mask>
<g mask="url(#mask0_10977_97705)">
<path d="M0 0H28V28H0V0Z" fill="url(#paint0_linear_10977_97705)"/>
</g>
<defs>
<linearGradient id="paint0_linear_10977_97705" x1="0" y1="14" x2="28" y2="14" gradientUnits="userSpaceOnUse">
<stop stop-color="#00CFB4"/>
<stop offset="1" stop-color="#0047BB"/>
</linearGradient>
</defs>
</svg>